# This file uses millimeters as units for non-parametric coordinates.

v 0.000000 -4.070723 4.032677
v -0.289495 -4.087852 4.079421
v -0.493344 -4.135574 4.203771
v -0.989713 -4.561045 5.643004
v -1.420366 -4.748279 6.880661
v -1.156662 -4.886181 7.637586
v -0.559143 -4.908701 7.861197
v 0.000000 -4.928579 7.874910
v -0.296779 -4.123771 3.364035
v -0.443984 -4.437632 3.476861
v -0.901597 -5.511794 5.043038
v -1.105803 -5.816006 7.170995
v -0.550913 -4.249180 3.209393
v -1.152514 -5.341260 5.001552
v -1.245257 -5.752649 7.150755
v -0.005734 -4.143358 3.195721
v -0.005734 -4.363681 3.401253
v -0.005734 -3.915241 2.731872
v -0.381530 -4.008822 2.934613
v -0.193208 -4.278026 3.442379
v -0.005734 -4.346603 3.661366
v -0.563213 -4.736128 9.257057
v -0.000000 -4.354223 9.470993
v -0.000000 -3.768304 2.085965
v -0.225205 -4.159565 3.678831
v -0.005734 -4.124598 3.756496
v -0.596152 -3.555874 2.897391
v -1.325274 -4.876258 5.322828
v -1.429566 -5.392515 7.061741
v 0.000000 -3.768304 2.085965
v -0.419084 -4.235828 9.285881
v -0.000000 -4.603342 9.520686
v -0.459374 -4.995275 9.281775
v -0.000000 -4.777512 8.694781
v -0.333887 -4.942560 8.633818
v -0.009118 -4.154280 9.449075
v -0.146282 -4.272277 3.638648
v -0.257350 -4.123709 3.879126
v -0.000000 -4.096032 3.902933
v -1.028623 -4.569816 6.235511
v -0.923041 -5.818843 6.071955
v -1.192694 -5.694743 6.039673
v -1.364675 -5.071299 5.979785
v 0.000000 -4.176611 8.249575
v -0.009118 -4.072738 8.784830
v -0.000000 -4.502107 8.729970
v 0.000000 -4.577817 8.049675
v -0.009118 -3.935348 9.509044
v 0.000000 -3.838041 4.045593
v -0.005310 -3.841634 3.902933
v -0.005310 -3.848652 3.407314
v 0.000000 -3.427943 4.045593
v -0.000000 -3.442346 3.902933
v -0.000000 -3.511874 3.171724
v -0.000000 -3.768304 2.085965
v 0.000000 -3.935457 4.330522
v 0.000000 -3.393393 4.435073
vt 0.025278 0.663229
vt 0.039392 0.662478
vt 0.042348 0.675189
vt 0.024242 0.672899
vt 0.049380 0.660339
vt 0.089658 0.701346
vt 0.074328 0.634765
vt 0.177649 0.640217
vt 0.076220 0.627223
vt 0.180415 0.620404
vt 0.115521 0.723570
vt 0.232211 0.643204
vt 0.241166 0.618333
vt 0.078136 0.536798
vt 0.184034 0.594486
vt 0.078694 0.617356
vt 0.082278 0.606562
vt 0.021596 0.697315
vt 0.023073 0.683814
vt 0.045304 0.687899
vt 0.030873 0.703963
vt 0.040150 0.710610
vt 0.019713 0.719976
vt 0.059331 0.714436
vt 0.018726 0.736093
vt 0.081761 0.739907
vt 0.017426 0.758271
vt 0.106559 0.766908
vt 0.015712 0.787495
vt 0.290773 0.646261
vt 0.138453 0.749593
vt 0.311308 0.616764
vt 0.147030 0.475897
vt 0.338171 0.578176
vt 0.252880 0.585796
vt 0.113198 0.514961
vt 0.030753 0.528674
vt 0.031964 0.505533
vt 0.027317 0.597978
vt 0.029889 0.550241
vt 0.041307 0.551687
vt 0.051799 0.599116
vt 0.034452 0.465498
vt 0.440387 0.519264
vt 0.472359 0.513014
vt 0.462965 0.545401
vt 0.437809 0.553891
vt 0.405561 0.531346
vt 0.406591 0.547460
vt 0.403226 0.511273
vt 0.442041 0.497054
vt 0.480573 0.484698
vt 0.403773 0.565123
vt 0.384696 0.589065
vt 0.389166 0.571147
vt 0.401391 0.569715
vt 0.411051 0.587432
vt 0.371716 0.593468
vt 0.377814 0.591400
vt 0.377814 0.611909
vt 0.371109 0.612230
vt 0.384696 0.610775
vt 0.432850 0.605723
vt 0.377814 0.644099
vt 0.371109 0.645291
vt 0.412178 0.638336
vt 0.463206 0.617429
vt 0.352804 0.648160
vt 0.357718 0.604437
vn 0.088084 -0.977863 0.189802
vn 0.303055 -0.913922 0.270009
vn 0.399192 -0.899936 0.175388
vn 0.088239 -0.977979 0.189132
vn 0.799354 -0.514096 0.311027
vn 0.654363 -0.744524 -0.132261
vn 0.988917 -0.036552 0.143901
vn 0.572009 -0.775801 -0.266342
vn 0.973258 0.129544 0.189703
vn 0.580770 -0.813967 0.012824
vn -0.428535 -0.645613 -0.632093
vn -0.720298 -0.576003 -0.386510
vn -0.743489 -0.648901 -0.161715
vn 0.122472 -0.882367 0.454345
vn 0.543990 -0.788001 0.288322
vn 0.976276 0.216310 -0.009722
vn 0.724105 -0.611862 -0.318270
vn -0.405016 -0.740221 0.536689
vn -0.112515 -0.793379 0.598239
vn -0.078168 -0.907353 0.413037
vn -0.581079 -0.698045 0.418425
vn -0.625816 -0.764786 -0.153153
vn -0.468009 -0.826889 -0.311805
vn 0.017884 -0.925601 -0.378077
vn -0.268655 -0.807084 -0.525776
vn -0.033770 -0.884407 -0.465493
vn 0.016043 -0.957915 -0.286604
vn -0.370660 -0.812845 -0.449326
vn 0.122830 -0.967939 -0.219106
vn -0.939954 -0.221196 -0.259922
vn -0.837710 -0.286233 -0.465094
vn -0.942231 -0.312093 -0.121652
vn -0.713570 0.026194 0.700094
vn -0.971501 -0.193878 0.136369
vn -0.846563 -0.500402 0.181462
vn -0.681585 -0.110865 0.723291
vn 0.084810 -0.611417 0.786751
vn -0.409917 0.054669 0.910483
vn 0.156131 -0.986444 0.050518
vn 0.356724 -0.930380 0.084507
vn 0.242040 -0.969606 0.035798
vn 0.081298 -0.996675 -0.005380
vn -0.387594 0.065662 0.919489
vn 0.999815 0.019065 0.002394
vn 0.999940 0.009089 0.006158
vn 0.999940 0.009089 0.006158
vn 0.999918 0.012710 0.001596
vn 0.999577 0.029038 -0.001371
vn 0.999894 0.014521 -0.000686
vn 1.000000 -0.000000 -0.000000
vn 1.000000 -0.000000 0.000000
vn 1.000000 -0.000000 0.000000
vn 1.000000 -0.000000 -0.000000
vn 1.000000 -0.000000 0.000000
vn 1.000000 -0.000000 0.000000
vn 1.000000 0.000000 -0.000000
vn 0.999995 0.000653 -0.003122
vn 1.000000 -0.000000 0.000000
vn 1.000000 -0.000000 0.000000
vn 1.000000 -0.000628 -0.000128
vn 0.999720 0.011447 -0.020702
vn 0.999862 0.007331 -0.014906
vn 0.999929 -0.001510 -0.011781
vn 0.999915 0.001630 -0.012966
vn 0.999972 -0.007406 -0.001381
vn 0.999955 -0.009347 0.001351
vn 0.999909 -0.010352 -0.008656
vn 0.999953 -0.003280 -0.009097
vn 0.999874 -0.015791 0.001920
vn 0.999844 -0.017439 0.002958
vn 1.000000 -0.000000 0.000000
vn 1.000000 -0.000000 0.000000
s 1
f 1/1/1 2/2/2 38/3/3 39/4/4
f 38/3/3 2/2/2 3/5/5 10/6/6
f 10/6/6 3/5/5 4/7/7 11/8/8
f 11/8/8 4/7/7 40/9/9 41/10/10
f 13/11/11 10/6/6 11/8/8 14/12/12
f 14/12/12 11/8/8 41/10/10 42/13/13
f 33/14/14 12/15/15 5/16/16 6/17/17
f 21/18/18 26/19/19 25/20/20 37/21/21
f 20/22/22 17/23/23 21/18/18 37/21/21
f 9/24/24 16/25/25 17/23/23 20/22/22
f 9/24/24 19/26/26 18/27/27 16/25/25
f 9/24/24 10/6/6 13/11/11 19/26/26
f 30/28/28 24/29/29 18/27/27 19/26/26
f 28/30/30 27/31/31 13/11/11 14/12/12
f 43/32/32 28/30/30 14/12/12 42/13/13
f 31/33/33 29/34/34 15/35/35 22/36/36
f 19/26/26 13/11/11 27/31/31 30/28/28
f 33/14/14 32/37/37 23/38/38 22/36/36
f 8/39/39 34/40/40 35/41/41 7/42/42
f 34/40/40 32/37/37 33/14/14 35/41/41
f 36/43/43 31/33/33 22/36/36 23/38/38
f 37/21/21 25/20/20 9/24/24 20/22/22
f 15/35/35 12/15/15 33/14/14 22/36/36
f 33/14/14 6/17/17 7/42/42 35/41/41
f 25/20/20 38/3/3 10/6/6 9/24/24
f 39/4/4 38/3/3 25/20/20 26/19/19
f 41/10/10 40/9/9 5/16/16 12/15/15
f 42/13/13 41/10/10 12/15/15 15/35/35
f 29/34/34 43/32/32 42/13/13 15/35/35
s 2
f 46/44/44 47/45/45 44/46/46 45/47/47
f 23/48/48 46/44/44 45/47/47 36/49/49
s 3
f 32/50/50 34/51/51 46/44/52 23/48/53
f 34/51/51 8/52/54 47/45/55 46/44/52
s 2
f 36/49/49 45/47/47 48/53/56
s 4
f 26/54/57 21/55/58 17/56/59 16/57/60
f 1/58/61 39/59/62 50/60/63 49/61/64
f 39/59/62 26/54/57 51/62/65 50/60/63
f 26/54/57 16/57/60 18/63/66 51/62/65
f 49/61/64 50/60/63 53/64/67 52/65/68
f 50/60/63 51/62/65 54/66/69 53/64/67
f 51/62/65 18/63/66 55/67/70 54/66/69
f 49/61/64 52/65/68 57/68/71 56/69/72
