# This file uses millimeters as units for non-parametric coordinates.

mtllib mu1_urSphMuL.mtl
v 0.000000 -4.128767 5.047379
v 0.000000 -4.079976 4.915160
v -0.454102 -4.160522 5.096838
v 0.000000 -4.200680 5.243117
v 0.000000 -4.035338 4.792285
v -0.577142 -4.067400 4.796799
v 0.000000 -4.015913 4.721742
v -0.471900 -4.010399 4.573089
v 0.000000 -3.991327 4.600710
v 0.000000 -3.935457 4.330522
v 0.000000 -2.254818 5.031729
v -0.013480 -2.408888 5.166931
v -0.015514 -2.380641 5.354424
v 0.000000 -2.544627 5.528018
v -0.014872 -2.397083 5.261240
v -0.007132 -2.927039 5.047882
v -0.007376 -2.973779 5.164721
v -0.006532 -3.490458 4.988986
v -0.006789 -3.451203 4.900630
v -0.006160 -3.527961 5.149849
v -0.007136 -2.981454 5.276637
v 0.000000 -2.862220 4.920895
v 0.000000 -3.419780 4.783429
v 0.000000 -3.100063 5.380173
v 0.000000 -3.578114 5.248408
v 0.000000 -2.295341 4.597023
v -0.541944 -2.379188 4.898486
v -0.510383 -2.481220 5.584976
v 0.000000 -2.538788 5.892790
v -0.665686 -2.409138 5.309072
v -0.525051 -2.906571 4.798015
v -0.632398 -2.984837 5.190323
v -0.628147 -3.509947 5.009008
v -0.510212 -3.425159 4.689245
v -0.501055 -3.600969 5.308582
v -0.500165 -3.073071 5.483780
v 0.000000 -2.865426 4.541101
v 0.000000 -3.393393 4.435073
v 0.000000 -3.139894 5.754758
v 0.000000 -3.655827 5.512176
v -0.017768 -1.929166 5.272887
v 0.000000 -2.003641 5.075197
v 0.000000 -1.643232 5.565405
v -0.022034 -1.731776 5.447031
v -0.018258 -1.830471 5.357605
v -0.711537 -1.943338 4.966491
v 0.000000 -2.041507 4.617455
v 0.000000 -1.655579 6.004488
v -0.692028 -1.731379 5.673504
v -0.818476 -1.837358 5.319998
v -0.355769 -1.992422 4.703465
v -0.274171 -2.329976 4.677869
v -0.265321 -2.886272 4.608507
v -0.258686 -3.409487 4.487150
v -0.239124 -3.958102 4.364315
v 0.000000 -4.003574 4.663528
v -0.003081 -3.424705 4.834126
v -0.002296 -2.898430 4.955140
v -0.007894 -2.381771 5.082821
v -0.012041 -1.966404 5.180940
v -0.017384 -1.687504 5.488626
v -0.011352 -2.407952 5.431174
v -0.003977 -3.017418 5.352210
v -0.002921 -3.554847 5.198863
v 0.000000 -4.105700 4.983754
v -0.206475 -4.182493 5.203182
v -0.226660 -3.630983 5.454380
v -0.226442 -3.109632 5.693967
v -0.231730 -2.512717 5.831066
v -0.346014 -1.693479 5.965682
v -0.344322 -4.095672 4.800220
v -0.280788 -4.166647 4.992223
v -0.137273 -4.194796 5.088690
v 0.000000 -4.153671 5.117708
v 0.000000 -3.966637 4.486896
v -0.152847 -4.009341 4.514328
v -0.290052 -4.047064 4.655123
v 0.000000 -3.623614 5.357168
v 0.000000 -3.080592 5.546144
v 0.000000 -2.537271 5.683119
v 0.000000 -1.649405 5.750720
v -0.235129 -1.693945 5.726158
v -0.441846 -1.742891 5.558572
v -0.475139 -1.835685 5.333821
v -0.439762 -1.925024 5.114206
v -0.231173 -1.976690 4.945529
v 0.000000 -2.022574 4.850425
v 0.000000 -2.286392 4.794159
v 0.000000 -2.875926 4.714890
v 0.000000 -3.410904 4.602371
vt 0.369223 0.348384
vt 0.354094 0.349523
vt 0.346305 0.343835
vt 0.364392 0.342802
vt 0.401233 0.342256
vt 0.404590 0.347709
vt 0.427525 0.346726
vt 0.428263 0.341462
vt 0.454498 0.345680
vt 0.462625 0.340107
vt 0.449159 0.214191
vt 0.466978 0.213830
vt 0.433963 0.450009
vt 0.413512 0.455507
vt 0.361300 0.474898
vt 0.335706 0.477465
vt 0.467107 0.263406
vt 0.450757 0.271156
vt 0.425743 0.299841
vt 0.385740 0.466311
vt 0.419649 0.306431
vt 0.397261 0.224983
vt 0.413615 0.224846
vt 0.431167 0.219283
vt 0.379415 0.353942
vt 0.408237 0.353734
vt 0.438717 0.285419
vt 0.448344 0.152494
vt 0.423068 0.353688
vt 0.423188 0.152072
vt 0.433570 0.088195
vt 0.452775 0.088940
vt 0.420298 0.019923
vt 0.365740 0.355186
vt 0.444607 0.352013
vt 0.090291 0.460978
vt 0.056844 0.455779
vt 0.059666 0.439042
vt 0.089458 0.439046
vt 0.185471 0.444055
vt 0.221101 0.446869
vt 0.224593 0.488780
vt 0.183540 0.481692
vt 0.136348 0.470999
vt 0.145643 0.443160
vt 0.139651 0.413224
vt 0.085042 0.411703
vt 0.079324 0.384667
vt 0.124055 0.384787
vt 0.167323 0.385011
vt 0.105023 0.354445
vt 0.148371 0.354562
vt 0.182056 0.413512
vt 0.073879 0.354313
vt 0.054468 0.409660
vt 0.052580 0.383235
vt 0.212831 0.415544
vt 0.192720 0.385895
vt 0.172477 0.357037
vt 0.045485 0.354532
vt 0.020979 0.457187
vt 0.022636 0.444405
vt 0.025004 0.415565
vt 0.019746 0.388060
vt 0.014948 0.359889
vt 0.475408 0.346915
vt 0.485893 0.343632
vt 0.462189 0.352553
vt 0.453098 0.377884
vt 0.451721 0.406902
vt 0.460889 0.431569
vt 0.457939 0.445546
vt 0.308074 0.480592
vt 0.311870 0.451988
vt 0.318384 0.414598
vt 0.338439 0.382880
vt 0.351419 0.356535
vt 0.337863 0.351551
vt 0.325537 0.345738
vt 0.189461 0.357017
vt 0.216762 0.387714
vt 0.240933 0.416598
vt 0.249277 0.448155
vt 0.249066 0.493211
vt 0.481587 0.453207
vt 0.438593 0.463300
vt 0.435252 0.457436
vt 0.468375 0.452152
vt 0.417046 0.462437
vt 0.421536 0.469314
vt 0.390043 0.472099
vt 0.393764 0.477945
vt 0.357778 0.483916
vt 0.360462 0.488558
vt 0.326828 0.486422
vt 0.320217 0.493849
vt 0.293678 0.486898
vt 0.284964 0.491418
vt 0.294183 0.454581
vt 0.279728 0.456893
vt 0.299393 0.416139
vt 0.283775 0.417513
vt 0.319515 0.383375
vt 0.303956 0.383815
vt 0.471593 0.376051
vt 0.486769 0.374417
vt 0.470136 0.404272
vt 0.485240 0.401927
vt 0.477768 0.430824
vt 0.491502 0.430449
vt 0.448089 0.023504
vt 0.400193 0.090571
vt 0.400828 0.155748
vt 0.463998 0.025452
vt 0.467099 0.089203
vt 0.467928 0.151941
vt 0.384297 0.154877
vt 0.389309 0.089625
vt 0.406290 0.021474
vt 0.477051 0.026893
vt 0.489661 0.024978
vt 0.477305 0.087728
vt 0.476360 0.154561
vt 0.482982 0.225798
vt 0.486186 0.255161
vt 0.406674 0.314565
vt 0.371861 0.213980
vt 0.374945 0.146961
vt 0.378488 0.089097
vt 0.393350 0.023037
vn 0.022513 -0.958479 -0.284274
vn 0.125993 -0.963863 -0.234720
vn -0.009495 -0.996963 -0.077295
vn -0.128180 -0.980256 -0.150561
vn -0.115644 -0.951359 -0.285558
vn 0.024048 -0.952603 -0.303264
vn 0.044148 -0.965979 -0.254825
vn -0.068552 -0.950102 -0.304313
vn 0.110143 -0.965934 -0.234180
vn 0.030811 -0.954953 -0.295154
vn 0.999394 0.002295 0.034724
vn 0.996547 -0.010111 0.082414
vn 0.995862 -0.011847 0.090099
vn 0.999365 0.000367 0.035626
vn 0.999549 0.011220 -0.027844
vn 0.993042 0.015202 -0.116777
vn 0.995850 0.017784 -0.089260
vn 0.999629 0.013491 -0.023682
vn 0.999915 0.008732 0.009709
vn 0.999888 0.005442 0.013959
vn 0.999571 -0.000874 0.029283
vn 0.999974 0.006828 0.002353
vn 0.999980 0.006319 0.000707
vn 0.999792 -0.000298 0.020395
vn 0.999865 0.013655 -0.009170
vn 0.999937 0.011004 0.002167
vn 0.999811 0.010736 -0.016191
vn 0.999702 0.011788 -0.021368
vn 0.999857 0.005371 0.016048
vn 0.999152 -0.008235 0.040339
vn 0.997907 -0.010968 0.063725
vn 0.998164 0.018214 -0.057772
vn 0.999193 0.014840 -0.037326
vn 0.999691 0.013599 -0.020789
vn 0.999605 -0.002910 0.027952
vn -0.811754 -0.200587 -0.548471
vn -0.442292 -0.032157 -0.896294
vn -0.449744 0.038027 -0.892348
vn -0.828380 -0.069510 -0.555837
vn -0.781370 -0.191909 0.593827
vn -0.442405 -0.193655 0.875657
vn -0.415364 -0.195449 0.888410
vn -0.773000 -0.244066 0.585578
vn -0.956340 -0.280598 0.081721
vn -0.982254 -0.169278 0.080757
vn -0.997226 -0.044303 0.059807
vn -0.825801 0.089365 -0.556836
vn -0.816867 0.098963 -0.568273
vn -0.998022 -0.062412 0.007527
vn -0.748549 -0.266830 0.607022
vn -0.995504 -0.090994 -0.026314
vn -0.727652 -0.306700 0.613562
vn -0.778398 -0.182940 0.600524
vn -0.813049 0.081712 -0.576432
vn -0.442217 0.146915 -0.884794
vn -0.430251 0.176416 -0.885303
vn -0.443676 -0.277644 0.852095
vn -0.377127 -0.378869 0.845123
vn -0.338363 -0.396454 0.853425
vn -0.431770 0.166769 -0.886433
vn -0.254986 0.040010 -0.966117
vn -0.264385 0.072150 -0.961715
vn -0.252761 0.154481 -0.955117
vn -0.206487 0.201005 -0.957580
vn -0.181545 0.197580 -0.963329
vn 0.765470 -0.623398 -0.159471
vn 0.746187 -0.637196 -0.192838
vn 0.999639 -0.005404 0.026314
vn 0.999098 -0.009783 0.041329
vn 0.997168 -0.014291 0.073842
vn 0.994491 -0.016411 0.103526
vn 0.993113 -0.018401 0.115710
vn 0.987575 0.012832 -0.156622
vn 0.992635 0.017654 -0.119854
vn 0.997116 0.020613 -0.073043
vn 0.998996 0.014759 -0.042295
vn 0.999713 0.010739 -0.021408
vn 0.782401 -0.606675 -0.140691
vn 0.738079 -0.670021 -0.079440
vn -0.239252 -0.419851 0.875491
vn -0.258321 -0.412486 0.873571
vn -0.278501 -0.312149 0.908296
vn -0.222169 -0.184592 0.957375
vn -0.166411 -0.152128 0.974251
vn 0.171391 -0.897829 -0.405622
vn 0.163393 -0.934933 -0.314966
vn 0.255800 -0.888210 -0.381641
vn 0.815938 -0.544291 -0.194919
vn 0.782661 -0.609269 -0.127410
vn 0.188182 -0.967137 -0.170982
vn 0.156356 -0.966966 -0.201319
vn 0.750696 0.656914 -0.070139
vn 0.094620 0.987331 -0.127377
vn 0.129858 0.978664 -0.159228
vn 0.763220 0.640389 -0.086005
vn 0.087682 0.949007 -0.302815
vn 0.056594 0.971343 -0.230846
vn 0.012846 0.908709 -0.417232
vn 0.006395 0.949584 -0.313447
vn -0.086455 0.949505 -0.301606
vn -0.053974 0.975988 -0.211030
vn -0.166295 0.978040 -0.125634
vn -0.103962 0.992649 -0.061966
vn 0.629198 0.775264 -0.055452
vn 0.656382 0.754280 -0.014958
vn 1.000000 0.000000 0.000000
vn 1.000000 0.000000 0.000000
vn 1.000000 0.000000 0.000000
vn 1.000000 0.000000 0.000000
vn 1.000000 0.000000 0.000000
vn 1.000000 0.000000 0.000000
vn 1.000000 0.000000 0.000000
vn 1.000000 0.000000 0.000000
vn 1.000000 0.000000 0.000000
vn 1.000000 0.000000 0.000000
vn 1.000000 0.000000 0.000000
vn 1.000000 0.000000 0.000000
vn 1.000000 0.000000 0.000000
vn 1.000000 0.000000 0.000000
vn 1.000000 0.000000 0.000000
vn 0.597278 0.795804 -0.099773
vn -0.227434 0.955386 -0.188444
vn -0.118227 0.913364 -0.389600
vn 0.019154 0.856329 -0.516075
vn 0.118457 0.920082 -0.373387
vn 0.164808 0.967710 -0.190722
vn 0.774858 0.623963 -0.101321
vn 1.000000 0.000000 0.000000
vn 1.000000 0.000000 0.000000
vn 1.000000 0.000000 0.000000
s 1
usemtl lambert8SG
f 72/1/1 73/2/2 66/3/3 3/4/4
f 72/1/1 3/4/4 6/5/5 71/6/6
f 77/7/7 71/6/6 6/5/5 8/8/8
f 76/9/9 77/7/7 8/8/8 55/10/10
s 2
f 12/11/11 59/12/12 60/17/13 41/18/14
f 44/19/15 61/21/16 62/22/17 13/23/18
f 15/24/19 45/27/20 44/19/15 13/23/18
f 12/11/11 41/18/14 45/27/20 15/24/19
f 16/28/21 12/11/11 15/24/19 17/30/22
f 16/28/21 17/30/22 18/31/23 19/32/24
f 2/33/25 5/111/26 18/31/23 20/112/27
f 18/31/23 17/30/22 21/113/28 20/112/27
f 5/111/26 7/114/29 19/32/24 18/31/23
f 16/28/21 19/32/24 57/115/30 58/116/31
f 16/28/21 58/116/31 59/12/12 12/11/11
f 17/30/22 15/24/19 13/23/18 21/113/28
f 21/113/28 13/23/18 62/22/17 63/117/32
f 21/113/28 63/117/32 64/118/33 20/112/27
f 20/112/27 64/118/33 65/119/34 2/33/25
f 7/114/29 56/120/35 57/115/30 19/32/24
s 3
f 46/36/36 51/37/37 52/38/38 27/39/39
f 28/40/40 69/41/41 70/42/42 49/43/43
f 49/43/43 50/44/44 30/45/45 28/40/40
f 27/39/39 30/45/45 50/44/44 46/36/36
f 32/46/46 30/45/45 27/39/39 31/47/47
f 31/47/47 34/48/48 33/49/49 32/46/46
f 35/50/50 33/49/49 6/51/51 3/52/52
f 35/50/50 36/53/53 32/46/46 33/49/49
f 33/49/49 34/48/48 8/54/54 6/51/51
f 53/55/55 54/56/56 34/48/48 31/47/47
f 27/39/39 52/38/38 53/55/55 31/47/47
f 36/53/53 28/40/40 30/45/45 32/46/46
f 68/57/57 69/41/41 28/40/40 36/53/53
f 35/50/50 67/58/58 68/57/57 36/53/53
f 3/52/52 66/59/59 67/58/58 35/50/50
f 8/54/54 34/48/48 54/56/56 55/60/60
f 51/37/37 47/61/61 26/62/62 52/38/38
f 53/55/55 52/38/38 26/62/62 37/63/63
f 37/63/63 38/64/64 54/56/56 53/55/55
f 55/60/60 54/56/56 38/64/64 10/65/65
s 1
f 75/66/66 76/9/9 55/10/10 10/67/67
s 2
f 57/115/30 56/120/35 9/121/68 23/122/69
f 58/116/31 57/115/30 23/122/69 22/123/70
f 59/12/12 58/116/31 22/123/70 11/124/71
f 60/17/13 59/12/12 11/124/71 42/125/72
f 61/21/16 43/126/73 14/127/74 62/22/17
f 63/117/32 62/22/17 14/127/74 24/128/75
f 64/118/33 63/117/32 24/128/75 25/129/76
f 65/119/34 64/118/33 25/129/76 1/130/77
s 1
f 66/3/3 73/2/2 74/78/78 4/79/79
s 3
f 67/58/58 66/59/59 4/80/80 40/81/81
f 68/57/57 67/58/58 40/81/81 39/82/82
f 39/82/82 29/83/83 69/41/41 68/57/57
f 70/42/42 69/41/41 29/83/83 48/84/84
s 1
f 2/25/85 72/1/1 71/6/6 5/26/86
f 2/25/85 65/34/87 73/2/2 72/1/1
f 74/78/78 73/2/2 65/34/87 1/77/88
f 9/68/89 56/35/90 76/9/9 75/66/66
f 56/35/90 7/29/91 77/7/7 76/9/9
f 7/29/91 5/26/86 71/6/6 77/7/7
f 47/85/92 51/86/93 86/87/94 87/88/95
f 85/89/96 86/87/94 51/86/93 46/90/97
f 84/91/98 85/89/96 46/90/97 50/92/99
f 83/93/100 84/91/98 50/92/99 49/94/101
f 82/95/102 83/93/100 49/94/101 70/96/103
f 81/97/104 82/95/102 70/96/103 48/98/105
f 80/99/106 81/97/104 48/98/105 29/100/107
f 79/101/108 80/99/106 29/100/107 39/102/109
f 78/103/110 79/101/108 39/102/109 40/104/111
f 1/77/88 25/76/112 78/103/110 74/78/78
f 90/105/113 75/66/66 10/67/67 38/106/114
f 89/107/115 90/105/113 38/106/114 37/108/116
f 88/109/117 89/107/115 37/108/116 26/110/118
f 87/88/95 88/109/117 26/110/118 47/85/92
f 25/76/112 24/75/119 79/101/108 78/103/110
f 24/75/119 14/74/120 80/99/106 79/101/108
f 14/74/120 43/73/121 81/97/104 80/99/106
f 43/73/121 61/16/122 82/95/102 81/97/104
f 61/16/122 44/15/123 83/93/100 82/95/102
f 44/15/123 45/20/124 84/91/98 83/93/100
f 45/20/124 41/14/125 85/89/96 84/91/98
f 41/14/125 60/13/126 86/87/94 85/89/96
f 87/88/95 86/87/94 60/13/126 42/72/127
f 42/72/127 11/71/128 88/109/117 87/88/95
f 11/71/128 22/70/129 89/107/115 88/109/117
f 22/70/129 23/69/130 90/105/113 89/107/115
f 23/69/130 9/68/89 75/66/66 90/105/113
f 74/78/78 78/103/110 40/104/111 4/79/79
