# This file uses millimeters as units for non-parametric coordinates.

mtllib urethraSkinL.mtl
v -0.522272 -3.949703 4.237304
v -0.493344 -4.135574 4.203771
v -1.028623 -4.569816 6.235511
v 0.000000 -3.838041 4.045593
v -0.000000 -4.070723 4.032677
v -0.289495 -4.087852 4.079421
v -0.320445 -3.885853 4.116206
v -0.000000 -4.261621 4.512010
v -0.000000 -4.377260 4.686475
v -0.000000 -4.463961 4.811649
v -0.079596 -4.449778 4.803680
v 0.000000 -4.492745 6.096950
v -0.502168 -4.533377 6.130573
v -0.165443 -4.333824 4.490668
v -0.183756 -4.432173 4.678912
v -0.159455 -4.435369 4.788357
v 0.000000 -4.206579 4.321116
v -0.295106 -4.237993 4.407446
v -0.135982 -4.214697 4.311251
v -0.409177 -4.380468 4.803587
v -0.267780 -4.415644 5.016343
v -0.151190 -4.432262 5.068123
v -0.000000 -4.442719 5.090735
v -0.068228 -4.442326 4.676735
v -0.069161 -4.337465 4.462489
v -0.989713 -4.561045 5.643004
v -0.596636 -4.000685 4.949214
v -0.671867 -4.610785 5.729837
v -0.501055 -3.600969 5.308582
v -0.226660 -3.630983 5.454380
v 0.000000 -3.655827 5.512176
v 0.000000 -4.567663 5.703985
v -0.353899 -4.594904 5.724775
v -1.146930 -3.854844 6.267038
v -0.564540 -3.805447 6.135315
v 0.000000 -3.750364 6.071826
v 0.000000 -3.935457 4.330522
v -0.239124 -3.958102 4.364315
v 0.000000 -4.024599 4.759752
v -0.224067 -4.026606 4.780396
v 0.000000 -4.200680 5.243117
v -0.206475 -4.182493 5.203182
v -0.471900 -4.010399 4.573089
v -0.577142 -4.067400 4.796799
v -0.454102 -4.160522 5.096838
v -0.813361 -4.194941 5.172495
v -0.838328 -4.045493 5.441925
v 0.000000 -4.134671 4.521427
v 0.000000 -4.206365 4.723578
v 0.000000 -4.290952 4.926865
vt 0.165077 0.298207
vt 0.146642 0.280019
vt 0.245912 0.122425
vt 0.268751 0.166571
vt 0.119902 0.311805
vt 0.035298 0.325386
vt 0.034434 0.300121
vt 0.101255 0.294502
vt 0.032873 0.256107
vt 0.031812 0.228513
vt 0.069364 0.220544
vt 0.079627 0.252694
vt 0.473469 0.195817
vt 0.475285 0.236403
vt 0.444203 0.234843
vt 0.444001 0.193301
vt 0.053594 0.192748
vt 0.030069 0.193257
vt 0.028156 0.151827
vt 0.066038 0.153069
vt 0.025346 0.094385
vt 0.023243 0.044992
vt 0.120408 0.035134
vt 0.094586 0.092961
vt 0.446889 0.170057
vt 0.472469 0.170442
vt 0.117661 0.261268
vt 0.097444 0.250670
vt 0.091277 0.211542
vt 0.149233 0.186438
vt 0.421987 0.231166
vt 0.410914 0.186676
vt 0.249724 0.021113
vt 0.158727 0.091003
vt 0.427953 0.168914
vt 0.071616 0.190667
vt 0.100583 0.157168
vt 0.033418 0.271533
vt 0.084713 0.273066
vt 0.478958 0.301315
vt 0.392916 0.290514
vt 0.346503 0.278886
vt 0.470057 0.096648
vt 0.471280 0.138976
vt 0.437233 0.139429
vt 0.421080 0.096451
vt 0.404159 0.139850
vt 0.371931 0.095285
vt 0.377792 0.040717
vt 0.469473 0.041154
vt 0.364092 0.168029
vt 0.332765 0.140055
vt 0.154351 0.358873
vt 0.177148 0.368006
vt 0.191890 0.404925
vt 0.171799 0.401655
vt 0.125568 0.347525
vt 0.141566 0.358281
vt 0.149496 0.378523
vt 0.135071 0.375800
vt 0.101866 0.354260
vt 0.113843 0.339224
vt 0.119742 0.371108
vt 0.110540 0.398495
vt 0.110974 0.442761
vt 0.077904 0.451472
vt 0.050326 0.388673
vt 0.064219 0.360467
vt 0.145337 0.405735
vn -0.533419 0.797235 -0.282631
vn -0.558231 -0.558117 -0.613909
vn -0.752958 -0.568646 -0.331205
vn -0.918446 0.284531 -0.274770
vn -0.334958 0.804594 -0.490338
vn -0.204928 0.826247 -0.524710
vn -0.112152 -0.482365 -0.868761
vn -0.243842 -0.502271 -0.829618
vn 0.605001 -0.680605 -0.413220
vn 0.559700 -0.758209 -0.334448
vn 0.231218 -0.921098 -0.313236
vn 0.234999 -0.831429 -0.503489
vn -0.005421 0.964323 0.264674
vn -0.046123 0.967645 0.248066
vn -0.064260 0.971384 0.228657
vn -0.044537 0.963871 0.262620
vn -0.014025 -0.997246 -0.072825
vn 0.120032 -0.983432 -0.135846
vn -0.040534 -0.995896 -0.080917
vn -0.054918 -0.993681 -0.097889
vn 0.062536 -0.997910 -0.016292
vn 0.116422 -0.627422 0.769927
vn 0.153134 -0.635793 0.756517
vn 0.058251 -0.997843 -0.030279
vn 0.210100 0.913608 -0.348106
vn 0.174860 0.916846 -0.358912
vn -0.219889 -0.869071 -0.443130
vn -0.243775 -0.840123 -0.484527
vn -0.218878 -0.946448 -0.237337
vn -0.208524 -0.942187 -0.262301
vn 0.192049 0.954425 0.228451
vn 0.417796 0.903980 0.090922
vn -0.300231 -0.773257 0.558511
vn -0.220256 -0.968938 -0.112459
vn 0.532585 0.739264 -0.412119
vn -0.166294 -0.986032 -0.009338
vn -0.093800 -0.988185 -0.121210
vn 0.236855 -0.845046 -0.479372
vn 0.044601 -0.867351 -0.495694
vn 0.034081 0.638925 0.768513
vn 0.129884 0.893437 -0.430001
vn 0.198822 0.890663 -0.408888
vn 0.075500 0.630128 0.772812
vn 0.173229 0.826685 -0.535335
vn -0.896492 0.411508 0.164206
vn 0.001288 0.945823 -0.324680
vn -0.846544 0.443956 -0.293711
vn 1.000000 -0.000000 0.000000
vn 1.000000 -0.000000 0.000000
vn 1.000000 -0.000000 0.000000
vn 1.000000 -0.000000 0.000000
vn 1.000000 -0.000000 -0.000000
vn 1.000000 -0.000000 -0.000000
vn 1.000000 -0.000000 -0.000000
vn 1.000000 -0.000000 -0.000000
vn 1.000000 -0.000000 0.000000
vn 1.000000 -0.000000 0.000000
vn 1.000000 -0.000000 0.000000
vn 1.000000 -0.000000 0.000000
vn 1.000000 0.000000 0.000000
vn 1.000000 0.000000 0.000000
vn 1.000000 0.000000 0.000000
vn 1.000000 0.000000 0.000000
vn 1.000000 0.000000 0.000000
vn 1.000000 0.000000 0.000000
vn 1.000000 0.000000 0.000000
vn 1.000000 0.000000 0.000000
vn 1.000000 -0.000000 0.000000
vn 1.000000 -0.000000 0.000000
vn 1.000000 -0.000000 0.000000
vn 1.000000 -0.000000 0.000000
vn 1.000000 -0.000000 -0.000000
vn 1.000000 -0.000000 -0.000000
vn 1.000000 -0.000000 -0.000000
vn 1.000000 -0.000000 -0.000000
vn 1.000000 -0.000000 -0.000000
vn 1.000000 -0.000000 -0.000000
vn 1.000000 -0.000000 -0.000000
vn 1.000000 -0.000000 -0.000000
vn 1.000000 -0.000000 0.000000
vn 1.000000 -0.000000 0.000000
vn 1.000000 -0.000000 0.000000
vn 1.000000 -0.000000 0.000000
s 1
usemtl lambert9SG
f 1/1/1 2/2/2 26/3/3 46/4/4
f 7/5/5 4/6/6 5/7/7 6/8/8
f 8/9/9 9/10/10 24/11/11 25/12/12
f 39/13/13 37/14/14 38/15/15 40/16/16
f 11/17/17 10/18/18 23/19/19 22/20/20
f 32/21/21 12/22/22 13/23/23 33/24/24
f 42/25/25 41/26/26 39/13/13 40/16/16
f 1/1/1 7/5/5 6/8/8 2/2/2
f 18/27/27 14/28/28 15/29/29 20/30/30
f 38/15/15 43/31/31 44/32/32 40/16/16
f 13/23/23 3/33/33 28/34/34 33/24/24
f 45/35/35 42/25/25 40/16/16 44/32/32
f 20/30/30 15/29/29 16/36/36 21/37/37
f 17/38/38 8/9/9 25/12/12 19/39/39
f 18/27/27 19/39/39 25/12/12 14/28/28
f 11/17/17 22/20/20 21/37/37 16/36/36
f 14/28/28 25/12/12 24/11/11 15/29/29
f 16/36/36 15/29/29 24/11/11 11/17/17
f 9/10/10 10/18/18 11/17/17 24/11/11
f 37/14/14 4/40/6 7/41/5 38/15/15
f 7/41/5 1/42/1 43/31/31 38/15/15
f 26/3/3 2/2/2 18/27/27 20/30/30
f 19/39/39 6/8/8 5/7/7 17/38/38
f 36/43/40 31/44/41 30/45/42 35/46/43
f 18/27/27 2/2/2 6/8/8 19/39/39
f 35/46/43 30/45/42 29/47/44 34/48/45
f 28/34/34 26/3/3 20/30/30 21/37/37
f 21/37/37 22/20/20 33/24/24 28/34/34
f 22/20/20 23/19/19 32/21/21 33/24/24
f 3/33/33 13/49/23 35/46/43 34/48/45
f 13/49/23 12/50/22 36/43/40 35/46/43
f 31/44/41 41/26/26 42/25/25 30/45/42
f 42/25/25 45/35/35 29/47/44 30/45/42
f 29/47/44 45/35/35 44/32/32 27/51/46
f 34/48/45 29/47/44 27/51/46 47/52/47
f 1/42/1 27/51/46 44/32/32 43/31/31
f 27/51/46 1/42/1 46/4/4 47/52/47
f 46/4/4 26/3/3 34/48/45 47/52/47
f 34/48/45 26/3/3 28/34/34 3/33/33
s off
f 17/53/48 5/54/49 4/55/50 37/56/51
f 9/57/52 8/58/53 48/59/54 49/60/55
f 23/61/56 10/62/57 50/63/58 41/64/59
f 41/64/60 31/65/61 36/66/62 12/67/63
f 12/67/64 32/68/65 23/61/66 41/64/67
f 50/63/68 10/62/69 9/57/70 49/60/71
f 37/56/72 48/59/73 8/58/74 17/53/75
f 49/60/76 48/59/77 37/56/78 39/69/79
f 41/64/80 50/63/81 49/60/82 39/69/83
