# This file uses millimeters as units for non-parametric coordinates.

v -0.000000 -3.875119 2.869971
v -0.000000 -4.014569 3.183210
v -0.000000 -4.206996 3.420538
v -0.000000 -4.321398 3.549524
v -0.000000 -4.237803 3.657435
v -0.000000 -4.056687 3.597553
v -0.000000 -3.720079 3.273380
v -0.000000 -3.662184 2.827087
v -0.000000 -3.767645 2.423964
v -0.000000 -3.710967 2.427733
v 1.014191 -3.446110 4.233497
v 0.946105 -3.289438 4.400234
v 1.104696 -3.225220 4.233776
v 1.590137 -3.773065 4.997723
v 1.498610 -3.603655 5.138813
v 1.704084 -3.564914 5.023650
v 2.095582 -4.232146 6.166658
v 2.004055 -4.062736 6.307748
v 2.209529 -4.023994 6.192584
v 2.649518 -4.404452 7.195338
v 2.630124 -4.353462 7.253264
v 2.676386 -4.329589 7.193086
v 2.835492 -4.388726 7.396638
v 2.852956 -4.340065 7.395174
v 2.822886 -4.355582 7.434289
v 0.253164 -3.799344 2.932216
v 0.113606 -3.848639 2.931016
v 0.125796 -3.699790 2.887100
v 0.274704 -3.642537 2.869928
v 0.177558 -4.190055 3.432800
v 0.198696 -4.121298 3.528466
v 0.108441 -4.267943 3.535717
v 0.107874 -4.230458 3.597394
v 0.135988 -3.984723 3.203253
v 0.158217 -3.842008 3.239051
v 0.107893 -3.749919 2.479664
v 0.100352 -3.700130 2.470101
v 0.427371 -3.732314 3.584885
v 0.288190 -3.609465 3.687999
v 0.448382 -3.512637 3.512698
vt 0.719166 0.331728
vt 0.717878 0.245721
vt 0.696307 0.241886
vt 0.688565 0.326488
vt 0.728877 0.243791
vt 0.733669 0.327532
vt 0.721596 0.139045
vt 0.697883 0.136494
vt 0.732402 0.136496
vt 0.720994 0.038792
vt 0.697420 0.038089
vt 0.732457 0.038361
vt 0.731196 0.008902
vt 0.696107 0.009195
vt 0.719507 0.009340
vt 0.737100 0.393580
vt 0.713453 0.385334
vt 0.694321 0.390671
vt 0.647165 0.426675
vt 0.662787 0.369796
vt 0.662605 0.370236
vt 0.655785 0.415146
vt 0.661453 0.317429
vt 0.644378 0.303425
vt 0.644384 0.311281
vt 0.657312 0.329232
vt 0.623672 0.372003
vt 0.623357 0.423129
vt 0.623859 0.330313
vt 0.623955 0.307320
vt 0.624142 0.294190
vt 0.624174 0.309223
vt 0.623948 0.363065
vt 0.623429 0.431439
vt 0.648411 0.488411
vt 0.717940 0.460083
vt 0.622892 0.494194
vt 0.622854 0.492822
vt 0.650307 0.485309
vt 0.695682 0.450894
vt 0.954345 0.158650
vt 0.966523 0.153183
vt 0.974433 0.129506
vt 0.953607 0.140021
vt 0.975741 0.076926
vt 0.951083 0.107867
vt 0.951399 0.052147
vt 0.940368 0.078875
vt 0.923131 0.041784
vt 0.919240 0.048287
vn 0.226979 -0.957974 -0.175402
vn -0.030928 -0.930520 -0.364933
vn -0.746118 0.339370 0.572832
vn -0.724934 0.226355 0.650565
vn 0.772920 0.600316 -0.205465
vn 0.575911 0.679081 -0.455167
vn 0.021352 -0.960748 -0.276600
vn -0.766865 0.349600 0.538236
vn 0.798079 0.581884 -0.156463
vn 0.156421 -0.972937 -0.170078
vn -0.707651 0.272229 0.652014
vn 0.676312 0.667037 -0.312512
vn 0.954824 0.288589 0.070902
vn 0.115546 -0.046155 0.992229
vn 0.620982 -0.754186 0.213504
vn 0.472029 0.749151 -0.464717
vn 0.506700 -0.862037 0.012157
vn -0.913300 0.079888 0.399376
vn -0.052949 0.997553 0.045659
vn 0.904898 0.403421 0.135689
vn 0.734661 -0.530744 -0.422593
vn 0.212151 -0.966530 -0.144266
vn 0.873710 0.101572 0.475725
vn 0.651023 -0.393435 0.649136
vn 0.570322 -0.818483 0.069421
vn 0.667765 -0.642245 -0.376312
vn 0.254516 -0.804915 -0.536035
vn 0.314371 -0.895187 -0.315929
vn 0.183511 -0.762535 -0.620375
vn 0.355394 -0.934059 -0.035057
vn 0.476710 -0.289318 0.830086
vn 0.471265 0.454901 0.755628
vn 0.497197 0.765694 0.408055
vn 0.313565 0.947112 0.068242
vn 0.467890 0.707053 -0.530240
vn 0.561574 0.768493 -0.306681
vn 0.386642 0.652421 -0.651809
vn 0.444157 -0.579275 -0.683494
vn 0.598460 -0.621650 -0.505368
vn 0.662320 -0.729256 -0.171807
vn -1.000000 0.000000 0.000000
vn -1.000000 0.000000 0.000000
vn -1.000000 0.000000 -0.000000
vn -1.000000 0.000000 -0.000000
vn -1.000000 0.000000 -0.000000
vn -1.000000 0.000000 -0.000000
vn -1.000000 0.000000 -0.000000
vn -1.000000 0.000000 -0.000000
vn -1.000000 0.000000 -0.000000
vn -1.000000 0.000000 -0.000000
s 1
f 11/1/1 14/2/2 15/3/3 12/4/4
f 15/3/3 16/5/5 13/6/6 12/4/4
f 13/6/6 16/5/5 14/2/2 11/1/1
f 14/2/2 17/7/7 18/8/8 15/3/3
f 18/8/8 19/9/9 16/5/5 15/3/3
f 16/5/5 19/9/9 17/7/7 14/2/2
f 17/7/7 20/10/10 21/11/11 18/8/8
f 21/11/11 22/12/12 19/9/9 18/8/8
f 19/9/9 22/12/12 20/10/10 17/7/7
f 24/13/13 25/14/14 23/15/15
f 23/15/15 20/10/10 22/12/12 24/13/13
f 24/13/13 22/12/12 21/11/11 25/14/14
f 23/15/15 25/14/14 21/11/11 20/10/10
f 40/16/16 13/6/6 11/1/1 38/17/17
f 12/4/4 39/18/18 38/17/17 11/1/1
f 39/18/18 12/4/4 13/6/6 40/16/16
f 28/19/19 35/20/20 34/21/21 27/22/22
f 31/23/23 33/24/24 32/25/25 30/26/26
f 31/23/23 30/26/26 34/21/21 35/20/20
f 27/22/22 34/21/21 2/27/27 1/28/28
f 3/29/29 30/26/26 32/25/25 4/30/30
f 4/30/30 32/25/25 33/24/24 5/31/31
f 5/31/31 33/24/24 31/23/23 6/32/32
f 31/23/23 35/20/20 7/33/33 6/32/32
f 30/26/26 3/29/29 2/27/27 34/21/21
f 28/19/19 8/34/34 7/33/33 35/20/20
f 37/35/35 28/19/19 29/36/36
f 28/19/19 37/35/35 10/37/37 8/34/34
f 9/38/38 10/37/37 37/35/35 36/39/39
f 9/38/38 36/39/39 27/22/22 1/28/28
f 29/36/36 26/40/40 36/39/39 37/35/35
f 39/18/18 27/22/22 26/40/40 38/17/17
f 28/19/19 39/18/18 40/16/16 29/36/36
f 38/17/17 26/40/40 29/36/36 40/16/16
f 36/39/39 26/40/40 27/22/22
f 39/18/18 28/19/19 27/22/22
s 2
f 4/41/41 5/42/42 6/43/43 3/44/44
f 3/44/44 6/43/43 7/45/45 2/46/46
f 2/46/46 7/45/45 8/47/47 1/48/48
f 1/48/48 8/47/47 10/49/49 9/50/50
