# This file uses millimeters as units for non-parametric coordinates.

v -6.058205 -4.539839 8.893007
v -5.486160 -3.907904 8.885550
v -4.773058 -4.851942 8.330703
v -4.508687 -4.141724 8.324794
v 0.000000 -3.976048 9.331385
v -0.850099 -3.867278 9.108754
v -0.000000 -3.949144 9.489897
v -0.926756 -4.072762 9.499051
v -1.963674 -3.633940 8.777221
v -3.028455 -3.671785 8.448140
v -4.117771 -3.939634 8.376404
v -0.884938 -4.299468 9.039013
v -0.000000 -4.151755 9.299371
v -2.048790 -4.165379 8.936575
v -3.163194 -4.302917 8.677594
v -4.276308 -4.500486 8.441165
v -4.530203 -3.851145 8.949706
v -3.154098 -3.776396 9.196174
v -2.026334 -3.801867 9.395867
v -0.868443 -4.275368 9.324127
v -0.000000 -4.158825 9.442700
v -4.643988 -4.502262 8.878538
v -3.242691 -4.188738 9.027596
v -2.083654 -4.098240 9.188882
vt 0.964552 0.357177
vt 0.964552 0.493897
vt 0.964552 0.646495
vt 0.964552 0.493897
vt 0.355579 0.493897
vt 0.073737 0.493897
vt 0.073737 0.646495
vt 0.355579 0.646495
vt 0.538801 0.493897
vt 0.538801 0.646495
vt 0.900440 0.493897
vt 0.900440 0.646495
vt 0.538801 0.357177
vt 0.900440 0.357177
vt 0.355579 0.357177
vt 0.073737 0.357177
vt 0.538801 0.493897
vt 0.900440 0.493897
vt 0.355579 0.493897
vt 0.073737 0.493897
vt 0.027354 0.493897
vt 0.028344 0.646495
vt 0.027354 0.493897
vt 0.022451 0.357177
vn -0.431426 0.866671 -0.250506
vn -0.104962 0.397240 -0.911693
vn 0.014444 -0.491830 -0.870571
vn -0.276885 -0.701660 0.656512
vn 0.259903 0.710162 -0.654309
vn 0.223717 0.811318 -0.540105
vn 0.162745 -0.733607 -0.659799
vn 0.119880 -0.853903 -0.506438
vn 0.127599 0.616279 -0.777122
vn 0.225268 -0.865667 -0.447073
vn 0.066134 0.527003 -0.847286
vn 0.289507 -0.848966 -0.442088
vn -0.172480 0.543672 0.821384
vn -0.175525 0.726200 0.664699
vn -0.098270 0.361284 0.927263
vn -0.037027 0.326977 0.944307
vn -0.010560 -0.731381 0.681888
vn 0.052153 -0.602186 0.796650
vn -0.115799 -0.808337 0.577219
vn -0.052786 -0.852181 0.520578
vn 0.555156 -0.705175 0.441056
vn 0.747152 -0.449450 -0.489652
vn 0.690756 0.621865 -0.368972
vn 0.602844 0.298907 0.739752
s 1
f 2/1/1 4/2/2 3/3/3 1/4/4
f 9/5/5 6/6/6 12/7/7 14/8/8
f 10/9/9 9/5/5 14/8/8 15/10/10
f 11/11/11 10/9/9 15/10/10 16/12/12
f 4/2/2 11/11/11 16/12/12 3/3/3
f 18/13/13 10/9/9 11/11/11 17/14/14
f 19/15/15 9/5/5 10/9/9 18/13/13
f 8/16/16 6/6/6 9/5/5 19/15/15
f 2/1/1 17/14/14 11/11/11 4/2/2
f 23/17/17 18/13/13 17/14/14 22/18/18
f 24/19/19 19/15/15 18/13/13 23/17/17
f 20/20/20 8/16/16 19/15/15 24/19/19
f 14/8/8 12/7/7 20/20/20 24/19/19
f 15/10/10 14/8/8 24/19/19 23/17/17
f 1/4/4 22/18/18 17/14/14 2/1/1
f 16/12/12 15/10/10 23/17/17 22/18/18
f 3/3/3 16/12/12 22/18/18 1/4/4
f 21/21/21 13/22/22 5/23/23 7/24/24
f 8/16/16 7/24/24 5/23/23 6/6/6
f 20/20/20 21/21/21 7/24/24 8/16/16
f 12/7/7 13/22/22 21/21/21 20/20/20
f 6/6/6 5/23/23 13/22/22 12/7/7
