# This file uses millimeters as units for non-parametric coordinates.

v -4.508687 -4.304677 8.324792
v -3.408918 -3.992074 7.305292
v -2.352944 -3.217060 5.693788
v -2.228293 -3.713362 5.549742
v -3.384823 -4.470886 7.202703
v -1.529806 -3.306972 4.499605
v -0.662046 -3.311955 3.274190
v -1.007272 -2.448494 4.716151
v -0.463699 -2.441354 4.160901
v -0.000000 -3.511874 3.171724
v -0.000000 -2.489347 3.893901
v -0.525051 -2.906571 4.798015
v -0.632398 -2.984837 5.190323
v -0.628147 -3.509947 5.009008
v -0.510212 -3.425159 4.689245
v -0.501055 -3.600969 5.308582
v -0.500165 -3.073071 5.483780
v 0.000000 -2.865426 4.541101
v 0.000000 -3.393393 4.435073
v 0.000000 -3.139894 5.754758
v 0.000000 -3.655827 5.512176
v -0.265321 -2.886272 4.608507
v -0.258686 -3.409487 4.487150
v -0.226660 -3.630983 5.454380
v -1.571763 -4.020614 7.032195
v -1.146930 -3.854844 6.267038
v -1.633631 -3.207408 7.202641
v -1.157173 -3.100347 6.483805
v -1.214450 -4.137393 7.892617
v -1.174906 -3.485516 8.275455
v 0.000000 -4.175391 8.248997
v 0.000000 -3.689164 8.484885
v 0.000000 -3.026584 6.236096
v 0.000000 -3.750364 6.071826
v -0.564540 -3.805447 6.135315
v -0.569940 -3.065472 6.327262
v -1.463256 -3.151682 6.806471
v -1.428259 -3.934330 6.611915
v -1.431604 -3.288133 7.711836
v -1.431084 -4.081748 7.527349
v -0.586236 -4.157576 8.179464
v -0.498297 -3.602793 8.396062
v 0.000000 -3.935348 9.509044
v 0.000000 -3.606046 9.412237
v -1.672005 -2.828149 5.199083
v -1.874844 -3.507720 5.018351
v -1.606675 -3.376965 8.768441
v -4.376054 -3.614990 7.994328
v -0.226442 -3.109632 5.693967
v -1.678533 -3.842366 8.945951
v -0.672745 -3.588045 9.029499
v -0.700686 -3.973984 9.160568
vt 0.726659 0.370824
vt 0.726659 0.370824
vt 0.940764 0.044943
vt 0.940764 0.044943
vt 0.506228 0.641814
vt 0.506228 0.641814
vt 0.373525 0.812390
vt 0.373525 0.812390
vt 0.439077 0.728129
vt 0.439077 0.728129
vt 0.182663 0.924128
vt 0.182663 0.924128
vt 0.048571 0.960872
vt 0.048571 0.960872
vt 0.172786 0.774949
vt 0.194485 0.723464
vt 0.194485 0.723464
vt 0.172786 0.774949
vt 0.168226 0.673798
vt 0.168226 0.673799
vt 0.124452 0.805734
vt 0.124452 0.805734
vt 0.110842 0.623679
vt 0.110842 0.623679
vt 0.048571 0.813006
vt 0.048571 0.813006
vt 0.048571 0.612346
vt 0.048571 0.612346
vt 0.370442 0.399278
vt 0.370442 0.399278
vt 0.344255 0.466412
vt 0.344255 0.466412
vt 0.281916 0.247167
vt 0.281916 0.247167
vt 0.340392 0.319627
vt 0.340392 0.319627
vt 0.171369 0.211624
vt 0.171369 0.211624
vt 0.176906 0.539856
vt 0.048571 0.548341
vt 0.048571 0.548341
vt 0.176906 0.539856
vt 0.290640 0.520908
vt 0.290640 0.520908
vt 0.048571 0.197462
vt 0.048571 0.197462
vt 0.048571 0.044943
vt 0.048571 0.044943
vt 0.380725 0.044943
vt 0.380725 0.044943
vt 0.187225 0.044943
vt 0.187225 0.044943
vn -0.850354 -0.095620 -0.517450
vn -0.827375 0.361736 -0.429648
vn -0.824060 0.006005 -0.566471
vn -0.773052 -0.453403 -0.443640
vn -0.827375 0.361736 -0.429648
vn -0.850354 -0.095620 -0.517450
vn -0.795783 -0.179719 -0.578300
vn -0.848214 0.300328 -0.436275
vn -0.788076 0.364528 -0.496040
vn -0.691221 0.701810 -0.172270
vn -0.742492 0.472753 -0.474563
vn -0.742492 0.472753 -0.474563
vn -0.784017 0.609114 -0.119570
vn -0.460980 0.850796 -0.252277
vn -0.788076 0.364528 -0.496040
vn -0.911234 0.298069 -0.284267
vn 0.000000 0.605596 -0.795772
vn 0.000000 0.917583 -0.397543
vn 0.737671 0.550480 -0.390913
vn 0.676832 0.419474 -0.604930
vn 0.820443 -0.116518 0.559730
vn 0.998580 0.034020 -0.040986
vn 0.998580 0.034020 -0.040986
vn 0.820443 -0.116518 0.559730
vn 0.767463 0.227359 -0.599423
vn 0.767463 0.227359 -0.599423
vn 0.428712 -0.185920 0.884104
vn 0.428712 -0.185920 0.884104
vn 0.415403 0.360464 -0.835169
vn 0.415403 0.360464 -0.835169
vn 0.231292 -0.204297 0.951192
vn 0.231292 -0.204297 0.951192
vn 0.277284 0.404947 -0.871282
vn 0.277284 0.404947 -0.871282
vn 0.998777 0.042630 0.025040
vn 0.998777 0.042630 0.025040
vn 0.859279 -0.087699 0.503934
vn 0.859279 -0.087699 0.503934
vn 0.656054 0.291167 -0.696286
vn 0.656054 0.291167 -0.696286
vn 0.923223 0.122712 -0.364143
vn 0.923223 0.122712 -0.364143
vn 0.241061 0.389590 -0.888881
vn 0.241061 0.389590 -0.888881
vn 0.199744 -0.243495 0.949111
vn 0.150290 -0.233249 0.960733
vn 0.150290 -0.233249 0.960733
vn 0.199744 -0.243495 0.949111
vn 0.526785 -0.210238 0.823588
vn 0.526785 -0.210238 0.823588
vn 0.169309 0.380812 -0.909020
vn 0.169309 0.380812 -0.909020
vn 1.000000 0.000000 0.000000
vn 1.000000 0.000000 0.000000
vn 1.000000 0.000000 0.000000
vn 1.000000 0.000000 0.000000
vn 1.000000 0.000000 -0.000000
vn 1.000000 0.000000 -0.000000
vn 1.000000 0.000000 -0.000000
vn 1.000000 0.000000 -0.000000
vn 1.000000 0.000000 0.000000
vn 1.000000 0.000000 0.000000
vn 1.000000 0.000000 0.000000
vn 1.000000 0.000000 0.000000
vn -0.268558 0.427217 0.863344
vn -0.268558 0.427217 0.863344
vn -0.268558 0.427217 0.863344
vn -0.268558 0.427217 0.863344
vn -0.748070 0.222432 -0.625232
vn -0.748070 0.222432 -0.625232
vn -0.848214 0.300328 -0.436275
vn -0.795783 -0.179719 -0.578300
vn 0.175713 -0.982832 -0.056271
vn 0.175713 -0.982832 -0.056271
vn 0.116035 -0.954744 -0.273861
vn 0.116035 -0.954744 -0.273861
vn 0.119924 -0.977854 0.171520
vn 0.119924 -0.977854 0.171520
vn -0.148932 0.976672 -0.154697
vn -0.148932 0.976672 -0.154697
vn 0.077028 0.996289 0.038416
vn 0.077028 0.996289 0.038416
vn -0.043684 -0.982066 0.183406
vn -0.043684 -0.982066 0.183406
vn -0.096887 -0.977971 0.184893
vn -0.096887 -0.977971 0.184893
vn 0.154403 0.987692 -0.024973
vn 0.154403 0.987692 -0.024973
vn 0.108664 0.992815 -0.050107
vn 0.108664 0.992815 -0.050107
vn 0.030917 -0.974938 -0.220318
vn 0.030917 -0.974938 -0.220318
vn 0.035946 -0.978640 -0.202413
vn 0.035946 -0.978640 -0.202413
vn -0.016237 0.989332 -0.144772
vn -0.016237 0.989332 -0.144772
vn -0.006881 0.997010 -0.076969
vn -0.006881 0.997010 -0.076969
vn -0.241381 0.894856 -0.375456
vn -0.241381 0.894856 -0.375456
vn -0.038535 -0.982311 0.183250
vn -0.038535 -0.982311 0.183250
vn -0.453586 0.286580 0.843879
vn -0.453586 0.286580 0.843879
vn -0.453586 0.286580 0.843879
vn -0.453586 0.286580 0.843879
vn -0.165786 0.353173 0.920752
vn -0.165786 0.353173 0.920752
vn -0.165786 0.353173 0.920752
vn -0.165786 0.353173 0.920752
vn 0.278720 0.791895 0.543339
vn 0.278720 0.791895 0.543339
vn 0.278720 0.791895 0.543339
vn 0.278720 0.791895 0.543339
vn -0.189314 -0.981136 0.039137
vn -0.189314 -0.981136 0.039137
vn -0.189314 -0.981136 0.039137
vn -0.189314 -0.981136 0.039137
vn -0.023508 -0.942327 -0.333868
vn -0.052689 -0.977491 -0.204291
vn -0.052689 -0.977491 -0.204291
vn -0.023508 -0.942327 -0.333868
vn -0.080877 -0.994202 -0.070858
vn -0.080877 -0.994202 -0.070858
vn 0.377928 0.715282 0.587828
vn 0.377928 0.715282 0.587828
vn 0.483034 0.684342 0.546218
vn 0.483034 0.684342 0.546218
vn 0.055148 -0.960546 -0.272600
vn 0.055148 -0.960546 -0.272600
vn -0.355533 0.920233 0.163606
vn -0.355533 0.920233 0.163606
vn -0.355533 0.920233 0.163606
vn -0.355533 0.920233 0.163606
vn 0.267630 0.736397 0.621364
vn 0.267630 0.736397 0.621364
vn 0.002507 0.999958 -0.008801
vn 0.002507 0.999958 -0.008801
vn -0.238503 0.945591 0.221301
vn -0.238503 0.945591 0.221301
vn -0.238503 0.945591 0.221301
vn -0.238503 0.945591 0.221301
vn 0.166064 0.973960 0.154351
vn 0.166064 0.973960 0.154351
vn 0.166064 0.973960 0.154351
vn 0.166064 0.973960 0.154351
vn 0.025877 -0.970885 -0.238144
vn 0.025877 -0.970885 -0.238144
vn -0.008825 -0.963441 -0.267774
vn -0.008825 -0.963441 -0.267774
vn -0.008825 -0.963441 -0.267774
vn -0.008825 -0.963441 -0.267774
s off
f 2/1/1 5/2/2 1/3/3 48/4/4
f 5/2/5 2/1/6 3/5/7 4/6/8
f 8/7/9 6/8/10 46/9/11 45/10/12
f 7/11/13 6/8/14 8/7/15 9/12/16
f 11/13/17 10/14/18 7/11/19 9/12/20
s 6
f 12/15/21 13/16/22 14/17/23 15/18/24
f 16/19/25 14/17/23 13/16/22 17/20/26
f 22/21/27 12/15/21 15/18/24 23/22/28
f 16/19/25 17/20/26 49/23/29 24/24/30
f 18/25/31 22/21/27 23/22/28 19/26/32
f 49/23/29 20/27/33 21/28/34 24/24/30
s 7
f 27/29/35 25/30/36 38/31/37 37/32/38
f 30/33/39 29/34/40 40/35/41 39/36/42
f 42/37/43 41/38/44 29/34/40 30/33/39
f 35/39/45 34/40/46 33/41/47 36/42/48
f 26/43/49 35/39/45 36/42/48 28/44/50
f 37/32/38 38/31/37 26/43/49 28/44/50
f 40/35/41 25/30/36 27/29/35 39/36/42
f 32/45/51 31/46/52 41/38/44 42/37/43
s off
f 34/40/53 21/28/54 20/27/55 33/41/56
f 19/26/57 10/14/58 11/13/59 18/25/60
f 32/45/61 44/47/62 43/48/63 31/46/64
f 47/49/65 48/4/66 1/3/67 50/50/68
f 45/10/69 46/9/70 4/6/71 3/5/72
s 13
f 25/30/73 5/2/74 4/6/75 38/31/76
f 40/35/77 1/3/78 5/2/74 25/30/73
s 14
f 39/36/79 48/4/80 47/49/81 30/33/82
s 13
f 31/46/83 43/48/84 52/51/85 41/38/86
s 14
f 42/37/87 51/52/88 44/47/89 32/45/90
s 15
f 35/39/91 24/24/92 21/28/93 34/40/94
s 16
f 33/41/95 20/27/96 49/23/97 36/42/98
s 14
f 27/29/99 2/1/100 48/4/80 39/36/79
s 13
f 29/34/101 50/50/102 1/3/78 40/35/77
f 41/38/86 52/51/85 50/50/102 29/34/101
s 14
f 30/33/82 47/49/81 51/52/88 42/37/87
s off
f 44/47/103 51/52/104 52/51/105 43/48/106
f 51/52/107 47/49/108 50/50/109 52/51/110
f 18/25/111 11/13/112 9/12/113 22/21/114
f 23/22/115 7/11/116 10/14/117 19/26/118
s 21
f 46/9/119 6/8/120 15/18/121 14/17/122
f 23/22/123 15/18/121 6/8/120 7/11/124
s 22
f 8/7/125 12/15/126 22/21/127 9/12/128
s 13
f 26/43/129 38/31/76 4/6/75 46/9/130
s off
f 37/32/131 3/5/132 2/1/133 27/29/134
s 22
f 13/16/135 12/15/126 8/7/125 45/10/136
s 16
f 17/20/137 28/44/138 36/42/98 49/23/97
s off
f 45/10/139 3/5/140 37/32/141 28/44/142
f 17/20/143 13/16/144 45/10/145 28/44/146
s 15
f 16/19/147 24/24/92 35/39/91 26/43/148
s off
f 16/19/149 26/43/150 46/9/151 14/17/152
