# This file uses millimeters as units for non-parametric coordinates.

v -1.630375 -4.897001 7.282047
v -1.623769 -4.922150 7.558418
v -1.460256 -4.459620 7.448201
v -1.451770 -4.629551 7.709218
v -2.053381 -4.280109 7.722930
v -1.989915 -4.482323 8.001804
v -2.232826 -4.616730 7.598512
v -2.131718 -4.719868 7.899708
v -1.641576 -4.915791 7.788940
v -1.549128 -4.768957 7.901738
v -1.845056 -4.675924 8.065313
v -1.970069 -4.806963 8.005871
v -1.668662 -4.881266 6.897568
v -1.511194 -4.475859 7.021107
v -2.004478 -4.208092 7.207084
v -2.160963 -4.538843 7.149528
v -1.438738 -4.705206 6.309755
v -1.306685 -4.288486 6.417799
v -1.730307 -4.018326 6.436584
v -1.814488 -4.343035 6.374187
v -1.096830 -4.395397 5.660657
v -0.927855 -4.087589 5.791142
v -1.365728 -3.864895 5.772164
v -1.448133 -4.111599 5.684819
v -0.732635 -3.951984 5.337461
v -0.911374 -4.175003 5.230150
v -0.809039 -3.992058 4.816284
v -0.680013 -3.813435 4.912614
v -1.141918 -3.731258 5.283718
v -0.969734 -3.587132 4.819428
v -1.233086 -3.920950 5.198553
v -1.041353 -3.728624 4.737068
v -0.683611 -3.843790 4.517406
v -0.587262 -3.703857 4.612688
v -0.776944 -3.506386 4.506955
v -0.829416 -3.618496 4.428220
v -0.385211 -3.688824 4.263382
v -0.337179 -3.602039 4.358086
v -0.420312 -3.378972 4.269815
v -0.445707 -3.464766 4.194808
v -0.000000 -3.590055 4.164255
v -0.000000 -3.551730 4.241010
v -0.000000 -3.341427 4.176527
v -0.000000 -3.391031 4.113476
vt 0.043822 0.816698
vt 0.044255 0.802911
vt 0.109179 0.801960
vt 0.110560 0.816887
vt 0.008806 0.813084
vt 0.009451 0.800411
vt 0.211750 0.796544
vt 0.213808 0.805961
vt 0.144298 0.815321
vt 0.142876 0.801142
vt 0.047601 0.791739
vt 0.107576 0.785871
vt 0.025247 0.780442
vt 0.210814 0.787291
vt 0.138009 0.787300
vt 0.086384 0.771618
vt 0.045328 0.833143
vt 0.111213 0.832676
vt 0.013280 0.832119
vt 0.213161 0.823116
vt 0.144410 0.831104
vt 0.046017 0.850744
vt 0.111352 0.849412
vt 0.012771 0.850485
vt 0.208978 0.845628
vt 0.143893 0.848365
vt 0.046655 0.868868
vt 0.111567 0.866471
vt 0.013107 0.871282
vt 0.206895 0.866967
vt 0.143697 0.865887
vt 0.020609 0.905511
vt 0.014786 0.890274
vt 0.048103 0.886159
vt 0.050459 0.901475
vt 0.206782 0.884831
vt 0.205174 0.900635
vt 0.143747 0.899285
vt 0.143606 0.882906
vt 0.112033 0.899424
vt 0.111808 0.883235
vt 0.024709 0.913915
vt 0.051735 0.914597
vt 0.205338 0.915426
vt 0.144593 0.915325
vt 0.111834 0.915203
vt 0.051114 0.928030
vt 0.109965 0.931214
vt 0.020945 0.929176
vt 0.206022 0.929456
vt 0.147057 0.931575
vt 0.052225 0.938932
vt 0.101576 0.948963
vt 0.035198 0.946045
vt 0.207409 0.945153
vt 0.156469 0.948852
vt 0.072857 0.957859
vn 0.333211 -0.924127 -0.186975
vn 0.321580 -0.942244 -0.093604
vn -0.759629 -0.524682 0.384282
vn -0.943692 -0.327186 0.048927
vn 0.936124 0.340243 0.088916
vn 0.927978 0.145062 0.343241
vn -0.323531 0.889739 0.322012
vn -0.132495 0.558602 0.818785
vn 0.298482 -0.901439 0.313556
vn -0.278954 -0.688090 0.669863
vn 0.715019 -0.274934 0.642775
vn 0.113227 -0.040649 0.992737
vn 0.282313 -0.939115 -0.195862
vn -0.941909 -0.194608 -0.273742
vn 0.928157 0.322353 0.186045
vn -0.320848 0.945632 0.053273
vn 0.232132 -0.945977 -0.226369
vn -0.870730 -0.138400 -0.471885
vn 0.870632 0.223442 0.438263
vn -0.327913 0.940002 0.094177
vn 0.218582 -0.936497 -0.274219
vn -0.851325 -0.139996 -0.505615
vn 0.870687 0.197278 0.450539
vn -0.349505 0.931179 0.103696
vn 0.944222 0.146412 0.294971
vn 0.932642 0.180547 0.312380
vn 0.197625 -0.915051 -0.351606
vn 0.189266 -0.900296 -0.391977
vn -0.251205 0.959268 0.129233
vn -0.320037 0.937019 0.139900
vn -0.869665 -0.075816 -0.487786
vn -0.885470 -0.131936 -0.445573
vn 0.826289 0.016493 0.563006
vn 0.200874 -0.902122 -0.381871
vn -0.185105 0.973835 0.131841
vn -0.711589 0.041400 -0.701375
vn 0.177393 -0.910900 -0.372550
vn -0.401500 0.184565 -0.897069
vn 0.517892 -0.188729 0.834368
vn -0.092049 0.976806 0.193331
vn 0.703589 -0.657913 -0.268538
vn 0.353692 0.240759 -0.903846
vn 0.718587 -0.209821 0.663030
vn 0.665577 0.727305 0.167437
s 1
f 1/1/1 2/2/2 8/3/3 7/4/4
f 1/1/1 3/5/5 4/6/6 2/2/2
f 4/7/6 3/8/5 5/9/7 6/10/8
f 5/9/7 7/4/4 8/3/3 6/10/8
f 2/2/2 9/11/9 12/12/10 8/3/3
f 2/2/2 4/6/6 10/13/11 9/11/9
f 10/14/11 4/7/6 6/10/8 11/15/12
f 6/10/8 8/3/3 12/12/10 11/15/12
f 11/16/12 12/12/10 9/11/9 10/13/11
f 13/17/13 1/1/1 7/4/4 16/18/14
f 14/19/15 3/5/5 1/1/1 13/17/13
f 3/8/5 14/20/15 15/21/16 5/9/7
f 16/18/14 7/4/4 5/9/7 15/21/16
f 17/22/17 13/17/13 16/18/14 20/23/18
f 18/24/19 14/19/15 13/17/13 17/22/17
f 14/20/15 18/25/19 19/26/20 15/21/16
f 20/23/18 16/18/14 15/21/16 19/26/20
f 21/27/21 17/22/17 20/23/18 24/28/22
f 22/29/23 18/24/19 17/22/17 21/27/21
f 18/25/19 22/30/23 23/31/24 19/26/20
f 24/28/22 20/23/18 19/26/20 23/31/24
f 28/32/25 25/33/26 26/34/27 27/35/28
f 25/36/26 28/37/25 30/38/29 29/39/30
f 32/40/31 31/41/32 29/39/30 30/38/29
f 31/41/32 32/40/31 27/35/28 26/34/27
f 34/42/33 28/32/25 27/35/28 33/43/34
f 28/37/25 34/44/33 35/45/35 30/38/29
f 36/46/36 32/40/31 30/38/29 35/45/35
f 32/40/31 36/46/36 33/43/34 27/35/28
f 37/47/37 33/43/34 36/46/36 40/48/38
f 38/49/39 34/42/33 33/43/34 37/47/37
f 34/44/33 38/50/39 39/51/40 35/45/35
f 40/48/38 36/46/36 35/45/35 39/51/40
f 41/52/41 37/47/37 40/48/38 44/53/42
f 42/54/43 38/49/39 37/47/37 41/52/41
f 38/50/39 42/55/43 43/56/44 39/51/40
f 44/53/42 40/48/38 39/51/40 43/56/44
f 25/33/26 22/29/23 21/27/21 26/34/27
f 22/30/23 25/36/26 29/39/30 23/31/24
f 31/41/32 24/28/22 23/31/24 29/39/30
f 21/27/21 24/28/22 31/41/32 26/34/27
f 42/54/43 41/52/41 44/53/42 43/57/44
