# This file uses millimeters as units for non-parametric coordinates.

v 1.159910 -4.138132 7.949931
v 0.981307 -4.164677 8.265523
v 1.157735 -4.169495 8.593266
v 1.530260 -4.136482 8.609097
v 1.718508 -4.118572 8.286366
v 1.518513 -4.130041 7.991972
v 1.144449 -4.354683 7.873832
v 0.941299 -4.388290 8.253047
v 1.143588 -4.401882 8.631529
v 1.579259 -4.357971 8.651977
v 1.799340 -4.322983 8.274405
v 1.556753 -4.329012 7.921710
v 1.203962 -4.554996 7.957347
v 1.048737 -4.585274 8.241225
v 1.223303 -4.585861 8.521369
v 1.548017 -4.562462 8.550394
v 1.737102 -4.548803 8.264004
v 1.536888 -4.535337 7.977937
v 1.263310 -4.441668 7.797759
v 1.268935 -4.497234 7.814853
v 1.358229 -4.445705 7.788460
v 1.354757 -4.500263 7.803364
v 1.216848 -4.469500 7.705469
v 1.216664 -4.504641 7.713198
v 1.264473 -4.481974 7.677951
v 1.259143 -4.515345 7.686677
vt 0.546066 0.543167
vt 0.530575 0.545134
vt 0.550419 0.574740
vt 0.555032 0.559527
vt 0.525495 0.564823
vt 0.536158 0.577799
vt 0.560617 0.584439
vt 0.568024 0.556238
vt 0.551145 0.534963
vt 0.520096 0.535674
vt 0.512037 0.567202
vt 0.533465 0.590012
vt 0.550983 0.534943
vt 0.546066 0.543287
vt 0.555165 0.559490
vt 0.568289 0.556061
vt 0.550386 0.574674
vt 0.560467 0.584458
vt 0.536100 0.577829
vt 0.533416 0.590078
vt 0.525669 0.564847
vt 0.512023 0.567058
vt 0.539128 0.523426
vt 0.539718 0.520909
vt 0.535963 0.520059
vt 0.536092 0.522717
vt 0.530466 0.545119
vt 0.520075 0.535517
vt 0.540775 0.530658
vt 0.535582 0.530748
vt 0.544538 0.528438
vt 0.531304 0.529131
vt 0.541476 0.524584
vt 0.533506 0.523022
vn -0.454941 0.581811 0.674184
vn 0.214133 0.826891 0.519998
vn -0.298189 0.844130 -0.445564
vn -0.807621 0.589076 0.027176
vn 0.690563 0.723167 -0.012322
vn 0.348246 0.705334 -0.617437
vn -0.582957 0.111533 -0.804812
vn -0.984310 -0.176215 -0.009034
vn -0.514430 -0.206679 0.832253
vn 0.479615 -0.100349 0.871722
vn 0.998815 0.033431 -0.035371
vn 0.546011 0.215025 -0.809714
vn -0.317148 -0.887241 -0.334994
vn -0.605324 -0.794889 -0.041657
vn -0.282287 -0.812970 0.509307
vn 0.290801 -0.871844 0.394110
vn 0.738211 -0.672354 -0.054631
vn -0.804633 -0.579330 -0.130163
vn -0.784089 0.479932 -0.393534
vn 0.142319 0.301553 -0.942768
vn 0.091130 -0.731323 -0.675916
vn 0.463833 -0.735123 -0.494422
vn -0.581384 -0.808168 -0.094110
vn 0.440588 -0.768856 -0.463403
vn -0.669199 0.564282 -0.483486
vn 0.488807 0.390555 -0.780086
s 1
f 3/1/1 4/2/2 1/3/3 2/4/4
f 1/3/3 4/2/2 5/5/5 6/6/6
f 1/3/3 7/7/7 8/8/8 2/4/4
f 2/4/4 8/8/8 9/9/9 3/1/1
f 3/1/1 9/9/9 10/10/10 4/2/2
f 4/2/2 10/10/10 11/11/11 5/5/5
f 7/7/7 1/3/3 6/6/6 12/12/12
f 5/5/5 11/11/11 12/12/12 6/6/6
f 7/13/7 13/14/13 14/15/14 8/16/8
f 8/16/8 14/15/14 15/17/15 9/18/9
f 9/18/9 15/17/15 16/19/16 10/20/10
f 10/20/10 16/19/16 17/21/17 11/22/11
f 24/23/18 23/24/19 25/25/20 26/26/21
f 11/22/11 17/21/17 18/27/22 12/28/12
f 15/17/15 14/15/14 13/14/13 16/19/16
f 18/27/22 17/21/17 16/19/16 13/14/13
f 20/29/23 22/30/24 18/27/22 13/14/13
f 19/31/25 20/29/23 13/14/13 7/13/7
f 19/31/25 7/13/7 12/28/12 21/32/26
f 21/32/26 12/28/12 18/27/22 22/30/24
f 23/33/19 24/23/18 20/29/23 19/31/25
f 24/23/18 26/26/21 22/30/24 20/29/23
f 23/33/19 19/31/25 21/32/26 25/34/20
f 25/34/20 21/32/26 22/30/24 26/26/21
