# This file uses millimeters as units for non-parametric coordinates.

v -3.137713 -1.521645 4.788948
v -3.002945 -1.663553 4.567716
v -3.181197 -1.778516 4.928123
v -3.046237 -1.921278 4.706714
v -3.155699 -1.682559 4.486104
v -3.290468 -1.540650 4.707335
v -3.333951 -1.797521 4.846510
v -3.198992 -1.940284 4.625101
v -3.108217 -1.651677 4.390042
v -3.314861 -1.434083 4.729264
v -3.381536 -1.827952 4.942665
v -3.174598 -2.046854 4.603172
v -3.571793 -1.781147 4.491481
v 0.000000 -1.131748 5.729222
v 0.000000 -2.076156 5.651336
v 0.000000 -1.131748 5.791474
v 0.000000 -2.076156 5.713587
v 0.457394 -2.085588 5.562463
v 0.481290 -1.128189 5.667225
v 3.179191 -1.803759 4.606599
v 3.204303 -1.695134 4.520272
v 1.974409 -1.299695 5.027552
v 1.881335 -1.829342 4.979099
v 2.369430 -1.501763 4.860853
v 2.373115 -1.660550 4.864486
v 1.376166 -1.160493 5.293060
v 1.386278 -2.072951 5.206199
v 0.457394 -2.085588 5.624715
v 0.481290 -1.128189 5.729477
v 2.393638 -1.528278 4.910836
v 2.397324 -1.687066 4.914468
v 3.275962 -1.795347 4.659017
v 3.301074 -1.686721 4.572689
v 1.376166 -1.160493 5.355312
v 1.386278 -2.072951 5.268451
v 1.900889 -1.859215 5.029037
v 1.993963 -1.329569 5.077489
v -0.457394 -2.085588 5.562463
v -0.481290 -1.128189 5.667225
v -3.179191 -1.803759 4.606599
v -3.204303 -1.695134 4.520272
v -1.974409 -1.299695 5.002729
v -1.881335 -1.829342 4.979099
v -2.369430 -1.501763 4.860853
v -2.373115 -1.660550 4.864486
v -1.376166 -1.160493 5.293060
v -1.386278 -2.072951 5.206199
v -0.457394 -2.085588 5.624715
v -0.481290 -1.128189 5.729477
v -2.393638 -1.528278 4.910836
v -2.397324 -1.687066 4.914468
v -3.275962 -1.795347 4.659017
v -3.301074 -1.686721 4.572689
v -1.376166 -1.160493 5.355312
v -1.386278 -2.072951 5.268451
v -1.900889 -1.859215 5.029037
v -1.993963 -1.329569 5.052666
v 3.137713 -1.521645 4.788948
v 3.002945 -1.663553 4.567716
v 3.181197 -1.778515 4.928123
v 3.046237 -1.921278 4.706714
v 3.155699 -1.682558 4.486104
v 3.290468 -1.540649 4.707335
v 3.333951 -1.797522 4.846510
v 3.198992 -1.940283 4.625101
v 3.108216 -1.651676 4.390042
v 3.314861 -1.434082 4.729264
v 3.381536 -1.827951 4.942666
v 3.174598 -2.046854 4.603172
v 3.571792 -1.781147 4.491481
vt 0.645552 0.870744
vt 0.559089 0.870612
vt 0.645890 0.934141
vt 0.645552 0.870745
vt 0.645210 0.807076
vt 0.685711 0.829175
vt 0.685933 0.870697
vt 0.686154 0.912043
vt 0.685933 0.870698
vt 0.645551 0.870697
vt 0.645772 0.912043
vt 0.645551 0.870698
vt 0.645329 0.829175
vt 0.190357 0.669552
vt 0.292648 0.645394
vt 0.281750 0.598269
vt 0.179348 0.621950
vt 0.165604 0.404693
vt 0.187634 0.399598
vt 0.170077 0.323685
vt 0.148048 0.328779
vt 0.158641 0.532409
vt 0.261041 0.508726
vt 0.216643 0.437110
vt 0.154905 0.451388
vt 0.190357 0.669552
vt 0.179348 0.621950
vt 0.281750 0.598269
vt 0.292648 0.645394
vt 0.165604 0.404693
vt 0.148048 0.328779
vt 0.170077 0.323685
vt 0.187634 0.399598
vt 0.158641 0.532409
vt 0.154905 0.451388
vt 0.216643 0.437110
vt 0.261041 0.508726
vt 0.201191 0.716395
vt 0.303592 0.692713
vt 0.281430 0.905527
vt 0.297857 0.976557
vt 0.319887 0.971462
vt 0.303460 0.900433
vt 0.221200 0.802916
vt 0.252471 0.873265
vt 0.314209 0.858987
vt 0.323601 0.779235
vt 0.303592 0.692713
vt 0.201191 0.716395
vt 0.281430 0.905527
vt 0.303460 0.900433
vt 0.319887 0.971462
vt 0.297857 0.976557
vt 0.221200 0.802916
vt 0.323601 0.779235
vt 0.314209 0.858987
vt 0.252471 0.873265
vt 0.645552 0.870744
vt 0.559089 0.870612
vt 0.645890 0.934141
vt 0.645552 0.870745
vt 0.645210 0.807076
vt 0.685711 0.829175
vt 0.685933 0.870697
vt 0.686154 0.912043
vt 0.685933 0.870698
vt 0.645551 0.870697
vt 0.645772 0.912043
vt 0.645551 0.870698
vt 0.645329 0.829175
vn 0.880132 0.279845 -0.383477
vn -0.877591 -0.105429 -0.467674
vn 0.373440 0.814262 0.444433
vn 0.212994 -0.150426 0.965404
vn 0.718786 -0.681365 0.138160
vn 0.687469 -0.717667 0.111090
vn 0.854624 0.285746 -0.433551
vn 0.325118 0.842494 0.429538
vn 0.158582 -0.163163 0.973771
vn 0.962648 0.244799 -0.115682
vn 0.588961 0.638786 0.495053
vn 0.470488 -0.072619 0.879413
vn 0.843644 -0.464628 0.269047
vn 0.000000 0.676814 0.736154
vn 0.000000 -0.744547 0.667571
vn 0.175932 -0.742887 0.645885
vn 0.206825 0.672639 0.710479
vn 0.423810 0.629861 0.650892
vn 0.294840 -0.746559 0.596422
vn 0.407620 -0.899341 0.158217
vn 0.815774 0.553111 0.169059
vn 0.395584 0.595959 0.698817
vn 0.380958 -0.749038 0.542045
vn 0.463355 -0.784854 0.411468
vn 0.489804 0.488008 0.722454
vn -0.000000 0.744603 -0.667508
vn -0.168824 0.743771 -0.646764
vn -0.199060 -0.673819 -0.711578
vn -0.000000 -0.676739 -0.736223
vn 0.009454 0.707016 -0.707134
vn 0.135341 0.056831 -0.989168
vn -0.045981 -0.770710 -0.635525
vn -0.209369 -0.627153 -0.750229
vn -0.157754 0.783657 -0.600829
vn 0.050106 0.808409 -0.586485
vn -0.088421 -0.494417 -0.864716
vn -0.178298 -0.617626 -0.765995
vn -0.206825 0.672639 0.710479
vn -0.175932 -0.742887 0.645885
vn -0.410361 0.638214 0.651373
vn -0.815775 0.553110 0.169059
vn -0.407620 -0.899340 0.158217
vn -0.288320 -0.739204 0.608645
vn -0.401873 0.598100 0.693379
vn -0.482315 0.500666 0.718823
vn -0.468787 -0.777033 0.420069
vn -0.387850 -0.745890 0.541498
vn 0.199060 -0.673819 -0.711578
vn 0.168824 0.743771 -0.646764
vn -0.014796 0.699204 -0.714769
vn 0.200656 -0.633586 -0.747199
vn 0.045981 -0.770710 -0.635524
vn -0.135342 0.056831 -0.989168
vn 0.162178 0.781533 -0.602415
vn 0.183652 -0.621339 -0.761715
vn 0.085653 -0.506452 -0.858004
vn -0.051947 0.801389 -0.595883
vn -0.880132 0.279843 -0.383478
vn -0.373441 0.814262 0.444432
vn 0.877591 -0.105430 -0.467674
vn -0.212995 -0.150427 0.965404
vn -0.718786 -0.681365 0.138161
vn -0.687469 -0.717667 0.111089
vn -0.158583 -0.163163 0.973771
vn -0.325120 0.842492 0.429539
vn -0.854624 0.285748 -0.433550
vn -0.962648 0.244799 -0.115681
vn -0.588963 0.638784 0.495053
vn -0.470489 -0.072619 0.879413
vn -0.843644 -0.464628 0.269047
s 1
f 9/1/1 13/2/2 10/3/3
f 10/3/3 13/2/2 11/4/4
f 11/4/4 13/2/2 12/5/5
f 12/5/5 13/2/2 9/1/1
f 4/6/6 2/7/7 1/8/8 3/9/9
f 5/10/10 6/11/11 1/8/8 2/7/7
f 6/11/11 7/12/12 3/9/9 1/8/8
f 7/12/12 8/13/13 4/6/6 3/9/9
f 8/13/13 5/10/10 2/7/7 4/6/6
f 9/1/1 10/3/3 6/11/11 5/10/10
f 10/3/3 11/4/4 7/12/12 6/11/11
f 11/4/4 12/5/5 8/13/13 7/12/12
f 12/5/5 9/1/1 5/10/10 8/13/13
s 2
f 16/14/14 17/15/15 28/16/16 29/17/17
f 30/18/18 31/19/19 32/20/20 33/21/21
f 34/22/22 35/23/23 36/24/24 37/25/25
f 37/25/25 36/24/24 31/19/19 30/18/18
f 29/17/17 28/16/16 35/23/23 34/22/22
f 14/26/26 19/27/27 18/28/28 15/29/29
f 24/30/30 21/31/31 20/32/32 25/33/33
f 26/34/34 22/35/35 23/36/36 27/37/37
f 22/35/35 24/30/30 25/33/33 23/36/36
f 19/27/27 26/34/34 27/37/37 18/28/28
f 15/29/29 18/28/28 28/16/16 17/15/15
f 19/27/27 14/26/26 16/14/14 29/17/17
f 25/33/33 20/32/32 32/20/20 31/19/19
f 20/32/32 21/31/31 33/21/21 32/20/20
f 21/31/31 24/30/30 30/18/18 33/21/21
f 27/37/37 23/36/36 36/24/24 35/23/23
f 22/35/35 26/34/34 34/22/22 37/25/25
f 23/36/36 25/33/33 31/19/19 36/24/24
f 24/30/30 22/35/35 37/25/25 30/18/18
f 18/28/28 27/37/37 35/23/23 28/16/16
f 26/34/34 19/27/27 29/17/17 34/22/22
f 16/14/14 49/38/38 48/39/39 17/15/15
f 50/40/40 53/41/41 52/42/42 51/43/43
f 54/44/44 57/45/45 56/46/46 55/47/47
f 57/45/45 50/40/40 51/43/43 56/46/46
f 49/38/38 54/44/44 55/47/47 48/39/39
f 14/26/26 15/29/29 38/48/48 39/49/49
f 44/50/50 45/51/51 40/52/52 41/53/53
f 46/54/54 47/55/55 43/56/56 42/57/57
f 42/57/57 43/56/56 45/51/51 44/50/50
f 39/49/49 38/48/48 47/55/55 46/54/54
f 15/29/29 17/15/15 48/39/39 38/48/48
f 39/49/49 49/38/38 16/14/14 14/26/26
f 45/51/51 51/43/43 52/42/42 40/52/52
f 40/52/52 52/42/42 53/41/41 41/53/53
f 41/53/53 53/41/41 50/40/40 44/50/50
f 47/55/55 55/47/47 56/46/46 43/56/56
f 42/57/57 57/45/45 54/44/44 46/54/54
f 43/56/56 56/46/46 51/43/43 45/51/51
f 44/50/50 50/40/40 57/45/45 42/57/57
f 38/48/48 48/39/39 55/47/47 47/55/55
f 46/54/54 54/44/44 49/38/38 39/49/49
s 3
f 66/58/58 67/60/59 70/59/60
f 67/60/59 68/61/61 70/59/60
f 68/61/61 69/62/62 70/59/60
f 69/62/62 66/58/58 70/59/60
f 61/63/63 60/66/64 58/65/65 59/64/66
f 62/67/67 59/64/66 58/65/65 63/68/68
f 63/68/68 58/65/65 60/66/64 64/69/69
f 64/69/69 60/66/64 61/63/63 65/70/70
f 65/70/70 61/63/63 59/64/66 62/67/67
f 66/58/58 62/67/67 63/68/68 67/60/59
f 67/60/59 63/68/68 64/69/69 68/61/61
f 68/61/61 64/69/69 65/70/70 69/62/62
f 69/62/62 65/70/70 62/67/67 66/58/58
