# This file uses millimeters as units for non-parametric coordinates.

mtllib mu3_uroGenDia.mtl
v -3.408918 -3.992074 7.305292
v -3.384823 -4.470886 7.202703
v -4.508687 -4.304677 8.324792
v -4.376054 -3.614990 7.994328
v -2.352944 -3.217060 5.693788
v -2.228293 -3.713362 5.549742
v -1.007272 -2.448494 4.716151
v -1.529806 -3.306972 4.499605
v -1.874844 -3.507720 5.018351
v -1.672005 -2.828149 5.199083
v -0.662046 -3.311955 3.274190
v -0.463699 -2.441354 4.160901
v 0.000000 -2.489347 3.893901
v 0.000000 -3.511874 3.171724
v -0.525051 -2.906571 4.798015
v -0.632398 -2.984837 5.190323
v -0.628147 -3.509947 5.009008
v -0.510212 -3.425159 4.689245
v -0.501055 -3.600969 5.308582
v -0.500165 -3.073071 5.483780
v -0.265321 -2.886272 4.608507
v -0.258686 -3.409487 4.487150
v -0.226442 -3.109632 5.693967
v -0.226660 -3.630983 5.454380
v 0.000000 -2.865426 4.541101
v 0.000000 -3.393393 4.435073
v 0.000000 -3.139894 5.754758
v 0.000000 -3.655827 5.512176
v -1.633631 -3.207408 7.202641
v -1.571763 -4.020614 7.032195
v -1.428259 -3.934330 6.611915
v -1.463256 -3.151682 6.806471
v -1.174906 -3.485516 8.275455
v -1.214450 -4.137393 7.892617
v -1.431084 -4.081748 7.527349
v -1.431604 -3.288133 7.711836
v -0.498297 -3.602793 8.396062
v -0.586236 -4.157576 8.179464
v -0.564540 -3.805447 6.135315
v 0.000000 -3.750364 6.071826
v 0.000000 -3.026584 6.236096
v -0.569940 -3.065472 6.327262
v -1.146930 -3.854844 6.267038
v -1.157173 -3.100347 6.483805
v 0.000000 -3.689164 8.484885
v 0.000000 -4.175391 8.248997
v -0.708829 -3.715240 6.013485
v -0.727484 -3.088833 6.084017
v 0.000000 -3.606046 9.412237
v 0.000000 -3.935348 9.509044
v -1.606675 -3.376965 8.768441
v -1.678533 -3.842366 8.945951
v -0.700686 -3.973984 9.160568
v -0.672745 -3.588045 9.029499
v -0.790812 -3.732037 6.004420
v -0.987077 -3.087552 5.995070
v -1.146201 -3.040452 5.850921
v -0.764622 -3.704570 5.699706
vt 0.726659 0.370824
vt 0.726659 0.370824
vt 0.940764 0.044943
vt 0.940764 0.044943
vt 0.506228 0.641814
vt 0.506228 0.641814
vt 0.373525 0.812390
vt 0.373525 0.812390
vt 0.439077 0.728129
vt 0.439077 0.728129
vt 0.182663 0.924128
vt 0.182663 0.924128
vt 0.048571 0.960872
vt 0.048571 0.960872
vt 0.172786 0.774949
vt 0.194485 0.723464
vt 0.194485 0.723464
vt 0.172786 0.774949
vt 0.168226 0.673798
vt 0.168226 0.673799
vt 0.124452 0.805734
vt 0.124452 0.805734
vt 0.110842 0.623679
vt 0.110842 0.623679
vt 0.048571 0.813006
vt 0.048571 0.813006
vt 0.048571 0.612346
vt 0.048571 0.612346
vt 0.370442 0.399278
vt 0.370442 0.399278
vt 0.344255 0.466412
vt 0.344255 0.466412
vt 0.281916 0.247167
vt 0.281916 0.247167
vt 0.340392 0.319627
vt 0.340392 0.319627
vt 0.171369 0.211624
vt 0.171369 0.211624
vt 0.176906 0.539856
vt 0.048571 0.548341
vt 0.048571 0.548341
vt 0.176906 0.539856
vt 0.290640 0.520908
vt 0.290640 0.520908
vt 0.048571 0.197462
vt 0.048571 0.197462
vt 0.048571 0.573479
vt 0.048571 0.583503
vt 0.048571 0.044943
vt 0.048571 0.044943
vt 0.380725 0.044943
vt 0.380725 0.044943
vt 0.187225 0.044943
vt 0.187225 0.044943
vt 0.140974 0.585448
vt 0.143874 0.581767
vt 0.221546 0.607204
vt 0.218181 0.611407
vn -0.850354 -0.095620 -0.517450
vn -0.827375 0.361736 -0.429648
vn -0.824060 0.006005 -0.566471
vn -0.773052 -0.453403 -0.443640
vn -0.795783 -0.179719 -0.578300
vn -0.848214 0.300328 -0.436275
vn -0.788076 0.364528 -0.496040
vn -0.691221 0.701810 -0.172270
vn -0.742492 0.472753 -0.474563
vn -0.742492 0.472753 -0.474563
vn -0.784017 0.609114 -0.119570
vn -0.911234 0.298069 -0.284267
vn 0.000000 0.605596 -0.795772
vn 0.000000 0.917584 -0.397543
vn 0.820443 -0.116518 0.559730
vn 0.998580 0.034020 -0.040986
vn 0.998580 0.034020 -0.040986
vn 0.820443 -0.116518 0.559730
vn 0.767463 0.227359 -0.599423
vn 0.998580 0.034020 -0.040986
vn 0.998580 0.034020 -0.040986
vn 0.767463 0.227359 -0.599423
vn 0.428712 -0.185920 0.884104
vn 0.820443 -0.116518 0.559730
vn 0.820443 -0.116518 0.559730
vn 0.428712 -0.185920 0.884104
vn 0.767463 0.227359 -0.599423
vn 0.767463 0.227359 -0.599423
vn 0.415403 0.360464 -0.835169
vn 0.415403 0.360464 -0.835169
vn 0.231292 -0.204297 0.951192
vn 0.428712 -0.185920 0.884104
vn 0.428712 -0.185920 0.884104
vn 0.231292 -0.204297 0.951192
vn 0.415403 0.360464 -0.835169
vn 0.277284 0.404947 -0.871282
vn 0.277284 0.404947 -0.871282
vn 0.415403 0.360464 -0.835169
vn 0.998777 0.042630 0.025040
vn 0.998777 0.042630 0.025040
vn 0.859279 -0.087699 0.503934
vn 0.859279 -0.087699 0.503934
vn 0.656054 0.291167 -0.696286
vn 0.656054 0.291167 -0.696286
vn 0.923223 0.122712 -0.364143
vn 0.923223 0.122712 -0.364143
vn 0.241061 0.389590 -0.888881
vn 0.241061 0.389590 -0.888881
vn 0.656054 0.291167 -0.696286
vn 0.656054 0.291167 -0.696286
vn 0.199744 -0.243495 0.949111
vn 0.150290 -0.233249 0.960733
vn 0.150290 -0.233249 0.960733
vn 0.199744 -0.243495 0.949111
vn 0.526785 -0.210238 0.823588
vn 0.199744 -0.243495 0.949111
vn 0.199744 -0.243495 0.949111
vn 0.526785 -0.210238 0.823588
vn 0.859279 -0.087699 0.503934
vn 0.859279 -0.087699 0.503934
vn 0.526785 -0.210238 0.823588
vn 0.526785 -0.210238 0.823588
vn 0.923223 0.122712 -0.364143
vn 0.998777 0.042630 0.025040
vn 0.998777 0.042630 0.025040
vn 0.923223 0.122712 -0.364143
vn 0.169309 0.380812 -0.909020
vn 0.169309 0.380812 -0.909020
vn 0.241061 0.389590 -0.888881
vn 0.241061 0.389590 -0.888881
vn 0.139632 0.171527 -0.975234
vn 0.139632 0.171527 -0.975234
vn 0.139632 0.171527 -0.975234
vn 0.139632 0.171527 -0.975234
vn 1.000000 0.000000 0.000000
vn 1.000000 0.000000 0.000000
vn 1.000000 0.000000 0.000000
vn 1.000000 0.000000 0.000000
vn 1.000000 0.000000 0.000000
vn 1.000000 0.000000 0.000000
vn 1.000000 0.000000 0.000000
vn 1.000000 0.000000 0.000000
vn -0.268558 0.427217 0.863344
vn -0.268558 0.427217 0.863344
vn -0.268558 0.427217 0.863344
vn -0.268558 0.427217 0.863344
vn 0.175713 -0.982832 -0.056271
vn 0.175713 -0.982832 -0.056271
vn 0.116035 -0.954744 -0.273861
vn 0.116035 -0.954744 -0.273861
vn 0.119924 -0.977854 0.171520
vn 0.119924 -0.977854 0.171520
vn 0.175713 -0.982832 -0.056271
vn 0.175713 -0.982832 -0.056271
vn -0.148932 0.976672 -0.154697
vn -0.148932 0.976672 -0.154697
vn 0.077028 0.996289 0.038416
vn 0.077028 0.996289 0.038416
vn -0.043684 -0.982066 0.183406
vn -0.043684 -0.982066 0.183406
vn -0.096887 -0.977971 0.184893
vn -0.096887 -0.977971 0.184893
vn 0.154403 0.987692 -0.024973
vn 0.154403 0.987692 -0.024973
vn 0.108664 0.992815 -0.050107
vn 0.108664 0.992815 -0.050107
vn 0.033701 -0.987781 -0.152161
vn 0.033701 -0.987781 -0.152161
vn 0.005482 -0.989505 -0.144392
vn 0.005482 -0.989505 -0.144392
vn -0.045365 0.996765 -0.066348
vn -0.045365 0.996765 -0.066348
vn -0.014256 0.999751 -0.017181
vn -0.014256 0.999751 -0.017181
vn -0.241381 0.894856 -0.375456
vn -0.241381 0.894856 -0.375456
vn -0.038535 -0.982311 0.183250
vn -0.038535 -0.982311 0.183250
vn 0.119924 -0.977854 0.171520
vn 0.119924 -0.977854 0.171520
vn -0.453586 0.286580 0.843879
vn -0.453586 0.286580 0.843879
vn -0.453586 0.286580 0.843879
vn -0.453586 0.286580 0.843879
vn 0.278720 0.791895 0.543339
vn 0.278720 0.791895 0.543339
vn 0.278720 0.791895 0.543339
vn 0.278720 0.791895 0.543339
vn -0.189314 -0.981136 0.039137
vn -0.189314 -0.981136 0.039137
vn -0.189314 -0.981136 0.039137
vn -0.189314 -0.981136 0.039137
vn -0.023508 -0.942327 -0.333868
vn -0.052689 -0.977491 -0.204291
vn -0.052689 -0.977491 -0.204291
vn -0.023508 -0.942327 -0.333868
vn -0.052689 -0.977491 -0.204291
vn -0.052689 -0.977491 -0.204291
vn 0.377928 0.715282 0.587828
vn 0.377928 0.715282 0.587828
vn 0.055148 -0.960546 -0.272600
vn -0.355533 0.920233 0.163606
vn -0.355533 0.920233 0.163606
vn 0.267630 0.736397 0.621364
vn 0.267630 0.736397 0.621364
vn 0.016901 0.999344 0.032045
vn 0.016901 0.999344 0.032045
vn 0.061891 -0.985207 -0.159799
vn 0.061891 -0.985207 -0.159799
vn 0.488941 -0.223161 0.843289
vn 0.488941 -0.223161 0.843289
vn 0.058157 0.998076 0.021484
vn 0.076423 0.994628 0.069824
vn 0.094483 0.988511 0.117976
vn 0.080912 -0.885158 -0.458202
vn 0.080912 -0.885158 -0.458202
vn 0.034783 -0.783049 -0.620987
vn 0.034783 -0.783049 -0.620987
vn 0.080912 -0.885158 -0.458202
s 1
usemtl lambert5SG
f 1/1/1 2/2/2 3/3/3 4/4/4
f 2/2/2 1/1/1 5/5/5 6/6/6
f 7/7/7 8/8/8 9/9/9 10/10/10
f 11/11/11 8/8/8 7/7/7 12/12/12
f 13/13/13 14/14/14 11/11/11 12/12/12
s off
f 15/15/15 16/16/16 17/17/17 18/18/18
f 19/19/19 17/17/20 16/16/21 20/20/22
f 21/21/23 15/15/24 18/18/25 22/22/26
f 19/19/27 20/20/28 23/23/29 24/24/30
f 25/25/31 21/21/32 22/22/33 26/26/34
f 23/23/35 27/27/36 28/28/37 24/24/38
f 29/29/39 30/30/40 31/31/41 32/32/42
f 33/33/43 34/34/44 35/35/45 36/36/46
f 37/37/47 38/38/48 34/34/49 33/33/50
f 39/39/51 40/40/52 41/41/53 42/42/54
f 43/43/55 39/39/56 42/42/57 44/44/58
f 32/32/59 31/31/60 43/43/61 44/44/62
f 35/35/63 30/30/64 29/29/65 36/36/66
f 45/45/67 46/46/68 38/38/69 37/37/70
s 16
f 40/40/71 47/47/72 48/48/73 41/41/74
s off
f 26/26/75 14/14/76 13/13/77 25/25/78
f 45/45/79 49/49/80 50/50/81 46/46/82
s 19
f 51/51/83 4/4/84 3/3/85 52/52/86
s 1
f 10/10/10 9/9/9 6/6/6 5/5/5
s 20
f 30/30/87 2/2/88 6/6/89 31/31/90
s off
f 35/35/91 3/3/92 2/2/93 30/30/94
s 22
f 36/36/95 4/4/96 51/51/97 33/33/98
s 23
f 46/46/99 50/50/100 53/53/101 38/38/102
s 22
f 37/37/103 54/54/104 49/49/105 45/45/106
s 20
f 55/55/107 24/24/108 28/28/109 47/47/110
s 22
f 41/41/111 48/48/112 56/56/113 42/42/114
f 29/29/115 1/1/116 4/4/96 36/36/95
s 23
f 34/34/117 52/52/118 3/3/119 35/35/120
f 38/38/102 53/53/101 52/52/118 34/34/117
s 22
f 33/33/98 51/51/97 54/54/104 37/37/103
s 19
f 49/49/121 54/54/122 53/53/123 50/50/124
f 54/54/122 51/51/83 52/52/86 53/53/123
s 22
f 25/25/125 13/13/126 12/12/127 21/21/128
s 24
f 22/22/129 11/11/130 14/14/131 26/26/132
s 20
f 9/9/133 8/8/134 18/18/135 17/17/136
s 24
f 22/22/129 18/18/137 8/8/138 11/11/130
s 22
f 7/7/139 15/15/140 21/21/128 12/12/127
s 20
f 43/43/141 31/31/90 6/6/89 9/9/133
s 22
f 32/32/142 5/5/143 1/1/116 29/29/115
f 16/16/144 15/15/140 7/7/139 10/10/145
f 57/57/146 44/44/147 42/42/114 56/56/113
f 10/10/145 5/5/143 32/32/142 44/44/147
f 57/57/146 10/10/145 44/44/147
s 20
f 19/19/148 24/24/108 55/55/107 58/58/149
f 19/19/148 58/58/149 9/9/133 17/17/136
s 16
f 47/47/72 28/28/150 27/27/151 48/48/73
s 22
f 56/56/113 48/48/112 27/27/152 23/23/153
f 20/20/154 57/57/146 56/56/113 23/23/153
f 20/20/154 16/16/144 10/10/145 57/57/146
s off
f 39/39/155 55/55/156 47/47/157 40/40/158
s 20
f 58/58/149 55/55/107 39/39/159 43/43/141
f 9/9/133 58/58/149 43/43/141
