# This file uses millimeters as units for non-parametric coordinates.

v 1.614352 4.595831 13.278433
v 1.799129 4.536738 13.469272
v 1.807897 4.246434 13.493568
v 1.621947 4.277177 13.289542
v 4.002978 5.162032 12.347081
v 3.992964 5.203643 12.183546
v 4.710577 4.398768 11.374031
v 4.762794 4.365052 11.501379
v 2.912706 3.803954 12.676335
v 2.864999 3.876397 12.514523
v 1.849077 4.090199 13.912451
v 3.210281 4.031776 12.922552
v 3.088877 3.846581 12.820991
v 1.893084 4.158545 13.728600
v 2.947473 4.110847 12.508348
v 3.127843 4.424466 12.513504
v 1.608122 4.857195 13.269320
v 6.388003 2.055333 9.893738
v 6.316430 2.425226 9.746513
v 6.118011 2.545141 9.428030
v 6.148398 2.067269 9.581319
v 2.459522 5.404969 13.117302
v 3.338118 4.775860 12.420391
v 3.754316 5.014594 12.183242
v 2.939040 5.882484 12.806729
v 1.790245 4.830904 13.444654
v 2.715569 5.406518 13.310557
v 2.794124 5.485157 13.578341
v 1.837589 4.759916 13.788756
v 3.646861 4.848345 12.725191
v 3.398703 4.349272 12.883775
v 6.281506 2.713996 9.634433
v 6.291329 2.890877 9.535569
v 6.117700 2.947458 9.263890
v 6.098099 2.858294 9.327579
v 5.537215 3.664616 10.645048
v 5.454411 3.688340 10.519047
v 6.319990 3.033571 9.436145
v 6.504836 3.078907 9.625294
v 4.587776 4.130244 11.748193
v 5.445555 3.499097 10.867128
v 5.367002 3.225840 11.001804
v 4.413540 3.788332 11.908290
v 4.295593 3.527756 11.953128
v 5.321379 2.976467 11.042378
v 5.252728 2.798681 11.017820
v 4.199087 3.356981 11.900894
v 4.063465 3.290344 11.792756
v 5.131302 2.704154 10.931247
v 5.019747 2.745499 10.854335
v 3.996252 3.345994 11.692642
v 4.070289 3.555474 11.694489
v 5.023487 2.954470 10.831908
v 5.078521 3.249227 10.806037
v 4.211420 3.835928 11.685991
v 4.340532 4.099708 11.557008
v 5.136714 3.487306 10.692725
v 5.270519 3.626386 10.538811
v 4.535686 4.284841 11.381954
v 3.241653 5.968251 12.922830
v 3.276592 6.169432 13.220770
v 6.500923 2.386454 10.005296
v 6.423026 2.686635 9.916089
v 6.595149 2.023347 10.113206
v 6.146013 3.076260 9.171888
v 6.461047 2.868943 9.780942
vt 0.027591 0.210615
vt 0.027591 0.116085
vt 0.069749 0.116085
vt 0.069749 0.210615
vt 0.304460 0.502137
vt 0.497012 0.502137
vt 0.497012 0.550342
vt 0.304460 0.550342
vt 0.111907 0.070044
vt 0.111907 0.024003
vt 0.304460 0.024003
vt 0.304460 0.070044
vt 0.111907 0.210615
vt 0.111907 0.116085
vt 0.304460 0.116085
vt 0.304460 0.210615
vt 0.111907 0.884214
vt 0.111907 0.794737
vt 0.304460 0.794737
vt 0.304460 0.884214
vt 0.928121 0.973692
vt 0.884421 0.973692
vt 0.884421 0.884214
vt 0.928121 0.884214
vt 0.111907 0.696642
vt 0.111907 0.598547
vt 0.304460 0.598547
vt 0.304460 0.696642
vt 0.069749 0.305144
vt 0.111907 0.305144
vt 0.111907 0.403641
vt 0.069749 0.403641
vt 0.304460 0.305144
vt 0.304460 0.403641
vt 0.928121 0.794737
vt 0.884421 0.794737
vt 0.884421 0.696642
vt 0.928121 0.696642
vt 0.690717 0.502137
vt 0.884421 0.502137
vt 0.884421 0.550342
vt 0.690717 0.550342
vt 0.497012 0.403641
vt 0.497012 0.305144
vt 0.690717 0.305144
vt 0.690717 0.403641
vt 0.497012 0.210615
vt 0.497012 0.116085
vt 0.690717 0.116085
vt 0.690717 0.210615
vt 0.497012 0.070044
vt 0.497012 0.024003
vt 0.690717 0.024003
vt 0.690717 0.070044
vt 0.497012 0.884214
vt 0.497012 0.794737
vt 0.690717 0.794737
vt 0.690717 0.884214
vt 0.497012 0.696642
vt 0.497012 0.598547
vt 0.690717 0.598547
vt 0.690717 0.696642
vt 0.027591 0.305144
vt 0.111907 0.550342
vt 0.111907 0.502137
vt 0.497012 0.973692
vt 0.304460 0.973692
vt 0.111907 0.973692
vt 0.971820 0.794737
vt 0.971820 0.884214
vt 0.971820 0.973692
vt 0.069749 0.502137
vt 0.027591 0.502137
vt 0.027591 0.403641
vt 0.884421 0.598547
vt 0.928121 0.598547
vt 0.971820 0.598547
vt 0.971820 0.696642
vt 0.884421 0.305144
vt 0.884421 0.403641
vt 0.884421 0.116085
vt 0.884421 0.210615
vt 0.884421 0.024003
vt 0.884421 0.070044
vt 0.690717 0.973692
vn -0.715080 0.022206 0.698690
vn -0.726564 0.020410 0.686796
vn -0.919307 -0.116887 0.375782
vn -0.910854 -0.052132 0.409423
vn 0.842706 0.427585 0.327136
vn 0.814919 0.479209 0.325984
vn 0.204283 0.815772 -0.541097
vn 0.255324 0.765273 -0.590904
vn -0.312338 -0.949824 0.016695
vn -0.562997 -0.582581 -0.586202
vn -0.610879 -0.498668 -0.614945
vn -0.309870 -0.947668 0.076846
vn 0.412864 -0.547783 0.727652
vn -0.073005 -0.974181 0.213640
vn 0.053409 -0.901151 0.430204
vn 0.465515 -0.463733 0.753822
vn -0.470507 0.083697 -0.878418
vn -0.427189 0.190246 -0.883921
vn -0.490973 0.173650 -0.853693
vn -0.488791 0.150956 -0.859241
vn 0.788284 -0.078686 -0.610260
vn 0.805631 -0.109487 -0.582212
vn 0.814839 -0.115029 -0.568160
vn 0.815532 -0.072873 -0.574105
vn -0.495021 0.168948 -0.852297
vn -0.361071 0.345467 -0.866187
vn -0.434626 0.330882 -0.837626
vn -0.556382 0.131459 -0.820462
vn -0.773378 0.469743 0.425709
vn -0.875094 0.466954 0.127137
vn -0.695142 0.718793 -0.010693
vn -0.573860 0.772466 0.271995
vn 0.608236 -0.156970 0.778080
vn 0.529685 -0.102367 0.841994
vn 0.589802 -0.121005 0.798430
vn 0.665377 -0.086314 0.741501
vn 0.799717 -0.250933 -0.545423
vn 0.769905 -0.279066 -0.573907
vn 0.683945 -0.473280 -0.555181
vn 0.702975 -0.472100 -0.531928
vn 0.725909 0.652139 0.218565
vn 0.649705 0.742237 0.164217
vn 0.226765 0.921699 -0.314719
vn 0.195337 0.886889 -0.418654
vn 0.735466 0.047391 0.675903
vn 0.666364 -0.079820 0.741342
vn 0.717982 0.084422 0.690923
vn 0.761543 0.172016 0.624870
vn 0.538866 -0.317411 0.780303
vn 0.228082 -0.699849 0.676897
vn 0.293454 -0.585138 0.755975
vn 0.645633 -0.034644 0.762862
vn -0.272065 -0.932657 0.236920
vn -0.682220 -0.462560 -0.566228
vn -0.708402 -0.600873 -0.370294
vn -0.253641 -0.916575 0.309123
vn -0.565927 0.170395 -0.806655
vn -0.622532 0.108389 -0.775052
vn -0.762185 -0.012670 -0.647235
vn -0.725597 -0.002220 -0.688116
vn -0.677013 0.045661 -0.734553
vn -0.533023 0.319451 -0.783478
vn -0.526253 0.469569 -0.708916
vn -0.787343 -0.025930 -0.615970
vn -0.919307 -0.116887 0.375782
vn -0.971644 -0.236333 0.007374
vn -0.990612 -0.120366 0.064806
vn -0.910854 -0.052132 0.409423
vn -0.990612 -0.120366 0.064806
vn -0.875094 0.466954 0.127137
vn -0.773378 0.469743 0.425709
vn -0.910854 -0.052132 0.409423
vn -0.773378 0.469743 0.425709
vn -0.601779 0.427990 0.674304
vn -0.715080 0.022206 0.698690
vn -0.910854 -0.052132 0.409423
vn 0.204283 0.815772 -0.541097
vn -0.533023 0.319451 -0.783478
vn -0.434626 0.330882 -0.837626
vn 0.255324 0.765273 -0.590904
vn -0.434626 0.330882 -0.837626
vn -0.361071 0.345467 -0.866187
vn 0.249954 0.737509 -0.627378
vn 0.255324 0.765273 -0.590904
vn 0.249954 0.737509 -0.627378
vn 0.847380 0.462699 0.260492
vn 0.842706 0.427585 0.327136
vn 0.255324 0.765273 -0.590904
vn -0.610879 -0.498668 -0.614945
vn -0.682220 -0.462560 -0.566228
vn -0.272065 -0.932657 0.236920
vn -0.309870 -0.947668 0.076846
vn -0.272065 -0.932657 0.236920
vn 0.228082 -0.699849 0.676897
vn 0.053409 -0.901151 0.430204
vn -0.309870 -0.947668 0.076846
vn 0.053409 -0.901151 0.430204
vn -0.073005 -0.974181 0.213640
vn -0.312338 -0.949824 0.016695
vn -0.309870 -0.947668 0.076846
vn 0.053409 -0.901151 0.430204
vn 0.228082 -0.699849 0.676897
vn 0.538866 -0.317411 0.780303
vn 0.465515 -0.463733 0.753822
vn 0.538866 -0.317411 0.780303
vn 0.666364 -0.079820 0.741342
vn 0.589802 -0.121005 0.798430
vn 0.465515 -0.463733 0.753822
vn 0.589802 -0.121005 0.798430
vn 0.529685 -0.102367 0.841994
vn 0.412864 -0.547783 0.727652
vn 0.465515 -0.463733 0.753822
vn -0.490973 0.173650 -0.853693
vn -0.622532 0.108389 -0.775052
vn -0.565927 0.170395 -0.806655
vn -0.488791 0.150956 -0.859241
vn -0.565927 0.170395 -0.806655
vn -0.682220 -0.462560 -0.566228
vn -0.610879 -0.498668 -0.614945
vn -0.488791 0.150956 -0.859241
vn -0.610879 -0.498668 -0.614945
vn -0.562997 -0.582581 -0.586202
vn -0.470507 0.083697 -0.878418
vn -0.488791 0.150956 -0.859241
vn 0.814839 -0.115029 -0.568160
vn 0.769905 -0.279066 -0.573907
vn 0.799717 -0.250933 -0.545423
vn 0.815532 -0.072873 -0.574105
vn 0.799717 -0.250933 -0.545423
vn 0.827756 -0.221936 -0.515330
vn 0.814743 -0.030471 -0.579021
vn 0.815532 -0.072873 -0.574105
vn 0.814743 -0.030471 -0.579021
vn 0.769330 -0.047725 -0.637066
vn 0.788284 -0.078686 -0.610260
vn 0.815532 -0.072873 -0.574105
vn -0.434626 0.330882 -0.837626
vn -0.533023 0.319451 -0.783478
vn -0.677013 0.045661 -0.734553
vn -0.556382 0.131459 -0.820462
vn -0.677013 0.045661 -0.734553
vn -0.622532 0.108389 -0.775052
vn -0.490973 0.173650 -0.853693
vn -0.556382 0.131459 -0.820462
vn -0.490973 0.173650 -0.853693
vn -0.427189 0.190246 -0.883921
vn -0.495021 0.168948 -0.852297
vn -0.556382 0.131459 -0.820462
vn -0.695142 0.718793 -0.010693
vn -0.806301 0.578301 -0.124286
vn -0.659183 0.719796 0.217649
vn -0.573860 0.772466 0.271995
vn -0.659183 0.719796 0.217649
vn -0.407528 0.747143 0.525070
vn -0.401252 0.752175 0.522714
vn -0.573860 0.772466 0.271995
vn -0.401252 0.752175 0.522714
vn -0.601779 0.427990 0.674304
vn -0.773378 0.469743 0.425709
vn -0.573860 0.772466 0.271995
vn 0.589802 -0.121005 0.798430
vn 0.666364 -0.079820 0.741342
vn 0.735466 0.047391 0.675903
vn 0.665377 -0.086314 0.741501
vn 0.735466 0.047391 0.675903
vn 0.814919 0.479209 0.325984
vn 0.842706 0.427585 0.327136
vn 0.665377 -0.086314 0.741501
vn 0.842706 0.427585 0.327136
vn 0.847380 0.462699 0.260492
vn 0.608236 -0.156970 0.778080
vn 0.665377 -0.086314 0.741501
vn 0.683945 -0.473280 -0.555181
vn 0.672048 -0.515712 -0.531407
vn 0.674154 -0.516799 -0.527670
vn 0.702975 -0.472100 -0.531928
vn 0.674154 -0.516799 -0.527670
vn 0.676246 -0.517876 -0.523923
vn 0.721388 -0.470492 -0.508171
vn 0.702975 -0.472100 -0.531928
vn 0.721388 -0.470492 -0.508171
vn 0.827756 -0.221936 -0.515330
vn 0.799717 -0.250933 -0.545423
vn 0.702975 -0.472100 -0.531928
vn 0.226765 0.921699 -0.314719
vn -0.457287 0.642992 -0.614370
vn -0.526253 0.469569 -0.708916
vn 0.195337 0.886889 -0.418654
vn -0.526253 0.469569 -0.708916
vn -0.533023 0.319451 -0.783478
vn 0.204283 0.815772 -0.541097
vn 0.195337 0.886889 -0.418654
vn 0.204283 0.815772 -0.541097
vn 0.814919 0.479209 0.325984
vn 0.725909 0.652139 0.218565
vn 0.195337 0.886889 -0.418654
vn 0.717982 0.084422 0.690923
vn 0.742147 0.187978 0.643337
vn 0.767917 0.232998 0.596670
vn 0.761543 0.172016 0.624870
vn 0.767917 0.232998 0.596670
vn 0.649705 0.742237 0.164217
vn 0.725909 0.652139 0.218565
vn 0.761543 0.172016 0.624870
vn 0.725909 0.652139 0.218565
vn 0.814919 0.479209 0.325984
vn 0.735466 0.047391 0.675903
vn 0.761543 0.172016 0.624870
vn 0.293454 -0.585138 0.755975
vn 0.316258 -0.522676 0.791701
vn 0.690105 0.172194 0.702926
vn 0.645633 -0.034644 0.762862
vn 0.690105 0.172194 0.702926
vn 0.742147 0.187978 0.643337
vn 0.717982 0.084422 0.690923
vn 0.645633 -0.034644 0.762862
vn 0.717982 0.084422 0.690923
vn 0.666364 -0.079820 0.741342
vn 0.538866 -0.317411 0.780303
vn 0.645633 -0.034644 0.762862
vn -0.708402 -0.600873 -0.370294
vn -0.693412 -0.676559 -0.247887
vn -0.270421 -0.918117 0.289713
vn -0.253641 -0.916575 0.309123
vn -0.270421 -0.918117 0.289713
vn 0.316258 -0.522676 0.791701
vn 0.293454 -0.585138 0.755975
vn -0.253641 -0.916575 0.309123
vn 0.293454 -0.585138 0.755975
vn 0.228082 -0.699849 0.676897
vn -0.272065 -0.932657 0.236920
vn -0.253641 -0.916575 0.309123
vn -0.762185 -0.012670 -0.647235
vn -0.824113 -0.084227 -0.560128
vn -0.803805 -0.126666 -0.581252
vn -0.725597 -0.002220 -0.688116
vn -0.803805 -0.126666 -0.581252
vn -0.693412 -0.676559 -0.247887
vn -0.708402 -0.600873 -0.370294
vn -0.725597 -0.002220 -0.688116
vn -0.708402 -0.600873 -0.370294
vn -0.682220 -0.462560 -0.566228
vn -0.565927 0.170395 -0.806655
vn -0.725597 -0.002220 -0.688116
vn -0.526253 0.469569 -0.708916
vn -0.457287 0.642992 -0.614370
vn -0.834711 -0.049199 -0.548485
vn -0.787343 -0.025930 -0.615970
vn -0.834711 -0.049199 -0.548485
vn -0.824113 -0.084227 -0.560128
vn -0.762185 -0.012670 -0.647235
vn -0.787343 -0.025930 -0.615970
vn -0.762185 -0.012670 -0.647235
vn -0.622532 0.108389 -0.775052
vn -0.677013 0.045661 -0.734553
vn -0.787343 -0.025930 -0.615970
s off
f 1/1/1 4/2/2 3/3/3 2/4/4
f 5/5/5 8/6/6 7/7/7 6/8/8
f 3/9/9 4/10/10 10/11/11 9/12/12
f 11/13/13 14/14/14 13/15/15 12/16/16
f 1/17/17 17/18/18 16/19/19 15/20/20
f 18/21/21 21/22/22 20/23/23 19/24/24
f 22/25/25 25/26/26 24/27/27 23/28/28
f 26/29/29 29/30/30 28/31/31 27/32/32
f 28/31/33 29/30/34 31/33/35 30/34/36
f 32/35/37 35/36/38 34/37/39 33/38/40
f 36/39/41 39/40/42 38/41/43 37/42/44
f 40/43/45 43/44/46 42/45/47 41/46/48
f 44/47/49 47/48/50 46/49/51 45/50/52
f 48/51/53 51/52/54 50/53/55 49/54/56
f 52/55/57 55/56/58 54/57/59 53/58/60
f 56/59/61 59/60/62 58/61/63 57/62/64
f 3/3/65 14/14/66 11/13/67 2/4/68
f 11/13/69 29/30/70 26/29/71 2/4/72
f 26/29/73 17/63/74 1/1/75 2/4/76
f 7/7/77 59/60/78 24/27/79 6/8/80
f 24/27/81 25/26/82 60/64/83 6/8/84
f 60/64/85 61/65/86 5/5/87 6/8/88
f 10/11/89 51/52/90 48/51/91 9/12/92
f 48/51/93 47/48/94 13/15/95 9/12/96
f 13/15/97 14/14/98 3/9/99 9/12/100
f 13/15/101 47/48/102 44/47/103 12/16/104
f 44/47/105 43/44/106 31/33/107 12/16/108
f 31/33/109 29/30/110 11/13/111 12/16/112
f 16/19/113 55/56/114 52/55/115 15/20/116
f 52/55/117 51/66/118 10/67/119 15/20/120
f 10/67/121 4/68/122 1/17/123 15/20/124
f 20/23/125 35/36/126 32/35/127 19/24/128
f 32/35/129 63/69/130 62/70/131 19/24/132
f 62/70/133 64/71/134 18/21/135 19/24/136
f 24/27/137 59/60/138 56/59/139 23/28/140
f 56/59/141 55/56/142 16/19/143 23/28/144
f 16/19/145 17/18/146 22/25/147 23/28/148
f 28/31/149 61/65/150 60/72/151 27/32/152
f 60/72/153 25/73/154 22/74/155 27/32/156
f 22/74/157 17/63/158 26/29/159 27/32/160
f 31/33/161 43/44/162 40/43/163 30/34/164
f 40/43/165 8/6/166 5/5/167 30/34/168
f 5/5/169 61/65/170 28/31/171 30/34/172
f 34/37/173 65/75/174 38/76/175 33/38/176
f 38/76/177 39/77/178 66/78/179 33/38/180
f 66/78/181 63/69/182 32/35/183 33/38/184
f 38/41/185 65/75/186 58/61/187 37/42/188
f 58/61/189 59/60/190 7/7/191 37/42/192
f 7/7/193 8/6/194 36/39/195 37/42/196
f 42/45/197 63/79/198 66/80/199 41/46/200
f 66/80/201 39/40/202 36/39/203 41/46/204
f 36/39/205 8/6/206 40/43/207 41/46/208
f 46/49/209 64/81/210 62/82/211 45/50/212
f 62/82/213 63/79/214 42/45/215 45/50/216
f 42/45/217 43/44/218 44/47/219 45/50/220
f 50/53/221 21/83/222 18/84/223 49/54/224
f 18/84/225 64/81/226 46/49/227 49/54/228
f 46/49/229 47/48/230 48/51/231 49/54/232
f 54/57/233 35/36/234 20/23/235 53/58/236
f 20/23/237 21/22/238 50/85/239 53/58/240
f 50/85/241 51/66/242 52/55/243 53/58/244
f 58/61/245 65/75/246 34/37/247 57/62/248
f 34/37/249 35/36/250 54/57/251 57/62/252
f 54/57/253 55/56/254 56/59/255 57/62/256
