# This file uses millimeters as units for non-parametric coordinates.

v 7.580032 -0.466204 9.377728
v 8.105414 -1.059030 9.185528
v 8.175344 -0.007434 8.874755
v 7.868462 0.178952 9.054462
v 7.367070 -2.579768 9.260952
v 7.653908 -2.850657 9.080733
v 7.911325 -1.828947 9.214022
v 7.663929 -1.692067 9.353090
v 4.065516 7.442630 12.677205
v 3.703563 6.778309 12.949048
v 3.745137 6.618301 12.759125
v 4.063095 7.189691 12.482240
v 4.417286 9.312029 12.011045
v 4.320868 8.422781 12.387175
v 4.358386 7.994897 12.181481
v 4.581195 8.715490 11.771360
v 7.880474 0.601707 10.497993
v 7.130503 2.153767 11.139642
v 6.939202 2.061621 10.963192
v 7.629486 0.544896 10.184374
v 7.994540 0.116720 9.443727
v 7.644010 0.097812 9.563555
v 6.965305 -1.001426 10.132055
v 6.266258 0.663807 11.142536
v 6.161923 0.276499 11.264888
v 6.908018 -1.507542 10.070161
v 7.039147 -2.088352 9.544633
v 7.014613 -2.793237 9.518302
v 7.029708 -3.513242 9.200694
v 7.386862 -0.550445 9.585930
v 7.220266 -1.163664 9.583839
v 6.471866 1.215505 11.161456
v 6.706829 1.721801 11.017795
v 5.880580 3.687945 11.412740
v 5.713109 3.052443 11.613918
v 7.607526 -1.277886 10.491222
v 8.047978 -2.438969 9.456438
v 7.704720 -3.028960 9.464422
v 7.310051 -1.676625 10.417436
v 6.953817 1.048918 11.495559
v 7.144346 1.599308 11.317202
v 8.042219 -0.165797 10.491496
v 7.878850 -0.711061 10.466981
v 6.685287 0.515483 11.432299
v 8.468330 -1.095762 9.365103
v 8.311181 -1.663798 9.440730
v 6.223319 0.079570 11.292690
v 7.048079 -1.752665 10.414515
v 7.327967 -3.146035 9.478903
v 4.726493 5.417742 12.470732
v 5.000169 6.333984 12.203602
v 6.177193 3.813076 11.815770
v 6.038757 3.082614 12.038763
v 6.191400 4.341063 11.450917
v 5.218462 6.911570 11.766454
v 5.165098 6.398433 11.685189
v 6.051324 4.114438 11.414925
v 4.661335 5.119242 12.142289
v 4.941001 5.876509 11.855258
v 5.532685 2.434516 11.818374
v 4.358400 4.572061 12.403435
v 4.111579 4.284951 12.612631
v 5.408488 2.043069 11.997147
v 5.429626 1.892001 12.247832
v 3.962734 4.249384 12.773873
v 4.030729 4.373813 12.808876
v 5.564332 2.035414 12.285113
v 5.800663 2.448865 12.206279
v 4.316536 4.831717 12.700065
v 8.603356 -1.364982 8.759420
v 8.842370 -0.412554 8.484153
v 8.414331 -2.102031 8.970567
v 8.024822 -3.072872 8.917181
v 7.297010 -3.653925 9.064325
v 7.685252 -3.849329 8.896856
v 3.276592 6.169432 13.220770
v 3.356960 6.088599 13.070093
v 3.535712 6.863902 13.097605
v 3.066890 6.176767 13.382342
v 3.905586 7.602661 12.843187
v 4.138485 8.598359 12.572604
v 4.183409 9.631882 12.244550
v 7.211646 2.003959 11.214130
v 6.247728 4.256905 11.595489
v 8.046851 0.351257 10.472229
v 8.334860 -0.232423 9.337849
v 7.155846 -0.370805 10.138281
v 7.375522 0.158927 10.190122
v 6.410560 0.185078 11.520293
v 5.186968 6.814961 11.952582
vt 0.889877 0.693830
vt 0.889877 0.598130
vt 0.929326 0.598130
vt 0.929326 0.693830
vt 0.889877 0.884158
vt 0.889877 0.789531
vt 0.929326 0.789531
vt 0.929326 0.884158
vt 0.068635 0.301229
vt 0.024980 0.301229
vt 0.024980 0.203341
vt 0.068635 0.203341
vt 0.068635 0.499391
vt 0.024980 0.499391
vt 0.024980 0.400310
vt 0.068635 0.400310
vt 0.596847 0.548760
vt 0.596847 0.598130
vt 0.451014 0.598130
vt 0.451014 0.548760
vt 0.889877 0.548760
vt 0.743362 0.598130
vt 0.743362 0.548760
vt 0.596847 0.884158
vt 0.596847 0.978786
vt 0.451013 0.978786
vt 0.451013 0.884158
vt 0.889877 0.978786
vt 0.743362 0.978786
vt 0.743362 0.884158
vt 0.743362 0.789531
vt 0.743362 0.693830
vt 0.451014 0.789531
vt 0.305180 0.789531
vt 0.305180 0.693830
vt 0.451014 0.693830
vt 0.596847 0.203341
vt 0.596846 0.105452
vt 0.743362 0.105452
vt 0.743362 0.203341
vt 0.451014 0.301229
vt 0.596847 0.301229
vt 0.596847 0.400310
vt 0.451013 0.400310
vt 0.451013 0.203341
vt 0.743362 0.301229
vt 0.743362 0.400310
vt 0.451014 0.023741
vt 0.596847 0.023741
vt 0.596847 0.064597
vt 0.451013 0.064597
vt 0.743362 0.023741
vt 0.743362 0.064597
vt 0.208736 0.301229
vt 0.305180 0.301229
vt 0.305180 0.400310
vt 0.208736 0.400310
vt 0.305180 0.548760
vt 0.305180 0.598130
vt 0.208736 0.598130
vt 0.208736 0.548760
vt 0.208736 0.789531
vt 0.112291 0.789531
vt 0.112291 0.693830
vt 0.208736 0.693830
vt 0.305180 0.884158
vt 0.305180 0.978786
vt 0.208736 0.978786
vt 0.208736 0.884158
vt 0.305180 0.064597
vt 0.305180 0.105452
vt 0.208736 0.105452
vt 0.208736 0.064597
vt 0.305180 0.203341
vt 0.208736 0.203341
vt 0.968775 0.598130
vt 0.968775 0.693830
vt 0.968774 0.789531
vt 0.968774 0.884158
vt 0.968774 0.978786
vt 0.929326 0.978786
vt 0.024980 0.105452
vt 0.068635 0.105452
vt 0.112291 0.105452
vt 0.112291 0.203341
vt 0.112291 0.301229
vt 0.112291 0.400310
vt 0.112291 0.499391
vt 0.305180 0.499391
vt 0.451014 0.499391
vt 0.596847 0.499391
vt 0.743362 0.499391
vt 0.889877 0.499391
vt 0.596847 0.789531
vt 0.596847 0.693830
vt 0.889877 0.105452
vt 0.889877 0.203341
vt 0.889877 0.301229
vt 0.451013 0.105452
vt 0.889877 0.400310
vt 0.305180 0.023741
vt 0.889877 0.023741
vt 0.889877 0.064597
vt 0.208735 0.499391
vt 0.112291 0.598130
vt 0.112291 0.548760
vt 0.112291 0.978786
vt 0.112291 0.884158
vt 0.112291 0.064597
vt 0.112291 0.023741
vt 0.208736 0.023741
vn -0.639714 -0.112014 -0.760407
vn -0.635262 -0.120346 -0.762862
vn -0.643650 -0.108975 -0.757522
vn -0.650181 -0.098351 -0.753387
vn -0.613016 0.088194 -0.785133
vn -0.632674 -0.006019 -0.774395
vn -0.636885 0.000309 -0.770959
vn -0.609386 0.084272 -0.788383
vn -0.814699 0.131160 -0.564857
vn -0.894217 0.230722 -0.383593
vn -0.834897 0.305311 -0.457965
vn -0.755486 0.196976 -0.624853
vn -0.862467 -0.085608 -0.498820
vn -0.919361 -0.009780 -0.393294
vn -0.922572 0.077560 -0.377949
vn -0.854478 -0.005582 -0.519458
vn 0.158680 0.418692 -0.894158
vn -0.356388 0.136567 -0.924304
vn -0.274603 0.070925 -0.958938
vn 0.313643 0.300282 -0.900810
vn 0.537291 0.809166 0.237843
vn -0.286676 0.825905 -0.485487
vn -0.402623 0.444783 -0.800039
vn 0.417910 0.845881 -0.331417
vn -0.706739 -0.104791 -0.699670
vn -0.947906 -0.295684 0.118515
vn -0.946532 -0.295918 -0.128489
vn -0.695226 -0.103189 -0.711346
vn -0.704028 0.022770 -0.709807
vn -0.892915 -0.407918 0.190542
vn -0.918146 -0.346134 0.192872
vn -0.703365 -0.041211 -0.709633
vn -0.628381 -0.073882 -0.774389
vn -0.565823 -0.066998 -0.821800
vn -0.588937 -0.067529 -0.805353
vn -0.603028 -0.047669 -0.796295
vn -0.620364 -0.066866 -0.781459
vn -0.613824 -0.081690 -0.785205
vn -0.558015 -0.063256 -0.827417
vn -0.537846 -0.035555 -0.842293
vn 0.545243 -0.022708 0.837970
vn 0.291505 -0.103449 0.950959
vn 0.533939 -0.314597 0.784817
vn 0.813206 -0.166943 0.557518
vn 0.565696 0.103501 0.818093
vn 0.696615 0.056268 0.715235
vn 0.840341 0.179609 0.511437
vn 0.733839 0.210022 0.646042
vn 0.545243 -0.022708 0.837970
vn 0.696615 0.056268 0.715235
vn 0.565696 0.103501 0.818093
vn 0.411656 0.015275 0.911211
vn 0.840341 0.179609 0.511437
vn 0.696615 0.056268 0.715235
vn 0.884042 -0.091184 0.458427
vn 0.924687 0.048950 0.377569
vn -0.946532 -0.295918 -0.128489
vn -0.947906 -0.295684 0.118515
vn -0.230629 -0.227828 0.945994
vn -0.459053 -0.301246 0.835776
vn -0.230629 -0.227828 0.945994
vn -0.947906 -0.295684 0.118515
vn -0.918146 -0.346134 0.192872
vn -0.052549 -0.419952 0.906024
vn 0.500639 0.085255 0.861448
vn 0.523563 0.093981 0.846788
vn 0.670022 0.171560 0.722245
vn 0.614531 0.149443 0.774609
vn 0.576820 0.335175 -0.744940
vn -0.238122 0.061544 -0.969283
vn -0.084688 0.082474 -0.992988
vn 0.857027 0.364918 -0.363785
vn -0.588525 -0.096845 -0.802658
vn -0.569474 -0.102424 -0.815603
vn -0.598670 -0.128794 -0.790573
vn -0.583421 -0.103639 -0.805530
vn -0.646890 -0.100260 -0.755964
vn -0.838054 -0.241674 -0.489141
vn -0.706900 -0.210247 -0.675343
vn -0.586155 -0.101968 -0.803757
vn -0.682424 -0.406057 0.607796
vn 0.149828 -0.117700 0.981681
vn -0.035943 -0.265443 0.963456
vn -0.874926 -0.461261 -0.147452
vn 0.396978 0.020880 0.917591
vn 0.523563 0.093981 0.846788
vn 0.500639 0.085255 0.861448
vn 0.425566 0.033742 0.904298
vn -0.643650 -0.108975 -0.757522
vn -0.651890 -0.097580 -0.752009
vn -0.660424 -0.084653 -0.746106
vn -0.650181 -0.098351 -0.753387
vn -0.660424 -0.084653 -0.746106
vn -0.641047 0.006630 -0.767473
vn -0.636885 0.000309 -0.770959
vn -0.650181 -0.098351 -0.753387
vn -0.636885 0.000309 -0.770959
vn -0.632674 -0.006019 -0.774395
vn -0.639714 -0.112014 -0.760407
vn -0.650181 -0.098351 -0.753387
vn -0.636885 0.000309 -0.770959
vn -0.641047 0.006630 -0.767473
vn -0.605732 0.080348 -0.791601
vn -0.609386 0.084272 -0.788383
vn -0.605732 0.080348 -0.791601
vn -0.603036 0.075782 -0.794106
vn -0.607066 0.080239 -0.790590
vn -0.609386 0.084272 -0.788383
vn -0.607066 0.080239 -0.790590
vn -0.611065 0.084694 -0.787036
vn -0.613016 0.088194 -0.785133
vn -0.609386 0.084272 -0.788383
vn -0.834897 0.305311 -0.457965
vn -0.752951 -0.045763 -0.656483
vn -0.811655 -0.102781 -0.575023
vn -0.755486 0.196976 -0.624853
vn -0.811655 -0.102781 -0.575023
vn -0.931980 -0.306755 -0.193169
vn -0.641584 0.079768 -0.762894
vn -0.755486 0.196976 -0.624853
vn -0.641584 0.079768 -0.762894
vn -0.695337 0.025278 -0.718239
vn -0.814699 0.131160 -0.564857
vn -0.755486 0.196976 -0.624853
vn -0.922572 0.077560 -0.377949
vn -0.894217 0.230722 -0.383593
vn -0.814699 0.131160 -0.564857
vn -0.854478 -0.005582 -0.519458
vn -0.814699 0.131160 -0.564857
vn -0.695337 0.025278 -0.718239
vn -0.759374 -0.088570 -0.644597
vn -0.854478 -0.005582 -0.519458
vn -0.759374 -0.088570 -0.644597
vn -0.788218 -0.159715 -0.594309
vn -0.862467 -0.085608 -0.498820
vn -0.854478 -0.005582 -0.519458
vn -0.274603 0.070925 -0.958938
vn -0.238122 0.061544 -0.969283
vn 0.576820 0.335175 -0.744940
vn 0.313643 0.300282 -0.900810
vn 0.576820 0.335175 -0.744940
vn 0.910652 0.328416 0.250711
vn 0.908601 0.412483 -0.065589
vn 0.313643 0.300282 -0.900810
vn 0.908601 0.412483 -0.065589
vn 0.857848 0.471948 -0.203377
vn 0.158680 0.418692 -0.894158
vn 0.313643 0.300282 -0.900810
vn -0.402623 0.444783 -0.800039
vn -0.356388 0.136567 -0.924304
vn 0.158680 0.418692 -0.894158
vn 0.417910 0.845881 -0.331417
vn 0.158680 0.418692 -0.894158
vn 0.857848 0.471948 -0.203377
vn 0.878718 0.467221 0.097771
vn 0.417910 0.845881 -0.331417
vn 0.878718 0.467221 0.097771
vn 0.846071 0.402902 0.349047
vn 0.537291 0.809166 0.237843
vn 0.417910 0.845881 -0.331417
vn -0.946532 -0.295918 -0.128489
vn -0.838054 -0.241674 -0.489141
vn -0.646890 -0.100260 -0.755964
vn -0.695226 -0.103189 -0.711346
vn -0.646890 -0.100260 -0.755964
vn -0.613824 -0.081690 -0.785205
vn -0.620364 -0.066866 -0.781459
vn -0.695226 -0.103189 -0.711346
vn -0.620364 -0.066866 -0.781459
vn -0.615985 -0.064791 -0.785089
vn -0.706739 -0.104791 -0.699670
vn -0.695226 -0.103189 -0.711346
vn -0.918146 -0.346134 0.192872
vn -0.947906 -0.295684 0.118515
vn -0.706739 -0.104791 -0.699670
vn -0.703365 -0.041211 -0.709633
vn -0.706739 -0.104791 -0.699670
vn -0.615985 -0.064791 -0.785089
vn -0.588937 -0.067529 -0.805353
vn -0.703365 -0.041211 -0.709633
vn -0.588937 -0.067529 -0.805353
vn -0.565823 -0.066998 -0.821800
vn -0.704028 0.022770 -0.709807
vn -0.703365 -0.041211 -0.709633
vn -0.588937 -0.067529 -0.805353
vn -0.615985 -0.064791 -0.785089
vn -0.552225 -0.022207 -0.833399
vn -0.603028 -0.047669 -0.796295
vn -0.552225 -0.022207 -0.833399
vn -0.356388 0.136567 -0.924304
vn -0.402623 0.444783 -0.800039
vn -0.603028 -0.047669 -0.796295
vn -0.402623 0.444783 -0.800039
vn -0.286676 0.825905 -0.485487
vn -0.628381 -0.073882 -0.774389
vn -0.603028 -0.047669 -0.796295
vn -0.558015 -0.063256 -0.827417
vn -0.238122 0.061544 -0.969283
vn -0.274603 0.070925 -0.958938
vn -0.537846 -0.035555 -0.842293
vn -0.274603 0.070925 -0.958938
vn -0.356388 0.136567 -0.924304
vn -0.552225 -0.022207 -0.833399
vn -0.537846 -0.035555 -0.842293
vn -0.552225 -0.022207 -0.833399
vn -0.615985 -0.064791 -0.785089
vn -0.620364 -0.066866 -0.781459
vn -0.537846 -0.035555 -0.842293
vn 0.533939 -0.314597 0.784817
vn 0.647460 -0.500817 0.574437
vn 0.913649 -0.265411 0.307901
vn 0.813206 -0.166943 0.557518
vn 0.913649 -0.265411 0.307901
vn 0.944219 -0.187949 0.270417
vn 0.884042 -0.091184 0.458427
vn 0.813206 -0.166943 0.557518
vn 0.884042 -0.091184 0.458427
vn 0.696615 0.056268 0.715235
vn 0.545243 -0.022708 0.837970
vn 0.813206 -0.166943 0.557518
vn 0.840341 0.179609 0.511437
vn 0.857848 0.471948 -0.203377
vn 0.908601 0.412483 -0.065589
vn 0.733839 0.210022 0.646042
vn 0.908601 0.412483 -0.065589
vn 0.910652 0.328416 0.250711
vn 0.670022 0.171560 0.722245
vn 0.733839 0.210022 0.646042
vn 0.670022 0.171560 0.722245
vn 0.523563 0.093981 0.846788
vn 0.565696 0.103501 0.818093
vn 0.733839 0.210022 0.646042
vn 0.565696 0.103501 0.818093
vn 0.523563 0.093981 0.846788
vn 0.396978 0.020880 0.917591
vn 0.411656 0.015275 0.911211
vn 0.396978 0.020880 0.917591
vn 0.149828 -0.117700 0.981681
vn 0.171170 -0.097958 0.980360
vn 0.411656 0.015275 0.911211
vn 0.171170 -0.097958 0.980360
vn 0.291505 -0.103449 0.950959
vn 0.545243 -0.022708 0.837970
vn 0.411656 0.015275 0.911211
vn 0.884042 -0.091184 0.458427
vn 0.944219 -0.187949 0.270417
vn 0.942464 -0.037456 0.332204
vn 0.924687 0.048950 0.377569
vn 0.942464 -0.037456 0.332204
vn 0.846071 0.402902 0.349047
vn 0.878718 0.467221 0.097771
vn 0.924687 0.048950 0.377569
vn 0.878718 0.467221 0.097771
vn 0.857848 0.471948 -0.203377
vn 0.840341 0.179609 0.511437
vn 0.924687 0.048950 0.377569
vn -0.230629 -0.227828 0.945994
vn 0.291505 -0.103449 0.950959
vn 0.171170 -0.097958 0.980360
vn -0.459053 -0.301246 0.835776
vn 0.171170 -0.097958 0.980360
vn 0.149828 -0.117700 0.981681
vn -0.682424 -0.406057 0.607796
vn -0.459053 -0.301246 0.835776
vn -0.682424 -0.406057 0.607796
vn -0.838054 -0.241674 -0.489141
vn -0.946532 -0.295918 -0.128489
vn -0.459053 -0.301246 0.835776
vn -0.918146 -0.346134 0.192872
vn -0.892915 -0.407918 0.190542
vn 0.022649 -0.611392 0.791004
vn -0.052549 -0.419952 0.906024
vn 0.022649 -0.611392 0.791004
vn 0.647460 -0.500817 0.574437
vn 0.533939 -0.314597 0.784817
vn -0.052549 -0.419952 0.906024
vn 0.533939 -0.314597 0.784817
vn 0.291505 -0.103449 0.950959
vn -0.230629 -0.227828 0.945994
vn -0.052549 -0.419952 0.906024
vn 0.670022 0.171560 0.722245
vn 0.910652 0.328416 0.250711
vn 0.830621 0.270485 0.486731
vn 0.614531 0.149443 0.774609
vn 0.830621 0.270485 0.486731
vn 0.780976 0.266003 0.565083
vn 0.582587 0.153824 0.798079
vn 0.614531 0.149443 0.774609
vn 0.582587 0.153824 0.798079
vn 0.484464 0.087941 0.870380
vn 0.500639 0.085255 0.861448
vn 0.614531 0.149443 0.774609
vn -0.084688 0.082474 -0.992988
vn 0.092741 0.107752 -0.989843
vn 0.924617 0.356463 -0.134230
vn 0.857027 0.364918 -0.363785
vn 0.924617 0.356463 -0.134230
vn 0.780976 0.266003 0.565083
vn 0.830621 0.270485 0.486731
vn 0.857027 0.364918 -0.363785
vn 0.830621 0.270485 0.486731
vn 0.910652 0.328416 0.250711
vn 0.576820 0.335175 -0.744940
vn 0.857027 0.364918 -0.363785
vn -0.598670 -0.128794 -0.790573
vn 0.092741 0.107752 -0.989843
vn -0.084688 0.082474 -0.992988
vn -0.583421 -0.103639 -0.805530
vn -0.084688 0.082474 -0.992988
vn -0.238122 0.061544 -0.969283
vn -0.558015 -0.063256 -0.827417
vn -0.583421 -0.103639 -0.805530
vn -0.558015 -0.063256 -0.827417
vn -0.613824 -0.081690 -0.785205
vn -0.588525 -0.096845 -0.802658
vn -0.583421 -0.103639 -0.805530
vn -0.706900 -0.210247 -0.675343
vn -0.752951 -0.045763 -0.656483
vn -0.555160 -0.104564 -0.825145
vn -0.586155 -0.101968 -0.803757
vn -0.555160 -0.104564 -0.825145
vn -0.569474 -0.102424 -0.815603
vn -0.588525 -0.096845 -0.802658
vn -0.586155 -0.101968 -0.803757
vn -0.588525 -0.096845 -0.802658
vn -0.613824 -0.081690 -0.785205
vn -0.646890 -0.100260 -0.755964
vn -0.586155 -0.101968 -0.803757
vn -0.035943 -0.265443 0.963456
vn -0.931980 -0.306755 -0.193169
vn -0.811655 -0.102781 -0.575023
vn -0.874926 -0.461261 -0.147452
vn -0.811655 -0.102781 -0.575023
vn -0.752951 -0.045763 -0.656483
vn -0.706900 -0.210247 -0.675343
vn -0.874926 -0.461261 -0.147452
vn -0.706900 -0.210247 -0.675343
vn -0.838054 -0.241674 -0.489141
vn -0.682424 -0.406057 0.607796
vn -0.874926 -0.461261 -0.147452
vn 0.500639 0.085255 0.861448
vn 0.484464 0.087941 0.870380
vn 0.443340 0.047160 0.895112
vn 0.425566 0.033742 0.904298
vn 0.443340 0.047160 0.895112
vn -0.931980 -0.306755 -0.193169
vn -0.035943 -0.265443 0.963456
vn 0.425566 0.033742 0.904298
vn -0.035943 -0.265443 0.963456
vn 0.149828 -0.117700 0.981681
vn 0.396978 0.020880 0.917591
vn 0.425566 0.033742 0.904298
s off
f 1/1/1 4/2/2 3/3/3 2/4/4
f 5/5/5 8/6/6 7/7/7 6/8/8
f 9/9/9 12/10/10 11/11/11 10/12/12
f 13/13/13 16/14/14 15/15/15 14/16/16
f 17/17/17 20/18/18 19/19/19 18/20/20
f 3/21/21 4/2/22 22/22/23 21/23/24
f 23/24/25 26/25/26 25/26/27 24/27/28
f 5/5/29 29/28/30 28/29/31 27/30/32
f 1/1/33 8/6/34 31/31/35 30/32/36
f 32/33/37 35/34/38 34/35/39 33/36/40
f 36/37/41 39/38/42 38/39/43 37/40/44
f 40/41/45 43/42/46 42/43/47 41/44/48
f 36/37/49 43/42/50 40/41/51 44/45/52
f 42/43/53 43/42/54 46/46/55 45/47/56
f 25/48/57 26/49/58 48/50/59 47/51/60
f 48/50/61 26/49/62 28/52/63 49/53/64
f 50/54/65 53/55/66 52/56/67 51/57/68
f 54/58/69 57/59/70 56/60/71 55/61/72
f 58/62/73 12/63/74 15/64/75 59/65/76
f 60/66/77 63/67/78 62/68/79 61/69/80
f 64/70/81 67/71/82 66/72/83 65/73/84
f 68/74/85 53/55/86 50/54/87 69/75/88
f 3/3/89 71/76/90 70/77/91 2/4/92
f 70/77/93 72/78/94 7/7/95 2/4/96
f 7/7/97 8/6/98 1/1/99 2/4/100
f 7/7/101 72/78/102 73/79/103 6/8/104
f 73/79/105 75/80/106 74/81/107 6/8/108
f 74/81/109 29/28/110 5/5/111 6/8/112
f 11/11/113 77/82/114 76/83/115 10/12/116
f 76/83/117 79/84/118 78/85/119 10/12/120
f 78/85/121 80/86/122 9/9/123 10/12/124
f 15/15/125 12/10/126 9/9/127 14/16/128
f 9/9/129 80/86/130 81/87/131 14/16/132
f 81/87/133 82/88/134 13/13/135 14/16/136
f 19/19/137 57/59/138 54/58/139 18/20/140
f 54/58/141 84/89/142 83/90/143 18/20/144
f 83/90/145 85/91/146 17/17/147 18/20/148
f 22/22/149 20/18/150 17/17/151 21/23/152
f 17/17/153 85/91/154 86/92/155 21/23/156
f 86/92/157 71/93/158 3/21/159 21/23/160
f 25/26/161 63/67/162 60/66/163 24/27/164
f 60/66/165 35/34/166 32/33/167 24/27/168
f 32/33/169 87/94/170 23/24/171 24/27/172
f 28/29/173 26/25/174 23/24/175 27/30/176
f 23/24/177 87/94/178 31/31/179 27/30/180
f 31/31/181 8/6/182 5/5/183 27/30/184
f 31/31/185 87/94/186 88/95/187 30/32/188
f 88/95/189 20/18/190 22/22/191 30/32/192
f 22/22/193 4/2/194 1/1/195 30/32/196
f 34/35/197 57/59/198 19/19/199 33/36/200
f 19/19/201 20/18/202 88/95/203 33/36/204
f 88/95/205 87/94/206 32/33/207 33/36/208
f 38/39/209 75/96/210 73/97/211 37/40/212
f 73/97/213 72/98/214 46/46/215 37/40/216
f 46/46/217 43/42/218 36/37/219 37/40/220
f 42/43/221 85/91/222 83/90/223 41/44/224
f 83/90/225 84/89/226 52/56/227 41/44/228
f 52/56/229 53/55/230 40/41/231 41/44/232
f 40/41/233 53/55/234 68/74/235 44/45/236
f 68/74/237 67/71/238 89/99/239 44/45/240
f 89/99/241 39/38/242 36/37/243 44/45/244
f 46/46/245 72/98/246 70/100/247 45/47/248
f 70/100/249 71/93/250 86/92/251 45/47/252
f 86/92/253 85/91/254 42/43/255 45/47/256
f 48/50/257 39/38/258 89/99/259 47/51/260
f 89/99/261 67/71/262 64/70/263 47/51/264
f 64/70/265 63/101/266 25/48/267 47/51/268
f 28/52/269 29/102/270 74/103/271 49/53/272
f 74/103/273 75/96/274 38/39/275 49/53/276
f 38/39/277 39/38/278 48/50/279 49/53/280
f 52/56/281 84/89/282 90/104/283 51/57/284
f 90/104/285 82/88/286 81/87/287 51/57/288
f 81/87/289 80/86/290 50/54/291 51/57/292
f 56/60/293 16/105/294 13/106/295 55/61/296
f 13/106/297 82/88/298 90/104/299 55/61/300
f 90/104/301 84/89/302 54/58/303 55/61/304
f 15/64/305 16/105/306 56/60/307 59/65/308
f 56/60/309 57/59/310 34/35/311 59/65/312
f 34/35/313 35/34/314 58/62/315 59/65/316
f 62/68/317 77/107/318 11/108/319 61/69/320
f 11/108/321 12/63/322 58/62/323 61/69/324
f 58/62/325 35/34/326 60/66/327 61/69/328
f 66/72/329 79/84/330 76/109/331 65/73/332
f 76/109/333 77/110/334 62/111/335 65/73/336
f 62/111/337 63/101/338 64/70/339 65/73/340
f 50/54/341 80/86/342 78/85/343 69/75/344
f 78/85/345 79/84/346 66/72/347 69/75/348
f 66/72/349 67/71/350 68/74/351 69/75/352
