# This file uses millimeters as units for non-parametric coordinates.

v -2.445820 -1.002834 3.780972
v -2.335500 -1.421797 4.455361
v -2.106455 -1.635268 4.291246
v -2.162369 -1.136719 3.652104
v -2.234005 -0.759152 3.160553
v -2.535168 -0.866299 3.373490
v -3.309011 -2.014873 6.455534
v -3.047446 -2.137503 6.653687
v -2.310418 -2.004196 5.489986
v -2.702902 -1.751542 5.474584
v -5.471054 1.167686 8.230989
v -5.261587 1.398151 8.752564
v -5.015203 0.224576 8.396796
v -5.361447 0.030582 8.021690
v -4.929468 -1.123679 7.571240
v -4.732360 -1.020352 7.990248
v -4.082623 -1.927228 7.444224
v -4.341541 -1.815916 7.232339
v -5.695203 3.350887 7.546985
v -5.711494 3.509789 8.108272
v -5.444202 2.616304 8.574473
v -5.558323 2.513443 8.055514
v -6.473414 4.724294 6.199175
v -6.417781 4.770667 6.991693
v -6.021004 4.171102 7.601161
v -6.040587 4.179627 6.904682
v -1.989525 -2.316987 5.329363
v -2.637308 -1.405327 4.803506
v -2.673279 -1.027063 4.099236
v -2.740077 -0.916163 3.573905
v -2.525426 -0.838028 2.872663
v -2.806800 -0.831902 3.035149
v -2.244229 -0.856685 2.701736
v -2.629467 -2.520645 6.979807
v -3.952151 -2.298516 7.922537
v -5.059464 1.599407 9.251514
v -4.862606 0.330001 8.934221
v -5.245399 3.035137 9.247766
v -4.511708 -1.005524 8.354445
v -5.579781 3.629729 8.823882
v -5.914162 4.224321 8.399998
v -6.267673 4.713849 8.038728
v -6.763713 5.236168 6.585563
v -6.621182 5.203377 7.677456
v -6.906243 5.268962 5.493669
vt 0.832256 0.504442
vt 0.770179 0.487264
vt 0.766710 0.406734
vt 0.833850 0.406734
vt 0.899984 0.406734
vt 0.891145 0.523055
vt 0.634056 0.600716
vt 0.632954 0.491895
vt 0.700568 0.496652
vt 0.699570 0.600716
vt 0.371589 0.600715
vt 0.371128 0.501544
vt 0.436795 0.502265
vt 0.437550 0.600715
vt 0.503046 0.600716
vt 0.500951 0.500068
vt 0.567748 0.499853
vt 0.568543 0.600716
vt 0.235897 0.600715
vt 0.232837 0.511894
vt 0.303806 0.505222
vt 0.305629 0.600715
vt 0.100072 0.600715
vt 0.093532 0.511578
vt 0.164675 0.507730
vt 0.166165 0.600715
vt 0.699570 0.406734
vt 0.766709 0.600716
vt 0.833849 0.600716
vt 0.899984 0.600716
vt 0.966119 0.503725
vt 0.966119 0.600716
vt 0.966119 0.406734
vt 0.634056 0.406734
vt 0.568543 0.406734
vt 0.371590 0.406734
vt 0.437550 0.406734
vt 0.305629 0.406734
vt 0.503047 0.406734
vt 0.235897 0.406734
vt 0.166165 0.406734
vt 0.100072 0.406734
vt 0.033980 0.503725
vt 0.033980 0.406734
vt 0.033980 0.600715
vn 0.380791 0.808441 0.448800
vn 0.597926 0.689600 0.408579
vn 0.694877 0.608625 0.383043
vn 0.447907 0.738676 0.503723
vn 0.006130 0.946866 0.321570
vn 0.031662 0.953170 0.300772
vn 0.380791 0.808441 0.448800
vn 0.447907 0.738676 0.503723
vn 0.410114 0.899253 0.152154
vn 0.508281 0.834141 0.214148
vn 0.574101 0.747257 0.334687
vn 0.452816 0.819441 0.351389
vn 0.892520 0.083074 -0.443291
vn 0.909783 0.104761 -0.401646
vn 0.847098 0.223500 -0.482154
vn 0.774991 0.227149 -0.589739
vn 0.689740 0.495516 -0.527942
vn 0.801537 0.435144 -0.410107
vn 0.669579 0.737083 -0.091503
vn 0.546647 0.808525 -0.217862
vn 0.959949 0.266186 -0.087424
vn 0.948981 0.268349 -0.165601
vn 0.951544 0.129564 -0.278885
vn 0.969286 0.107574 -0.221160
vn 0.836515 0.542934 -0.073929
vn 0.843998 0.528771 -0.089830
vn 0.893335 0.437625 -0.102162
vn 0.886743 0.459359 -0.051723
vn 0.694877 0.608625 0.383043
vn 0.597926 0.689600 0.408579
vn 0.574101 0.747257 0.334687
vn 0.683849 0.659924 0.311208
vn 0.574101 0.747257 0.334687
vn 0.597926 0.689600 0.408579
vn 0.491428 0.758902 0.427277
vn 0.452816 0.819441 0.351389
vn 0.491428 0.758902 0.427277
vn 0.597926 0.689600 0.408579
vn 0.380791 0.808441 0.448800
vn 0.309120 0.868071 0.388456
vn 0.380791 0.808441 0.448800
vn 0.031662 0.953170 0.300772
vn 0.055700 0.958132 0.280857
vn 0.309120 0.868071 0.388456
vn 0.055700 0.958132 0.280857
vn 0.031662 0.953170 0.300772
vn -0.114776 0.981466 0.153464
vn -0.004362 0.970703 0.240242
vn -0.114776 0.981466 0.153464
vn 0.031662 0.953170 0.300772
vn 0.006130 0.946866 0.321570
vn -0.222912 0.972759 0.063642
vn 0.574101 0.747257 0.334687
vn 0.508281 0.834141 0.214148
vn 0.596729 0.754983 0.271875
vn 0.683849 0.659924 0.311208
vn 0.596729 0.754983 0.271875
vn 0.508281 0.834141 0.214148
vn 0.669579 0.737083 -0.091503
vn 0.768846 0.638242 0.039025
vn 0.669579 0.737083 -0.091503
vn 0.508281 0.834141 0.214148
vn 0.410114 0.899253 0.152154
vn 0.546647 0.808525 -0.217862
vn 0.847098 0.223500 -0.482154
vn 0.909783 0.104761 -0.401646
vn 0.924630 0.125971 -0.359430
vn 0.904692 0.216154 -0.367165
vn 0.924630 0.125971 -0.359430
vn 0.909783 0.104761 -0.401646
vn 0.951544 0.129564 -0.278885
vn 0.929965 0.150934 -0.335236
vn 0.951544 0.129564 -0.278885
vn 0.909783 0.104761 -0.401646
vn 0.892520 0.083074 -0.443291
vn 0.969286 0.107574 -0.221160
vn 0.669579 0.737083 -0.091503
vn 0.801537 0.435144 -0.410107
vn 0.888769 0.362232 -0.280851
vn 0.768846 0.638242 0.039025
vn 0.888769 0.362232 -0.280851
vn 0.801537 0.435144 -0.410107
vn 0.847098 0.223500 -0.482154
vn 0.904692 0.216154 -0.367165
vn 0.847098 0.223500 -0.482154
vn 0.801537 0.435144 -0.410107
vn 0.689740 0.495516 -0.527942
vn 0.774991 0.227149 -0.589739
vn 0.951544 0.129564 -0.278885
vn 0.948981 0.268349 -0.165601
vn 0.932151 0.268839 -0.242529
vn 0.929965 0.150934 -0.335236
vn 0.932151 0.268839 -0.242529
vn 0.948981 0.268349 -0.165601
vn 0.893335 0.437625 -0.102162
vn 0.897192 0.414570 -0.152245
vn 0.893335 0.437625 -0.102162
vn 0.948981 0.268349 -0.165601
vn 0.959949 0.266186 -0.087424
vn 0.886743 0.459359 -0.051723
vn 0.893335 0.437625 -0.102162
vn 0.843998 0.528771 -0.089830
vn 0.851052 0.514334 -0.105692
vn 0.897192 0.414570 -0.152245
vn 0.851052 0.514334 -0.105692
vn 0.843998 0.528771 -0.089830
vn 0.836015 0.540968 -0.091825
vn 0.837133 0.539218 -0.091942
vn 0.836015 0.540968 -0.091825
vn 0.843998 0.528771 -0.089830
vn 0.836515 0.542934 -0.073929
vn 0.834894 0.542717 -0.091708
s off
f 1/1/1 2/2/2 3/3/3 4/4/4
f 5/5/5 6/6/6 1/1/7 4/4/8
f 7/7/9 8/8/10 9/9/11 10/10/12
f 11/11/13 12/12/14 13/13/15 14/14/16
f 15/15/17 16/16/18 17/17/19 18/18/20
f 19/19/21 20/20/22 21/21/23 22/22/24
f 23/23/25 24/24/26 25/25/27 26/26/28
f 3/3/29 2/2/30 9/9/31 27/27/32
f 9/9/33 2/2/34 28/28/35 10/10/36
f 28/28/37 2/2/38 1/1/39 29/29/40
f 1/1/41 6/6/42 30/30/43 29/29/44
f 30/30/45 6/6/46 31/31/47 32/32/48
f 31/31/49 6/6/50 5/5/51 33/33/52
f 9/9/53 8/8/54 34/34/55 27/27/56
f 34/34/57 8/8/58 17/17/59 35/35/60
f 17/17/61 8/8/62 7/7/63 18/18/64
f 13/13/65 12/12/66 36/36/67 37/37/68
f 36/36/69 12/12/70 21/21/71 38/38/72
f 21/21/73 12/12/74 11/11/75 22/22/76
f 17/17/77 16/16/78 39/39/79 35/35/80
f 39/39/81 16/16/82 13/13/83 37/37/84
f 13/13/85 16/16/86 15/15/87 14/14/88
f 21/21/89 20/20/90 40/40/91 38/38/92
f 40/40/93 20/20/94 25/25/95 41/41/96
f 25/25/97 20/20/98 19/19/99 26/26/100
f 25/25/101 24/24/102 42/42/103 41/41/104
f 42/42/105 24/24/106 43/43/107 44/44/108
f 43/43/109 24/24/110 23/23/111 45/45/112
