# This file uses millimeters as units for non-parametric coordinates.

v -0.645137 -2.160008 -1.184385
v -0.642868 -1.393645 -1.114613
v -0.000000 -1.455721 -1.007176
v -0.000000 -2.114083 -1.050532
v -0.630474 -3.150154 -0.179981
v -0.714953 -2.751060 -0.885938
v -0.000000 -2.698935 -0.732614
v -0.000000 -3.140321 -0.015191
v -0.594067 -3.345426 2.532950
v -0.617865 -3.546796 1.064862
v -0.000000 -3.507504 1.064523
v -0.000000 -3.748414 2.497825
v -0.542096 -3.045132 3.794546
v -0.662046 -3.311955 3.274190
v -0.000000 -3.511874 3.171724
v -0.000000 -3.146449 3.527770
v -0.500162 -1.754816 4.228263
v -0.463699 -2.441354 4.160901
v -0.000000 -2.489347 3.893901
v -0.000000 -1.683419 3.936248
v -0.598825 -0.900454 3.224465
v -0.621305 -1.215034 3.957121
v -0.000000 -1.258103 3.617445
v -0.000000 -0.863612 2.889969
v -0.660925 -0.651047 0.591585
v -0.640127 -0.866159 1.811902
v -0.000000 -0.916122 1.813052
v -0.000000 -0.724638 0.726571
v -0.656537 -0.862538 -0.723189
v -0.737051 -0.643322 -0.203205
v -0.000000 -0.732781 -0.094918
v -0.000000 -0.967844 -0.657025
v -0.546496 -1.720765 -0.028519
v -0.556488 -1.130309 0.282200
v -0.536062 -1.433373 1.645406
v -0.523225 -2.167021 1.435455
v -0.445890 -2.234486 3.067435
v -0.473733 -1.545998 3.156316
v 0.525595 -2.928210 1.223992
v 0.617865 -3.546796 1.064862
v 0.630474 -3.150152 -0.179981
v 0.543949 -2.447325 -0.176079
v 0.523225 -2.167021 1.435455
v 0.445890 -2.234486 3.067435
v 0.469632 -2.861516 2.827415
v -0.543949 -2.447325 -0.176079
v -0.525595 -2.928210 1.223992
v -0.469632 -2.861516 2.827415
v 0.536062 -1.433373 1.645406
v 0.546496 -1.720765 -0.028519
v 0.556488 -1.130309 0.282200
v 0.640127 -0.866159 1.811902
v 0.598825 -0.900454 3.224465
v 0.473733 -1.545998 3.156316
v 0.642868 -1.393645 -1.114613
v 0.645137 -2.160008 -1.184385
v 0.714953 -2.751060 -0.885938
v 0.594067 -3.345426 2.532950
v 0.662046 -3.311955 3.274190
v 0.542096 -3.045132 3.794546
v 0.463699 -2.441354 4.160901
v 0.500162 -1.754816 4.228263
v 0.621305 -1.215034 3.957121
v 0.660925 -0.651047 0.591585
v 0.737051 -0.643322 -0.203205
v 0.656537 -0.862538 -0.723189
vt 0.034667 0.164566
vt 0.034667 0.188255
vt 0.020544 0.188255
vt 0.020544 0.164566
vt 0.034667 0.118591
vt 0.034667 0.140876
vt 0.020544 0.140876
vt 0.020544 0.118591
vt 0.034667 0.075290
vt 0.034667 0.096306
vt 0.020544 0.096306
vt 0.020544 0.075290
vt 0.034667 0.029597
vt 0.034667 0.054274
vt 0.020544 0.054274
vt 0.020544 0.029597
vt 0.087194 0.029597
vt 0.087194 0.004920
vt 0.098255 0.004920
vt 0.098255 0.029597
vt 0.087194 0.075290
vt 0.087194 0.054274
vt 0.098255 0.054274
vt 0.098255 0.075290
vt 0.087194 0.118591
vt 0.087194 0.096306
vt 0.098255 0.096306
vt 0.098255 0.118591
vt 0.087194 0.164566
vt 0.087194 0.140876
vt 0.098255 0.140876
vt 0.098255 0.164566
vt 0.072600 0.144980
vt 0.058007 0.149084
vt 0.058007 0.122695
vt 0.072600 0.120643
vt 0.072600 0.096306
vt 0.058007 0.096306
vt 0.058007 0.069607
vt 0.072600 0.072449
vt 0.144966 0.096306
vt 0.157581 0.096306
vt 0.157581 0.118789
vt 0.144966 0.121635
vt 0.132350 0.096306
vt 0.132350 0.068860
vt 0.144966 0.071558
vt 0.046337 0.144980
vt 0.046337 0.120643
vt 0.046337 0.096306
vt 0.046337 0.072449
vt 0.120833 0.096306
vt 0.132350 0.124481
vt 0.120833 0.121536
vt 0.109317 0.096306
vt 0.109317 0.075290
vt 0.120833 0.072075
vt 0.006422 0.188255
vt 0.006422 0.164566
vt 0.006422 0.140876
vt 0.006422 0.118591
vt 0.006422 0.096306
vt 0.006422 0.075290
vt 0.006422 0.054274
vt 0.006422 0.029597
vt 0.006422 0.004920
vt 0.020544 0.004920
vt 0.034667 0.004920
vt 0.109317 0.004920
vt 0.109317 0.029597
vt 0.109317 0.054274
vt 0.109317 0.118591
vt 0.109317 0.140876
vt 0.109317 0.164566
vt 0.109317 0.188255
vt 0.098255 0.188255
vt 0.087194 0.188255
vt 0.058007 0.042908
vt 0.072600 0.048591
vt 0.157581 0.141271
vt 0.144966 0.146964
vt 0.132350 0.152656
vt 0.132350 0.041413
vt 0.144966 0.046811
vt 0.157581 0.052209
vt 0.157581 0.074257
vt 0.046337 0.048591
vt 0.120833 0.146766
vt 0.120833 0.047843
vn -0.725347 0.107325 -0.679965
vn -0.710937 0.440743 -0.548010
vn 0.000000 0.638638 -0.769508
vn 0.000000 0.082438 -0.996596
vn -0.753065 -0.529873 -0.390037
vn -0.376887 -0.445202 -0.812251
vn 0.000000 -0.479532 -0.877525
vn 0.000000 -0.764980 -0.644054
vn -0.786158 -0.551299 -0.279331
vn -0.758061 -0.555672 -0.341427
vn 0.000000 -0.850715 -0.525627
vn 0.000000 -0.917495 -0.397746
vn -0.737671 -0.550480 0.390913
vn -0.389747 -0.919814 -0.045166
vn 0.000000 -0.997047 -0.076797
vn 0.000000 -0.917583 0.397543
vn -0.696405 -0.154353 0.700853
vn -0.676832 -0.419474 0.604930
vn 0.000000 -0.605596 0.795772
vn 0.000000 -0.041727 0.999129
vn -0.774751 0.487275 0.402895
vn -0.363867 0.451416 0.814754
vn 0.000000 0.532975 0.846131
vn 0.000000 0.782838 0.622226
vn -0.789456 0.555331 0.261469
vn -0.770527 0.542889 0.334005
vn 0.000000 0.865757 0.500464
vn 0.000000 0.927286 0.374355
vn -0.749301 0.602914 -0.273939
vn -0.407747 0.906564 0.109017
vn 0.000000 0.991491 0.130178
vn 0.000000 0.951863 -0.306525
vn -0.749301 0.602914 -0.273939
vn -0.710937 0.440743 -0.548010
vn -0.997795 -0.050516 0.043055
vn -0.980926 -0.192491 -0.027038
vn -0.990434 -0.129463 -0.047752
vn -0.999709 -0.017150 0.016982
vn -0.999660 0.026013 0.001923
vn -0.986714 -0.132790 -0.093606
vn 0.993748 0.088660 0.067851
vn 0.758061 -0.555672 -0.341428
vn 0.753065 -0.529873 -0.390037
vn 0.991292 0.054818 0.119732
vn 0.993748 0.088660 0.067851
vn 0.999709 -0.017150 0.016982
vn 0.999660 0.026012 0.001923
vn 0.978262 0.199274 0.057390
vn -0.725347 0.107325 -0.679965
vn -0.376887 -0.445202 -0.812251
vn -0.753065 -0.529873 -0.390037
vn -0.991292 0.054818 0.119732
vn -0.993748 0.088660 0.067851
vn -0.758061 -0.555672 -0.341427
vn -0.786158 -0.551299 -0.279331
vn -0.978262 0.199274 0.057390
vn 0.990434 -0.129463 -0.047752
vn 0.999709 -0.017150 0.016982
vn 0.997795 -0.050516 0.043055
vn 0.980926 -0.192491 -0.027038
vn 0.990434 -0.129463 -0.047752
vn 0.770527 0.542889 0.334005
vn 0.774751 0.487275 0.402895
vn 0.986714 -0.132790 -0.093606
vn 0.000000 0.638638 -0.769508
vn 0.710937 0.440743 -0.548010
vn 0.725347 0.107325 -0.679965
vn 0.000000 0.082438 -0.996596
vn 0.725347 0.107325 -0.679965
vn 0.376887 -0.445202 -0.812251
vn 0.000000 -0.479532 -0.877525
vn 0.000000 0.082438 -0.996596
vn 0.000000 -0.479532 -0.877525
vn -0.376887 -0.445202 -0.812251
vn -0.725347 0.107325 -0.679965
vn 0.000000 0.082438 -0.996596
vn 0.000000 -0.479532 -0.877525
vn 0.376887 -0.445202 -0.812251
vn 0.753065 -0.529873 -0.390037
vn 0.000000 -0.764980 -0.644054
vn 0.753065 -0.529873 -0.390037
vn 0.758061 -0.555672 -0.341428
vn 0.000000 -0.850715 -0.525627
vn 0.000000 -0.764980 -0.644054
vn 0.000000 -0.850715 -0.525627
vn -0.758061 -0.555672 -0.341427
vn -0.753065 -0.529873 -0.390037
vn 0.000000 -0.764980 -0.644054
vn 0.000000 -0.850715 -0.525627
vn 0.758061 -0.555672 -0.341428
vn 0.786158 -0.551299 -0.279331
vn 0.000000 -0.917495 -0.397746
vn 0.786158 -0.551299 -0.279331
vn 0.389747 -0.919814 -0.045166
vn 0.000000 -0.997047 -0.076797
vn 0.000000 -0.917495 -0.397746
vn 0.000000 -0.997047 -0.076797
vn -0.389747 -0.919814 -0.045166
vn -0.786158 -0.551299 -0.279331
vn 0.000000 -0.917495 -0.397746
vn 0.000000 -0.997047 -0.076797
vn 0.389747 -0.919814 -0.045166
vn 0.737671 -0.550480 0.390913
vn 0.000000 -0.917583 0.397543
vn 0.737671 -0.550480 0.390913
vn 0.676832 -0.419474 0.604930
vn 0.000000 -0.605596 0.795772
vn 0.000000 -0.917583 0.397543
vn 0.000000 -0.605596 0.795772
vn -0.676832 -0.419474 0.604930
vn -0.737671 -0.550480 0.390913
vn 0.000000 -0.917583 0.397543
vn 0.000000 -0.605596 0.795772
vn 0.676832 -0.419474 0.604930
vn 0.696405 -0.154353 0.700853
vn 0.000000 -0.041727 0.999129
vn 0.696405 -0.154353 0.700853
vn 0.363867 0.451416 0.814754
vn 0.000000 0.532975 0.846131
vn 0.000000 -0.041727 0.999129
vn 0.000000 0.532975 0.846131
vn -0.363867 0.451416 0.814754
vn -0.696405 -0.154353 0.700853
vn 0.000000 -0.041727 0.999129
vn 0.000000 0.532975 0.846131
vn 0.363867 0.451416 0.814754
vn 0.774751 0.487275 0.402895
vn 0.000000 0.782838 0.622226
vn 0.774751 0.487275 0.402895
vn 0.770527 0.542889 0.334005
vn 0.000000 0.865757 0.500464
vn 0.000000 0.782838 0.622226
vn 0.000000 0.865757 0.500464
vn -0.770527 0.542889 0.334005
vn -0.774751 0.487275 0.402895
vn 0.000000 0.782838 0.622226
vn 0.000000 0.865757 0.500464
vn 0.770527 0.542889 0.334005
vn 0.789456 0.555331 0.261469
vn 0.000000 0.927286 0.374355
vn 0.789456 0.555331 0.261469
vn 0.407747 0.906564 0.109017
vn 0.000000 0.991491 0.130178
vn 0.000000 0.927286 0.374355
vn 0.000000 0.991491 0.130178
vn -0.407747 0.906564 0.109017
vn -0.789456 0.555331 0.261469
vn 0.000000 0.927286 0.374355
vn 0.000000 0.991491 0.130178
vn 0.407747 0.906564 0.109017
vn 0.749301 0.602914 -0.273939
vn 0.000000 0.951863 -0.306525
vn 0.749301 0.602914 -0.273939
vn 0.710937 0.440743 -0.548010
vn 0.000000 0.638638 -0.769508
vn 0.000000 0.951863 -0.306525
vn 0.000000 0.638638 -0.769508
vn -0.710937 0.440743 -0.548010
vn -0.749301 0.602914 -0.273939
vn 0.000000 0.951863 -0.306525
vn -0.997795 -0.050516 0.043055
vn -0.999709 -0.017150 0.016982
vn -0.990434 -0.129463 -0.047752
vn -0.980926 -0.192491 -0.027038
vn -0.990434 -0.129463 -0.047752
vn -0.770527 0.542889 0.334005
vn -0.789456 0.555331 0.261469
vn -0.980926 -0.192491 -0.027038
vn -0.789456 0.555331 0.261469
vn -0.407747 0.906564 0.109017
vn -0.749301 0.602914 -0.273939
vn -0.980926 -0.192491 -0.027038
vn -0.999660 0.026013 0.001923
vn -0.676832 -0.419474 0.604930
vn -0.696405 -0.154353 0.700853
vn -0.986714 -0.132790 -0.093606
vn -0.696405 -0.154353 0.700853
vn -0.363867 0.451416 0.814754
vn -0.774751 0.487275 0.402895
vn -0.986714 -0.132790 -0.093606
vn -0.774751 0.487275 0.402895
vn -0.770527 0.542889 0.334005
vn -0.990434 -0.129463 -0.047752
vn -0.986714 -0.132790 -0.093606
vn 0.753065 -0.529873 -0.390037
vn 0.376887 -0.445202 -0.812251
vn 0.725347 0.107325 -0.679965
vn 0.991292 0.054818 0.119732
vn 0.725347 0.107325 -0.679965
vn 0.710937 0.440743 -0.548010
vn 0.997795 -0.050516 0.043055
vn 0.991292 0.054818 0.119732
vn 0.997795 -0.050516 0.043055
vn 0.999709 -0.017150 0.016982
vn 0.993748 0.088660 0.067851
vn 0.991292 0.054818 0.119732
vn 0.999660 0.026012 0.001923
vn 0.676832 -0.419474 0.604930
vn 0.737671 -0.550480 0.390913
vn 0.978262 0.199274 0.057390
vn 0.737671 -0.550480 0.390913
vn 0.389747 -0.919814 -0.045166
vn 0.786158 -0.551299 -0.279331
vn 0.978262 0.199274 0.057390
vn 0.786158 -0.551299 -0.279331
vn 0.758061 -0.555672 -0.341428
vn 0.993748 0.088660 0.067851
vn 0.978262 0.199274 0.057390
vn -0.753065 -0.529873 -0.390037
vn -0.758061 -0.555672 -0.341427
vn -0.993748 0.088660 0.067851
vn -0.991292 0.054818 0.119732
vn -0.993748 0.088660 0.067851
vn -0.999709 -0.017150 0.016982
vn -0.997795 -0.050516 0.043055
vn -0.991292 0.054818 0.119732
vn -0.997795 -0.050516 0.043055
vn -0.710937 0.440743 -0.548010
vn -0.725347 0.107325 -0.679965
vn -0.991292 0.054818 0.119732
vn -0.786158 -0.551299 -0.279331
vn -0.389747 -0.919814 -0.045166
vn -0.737671 -0.550480 0.390913
vn -0.978262 0.199274 0.057390
vn -0.737671 -0.550480 0.390913
vn -0.676832 -0.419474 0.604930
vn -0.999660 0.026013 0.001923
vn -0.978262 0.199274 0.057390
vn -0.999660 0.026013 0.001923
vn -0.999709 -0.017150 0.016982
vn -0.993748 0.088660 0.067851
vn -0.978262 0.199274 0.057390
vn 0.997795 -0.050516 0.043055
vn 0.710937 0.440743 -0.548010
vn 0.749301 0.602914 -0.273939
vn 0.980926 -0.192491 -0.027038
vn 0.749301 0.602914 -0.273939
vn 0.407747 0.906564 0.109017
vn 0.789456 0.555331 0.261469
vn 0.980926 -0.192491 -0.027038
vn 0.789456 0.555331 0.261469
vn 0.770527 0.542889 0.334005
vn 0.990434 -0.129463 -0.047752
vn 0.980926 -0.192491 -0.027038
vn 0.774751 0.487275 0.402895
vn 0.363867 0.451416 0.814754
vn 0.696405 -0.154353 0.700853
vn 0.986714 -0.132790 -0.093606
vn 0.696405 -0.154353 0.700853
vn 0.676832 -0.419474 0.604930
vn 0.999660 0.026012 0.001923
vn 0.986714 -0.132790 -0.093606
vn 0.999660 0.026012 0.001923
vn 0.999709 -0.017150 0.016982
vn 0.990434 -0.129463 -0.047752
vn 0.986714 -0.132790 -0.093606
s off
f 1/1/1 2/2/2 3/3/3 4/4/4
f 5/5/5 6/6/6 7/7/7 8/8/8
f 9/9/9 10/10/10 11/11/11 12/12/12
f 13/13/13 14/14/14 15/15/15 16/16/16
f 17/17/17 18/18/18 19/19/19 20/20/20
f 21/21/21 22/22/22 23/23/23 24/24/24
f 25/25/25 26/26/26 27/27/27 28/28/28
f 29/29/29 30/30/30 31/31/31 32/32/32
f 29/33/33 2/34/34 33/35/35 34/36/36
f 35/37/37 36/38/38 37/39/39 38/40/40
f 39/41/41 40/42/42 41/43/43 42/44/44
f 39/41/45 43/45/46 44/46/47 45/47/48
f 1/48/49 6/6/50 5/5/51 46/49/52
f 47/50/53 10/10/54 9/9/55 48/51/56
f 49/52/57 43/45/58 50/53/59 51/54/60
f 49/52/61 52/55/62 53/56/63 54/57/64
f 3/3/65 55/58/66 56/59/67 4/4/68
f 56/59/69 57/60/70 7/7/71 4/4/72
f 7/7/73 6/6/74 1/1/75 4/4/76
f 7/7/77 57/60/78 41/61/79 8/8/80
f 41/61/81 40/62/82 11/11/83 8/8/84
f 11/11/85 10/10/86 5/5/87 8/8/88
f 11/11/89 40/62/90 58/63/91 12/12/92
f 58/63/93 59/64/94 15/15/95 12/12/96
f 15/15/97 14/14/98 9/9/99 12/12/100
f 15/15/101 59/64/102 60/65/103 16/16/104
f 60/65/105 61/66/106 19/67/107 16/16/108
f 19/67/109 18/68/110 13/13/111 16/16/112
f 19/19/113 61/69/114 62/70/115 20/20/116
f 62/70/117 63/71/118 23/23/119 20/20/120
f 23/23/121 22/22/122 17/17/123 20/20/124
f 23/23/125 63/71/126 53/56/127 24/24/128
f 53/56/129 52/55/130 27/27/131 24/24/132
f 27/27/133 26/26/134 21/21/135 24/24/136
f 27/27/137 52/55/138 64/72/139 28/28/140
f 64/72/141 65/73/142 31/31/143 28/28/144
f 31/31/145 30/30/146 25/25/147 28/28/148
f 31/31/149 65/73/150 66/74/151 32/32/152
f 66/74/153 55/75/154 3/76/155 32/32/156
f 3/76/157 2/77/158 29/29/159 32/32/160
f 33/35/161 36/38/162 35/37/163 34/36/164
f 35/37/165 26/26/166 25/25/167 34/36/168
f 25/25/169 30/30/170 29/33/171 34/36/172
f 37/39/173 18/78/174 17/79/175 38/40/176
f 17/79/177 22/22/178 21/21/179 38/40/180
f 21/21/181 26/26/182 35/37/183 38/40/184
f 41/43/185 57/80/186 56/81/187 42/44/188
f 56/81/189 55/82/190 50/53/191 42/44/192
f 50/53/193 43/45/194 39/41/195 42/44/196
f 44/46/197 61/83/198 60/84/199 45/47/200
f 60/84/201 59/85/202 58/86/203 45/47/204
f 58/86/205 40/42/206 39/41/207 45/47/208
f 5/5/209 10/10/210 47/50/211 46/49/212
f 47/50/213 36/38/214 33/35/215 46/49/216
f 33/35/217 2/34/218 1/48/219 46/49/220
f 9/9/221 14/14/222 13/87/223 48/51/224
f 13/87/225 18/78/226 37/39/227 48/51/228
f 37/39/229 36/38/230 47/50/231 48/51/232
f 50/53/233 55/82/234 66/88/235 51/54/236
f 66/88/237 65/73/238 64/72/239 51/54/240
f 64/72/241 52/55/242 49/52/243 51/54/244
f 53/56/245 63/71/246 62/89/247 54/57/248
f 62/89/249 61/83/250 44/46/251 54/57/252
f 44/46/253 43/45/254 49/52/255 54/57/256
