# This file uses millimeters as units for non-parametric coordinates.

v -5.458638 1.236887 8.644655
v -5.464726 2.660543 9.016627
v -4.682451 2.395073 9.624280
v -4.773094 1.327384 9.545351
v -5.005658 -1.040863 7.653985
v -5.361445 0.030583 8.021690
v -4.705997 0.306210 9.182143
v -4.389973 -0.829532 8.922312
v -2.510819 -0.555344 11.255042
v -3.525092 -1.311534 10.057096
v -3.737405 -0.464732 10.154192
v -2.676815 0.246233 11.287973
v -2.753045 1.271008 11.372374
v -3.939150 0.699026 10.319595
v -3.894601 1.779832 10.474029
v -2.711070 2.428341 11.309777
v -0.635592 0.872447 12.881175
v -1.408136 0.100525 12.520497
v -1.478452 0.884964 12.676290
v -0.632374 1.307225 12.924913
v -0.700272 2.365107 13.011515
v -1.594517 1.620648 12.435914
v -1.503453 2.558828 12.383869
v -0.709801 3.297289 12.849837
v -4.815652 2.374771 9.975513
v -5.417411 2.549069 9.302380
v -5.445221 1.184084 9.068903
v -4.968070 1.319566 10.079180
v -4.946562 0.255017 9.606423
v -5.384326 -0.007743 8.475543
v -5.071771 -1.144129 8.078317
v -4.661131 -0.916295 9.322889
v -4.158854 -0.489401 10.561163
v -3.844702 -1.335623 10.353463
v -2.857496 -0.534614 11.374843
v -3.145069 0.267138 11.748345
v -4.266125 1.807045 11.055840
v -4.345980 0.687063 10.741739
v -3.241940 1.390990 11.822401
v -3.141992 2.467247 11.907661
v -1.884738 0.826708 13.258572
v -1.709790 0.057057 12.968528
v -0.806437 0.837699 13.218362
v -0.858422 1.328045 13.362688
v -1.885068 2.596584 12.944369
v -1.964338 1.484834 13.188693
v -0.934383 2.391070 13.450647
v -0.945144 3.316261 12.841225
v -5.441069 2.604806 9.159502
v -5.451205 1.157677 8.839545
v -4.038767 2.715568 10.742527
v -3.842759 3.013761 10.462985
v -4.669098 2.745991 9.825897
v -5.276828 0.068570 8.257925
v -5.036431 -1.098219 7.868587
v -4.322460 -1.707161 9.091681
v -4.457366 -2.123302 7.813372
v -4.403805 -2.041061 7.611352
v -4.102623 -1.930276 8.921778
v -3.593843 -1.602716 10.170017
v -2.609392 -0.816506 11.402018
v -2.885055 3.309997 11.539906
v -1.682135 3.472545 12.602211
v -1.512707 3.741549 12.301435
v -2.671028 3.578221 11.222201
v -1.531414 -0.193222 12.671453
v -0.766195 0.522486 12.951729
v 0.000000 2.443942 13.399841
v 0.000000 1.610512 13.136581
v 0.000000 1.465941 13.006900
v 0.000000 2.238010 13.173633
v 0.000000 4.240371 13.150224
v 0.000000 3.425159 13.128660
v 0.000000 3.400805 13.034029
v 0.000000 4.230799 13.020227
v -0.797727 4.146580 12.687260
v 0.000000 5.074517 13.335117
v 0.000000 5.064944 13.205121
v -0.726594 4.374515 12.436341
v -3.780344 2.699072 10.323121
v -4.106590 -1.631269 8.800106
v -4.351421 -1.958285 7.404663
v -2.584753 3.281231 11.097755
v -1.418231 3.443055 12.189741
v 0.000000 3.387084 12.934189
v 0.000000 2.106328 12.984453
v 0.000000 1.334308 12.877219
v -0.642606 4.126276 12.706800
v 0.000000 5.055372 13.075126
v 0.000000 4.221227 12.890231
vt 0.937791 0.406838
vt 0.937791 0.502498
vt 0.842090 0.502498
vt 0.842090 0.406838
vt 0.937791 0.209606
vt 0.937791 0.311179
vt 0.842090 0.311179
vt 0.842090 0.209606
vt 0.497876 0.108034
vt 0.746388 0.108034
vt 0.746388 0.209606
vt 0.497876 0.209606
vt 0.497876 0.311179
vt 0.746388 0.311179
vt 0.746388 0.406838
vt 0.497876 0.406838
vt 0.155874 0.108034
vt 0.249363 0.108034
vt 0.249363 0.209606
vt 0.155874 0.209606
vt 0.155874 0.311179
vt 0.249363 0.311179
vt 0.249363 0.406838
vt 0.155874 0.406838
vt 0.842090 0.604748
vt 0.937791 0.604748
vt 0.937791 0.701407
vt 0.842090 0.701407
vt 0.842090 0.798066
vt 0.937791 0.798066
vt 0.937791 0.886315
vt 0.842090 0.886315
vt 0.746388 0.886315
vt 0.746388 0.974564
vt 0.497876 0.974564
vt 0.497876 0.886315
vt 0.746388 0.701407
vt 0.746388 0.798066
vt 0.497876 0.798066
vt 0.497876 0.701407
vt 0.249363 0.886315
vt 0.249363 0.974564
vt 0.155874 0.974564
vt 0.155874 0.886315
vt 0.249363 0.701407
vt 0.249363 0.798066
vt 0.155874 0.798066
vt 0.155874 0.701407
vt 0.952484 0.604748
vt 0.952484 0.701407
vt 0.746388 0.604748
vt 0.746388 0.553623
vt 0.842090 0.553623
vt 0.952484 0.798066
vt 0.952484 0.886315
vt 0.842090 0.027147
vt 0.937791 0.027147
vt 0.937791 0.067591
vt 0.842090 0.067591
vt 0.497876 0.027147
vt 0.746388 0.027147
vt 0.746388 0.067591
vt 0.497876 0.067591
vt 0.497876 0.604748
vt 0.249363 0.604748
vt 0.249363 0.553623
vt 0.497876 0.553623
vt 0.155874 0.027147
vt 0.249363 0.027147
vt 0.249363 0.067591
vt 0.155874 0.067591
vt 0.030482 0.209606
vt 0.030482 0.108034
vt 0.046433 0.108034
vt 0.046433 0.209606
vt 0.030482 0.406838
vt 0.030482 0.311179
vt 0.046433 0.311179
vt 0.046433 0.406838
vt 0.155874 0.604748
vt 0.062385 0.604748
vt 0.062385 0.553623
vt 0.155874 0.553623
vt 0.746388 0.502498
vt 0.842090 0.108034
vt 0.937791 0.108034
vt 0.497876 0.502498
vt 0.249363 0.502498
vt 0.062385 0.311179
vt 0.062385 0.209606
vt 0.062385 0.108034
vt 0.155874 0.502498
vt 0.062385 0.502498
vt 0.062385 0.406838
vt 0.937791 0.974564
vt 0.842090 0.974564
vt 0.062385 0.974564
vt 0.062385 0.886315
vt 0.062385 0.798066
vt 0.062385 0.701407
vt 0.967178 0.604748
vt 0.967178 0.701407
vt 0.967178 0.798066
vt 0.937791 0.553623
vt 0.967178 0.886315
vt 0.967178 0.974564
vt 0.952484 0.974564
vt 0.062385 0.067591
vt 0.062385 0.027147
vt 0.046433 0.502498
vt 0.030482 0.502498
vn 0.777819 0.111653 -0.618491
vn 0.649522 0.372864 -0.662642
vn 0.630041 0.276070 -0.725833
vn 0.764955 0.019229 -0.643797
vn 0.829834 0.365369 -0.421761
vn 0.832845 0.211702 -0.511421
vn 0.821338 0.143660 -0.552056
vn 0.828316 0.290733 -0.478923
vn 0.697187 -0.265117 -0.666066
vn 0.840964 -0.144088 -0.521554
vn 0.721762 0.158528 -0.673742
vn 0.521233 0.076548 -0.849974
vn 0.579561 -0.074749 -0.811493
vn 0.725542 0.008900 -0.688121
vn 0.695661 -0.144818 -0.703622
vn 0.619880 -0.230543 -0.750066
vn 0.380807 -0.262734 -0.886542
vn 0.580315 -0.278322 -0.765357
vn 0.358317 0.070231 -0.930955
vn 0.134503 0.150251 -0.979456
vn 0.426147 -0.017533 -0.904484
vn 0.492629 -0.075141 -0.866989
vn 0.605188 -0.227391 -0.762916
vn 0.617558 -0.188904 -0.763503
vn -0.736277 0.387422 0.554797
vn -0.738349 0.316974 0.595288
vn -0.885601 -0.008583 0.464368
vn -0.864809 0.084164 0.494998
vn -0.897066 -0.102324 0.429887
vn -0.915008 -0.153878 0.372937
vn -0.873275 -0.349451 0.339522
vn -0.858610 -0.314206 0.405048
vn -0.722265 -0.236843 0.649799
vn -0.497061 -0.570089 0.654163
vn -0.187654 -0.482636 0.855481
vn -0.458297 -0.160236 0.874236
vn -0.765278 0.251103 0.592703
vn -0.780774 0.013637 0.624664
vn -0.581928 0.096296 0.807519
vn -0.640410 0.340475 0.688441
vn -0.202259 -0.137385 0.969648
vn 0.058472 -0.399416 0.914903
vn 0.301837 -0.387832 0.870908
vn 0.062997 -0.182622 0.981163
vn -0.554424 0.338458 0.760303
vn -0.400582 0.096282 0.911188
vn -0.222743 0.035215 0.974241
vn -0.472714 0.276842 0.836600
vn -0.998226 -0.018144 -0.056716
vn -0.996855 -0.002140 0.079213
vn -0.996602 -0.010510 0.081690
vn -0.998070 -0.046543 0.041111
vn -0.736277 0.387422 0.554797
vn -0.689723 0.529504 0.493869
vn -0.178245 0.921195 -0.345873
vn -0.095707 0.986113 -0.135727
vn -0.944387 -0.248183 -0.215729
vn -0.973233 -0.069614 -0.219025
vn -0.991552 -0.124907 -0.034968
vn -0.950069 -0.284788 -0.127530
vn -0.617270 -0.671831 0.409415
vn -0.566830 -0.753295 0.333541
vn 0.500725 -0.857166 0.120587
vn 0.440236 -0.888139 0.131913
vn -0.187654 -0.482636 0.855481
vn -0.497061 -0.570089 0.654163
vn 0.423376 -0.882868 0.203216
vn 0.513501 -0.815963 0.265558
vn -0.634560 0.615737 0.467120
vn -0.629666 0.606651 0.485278
vn -0.267662 0.859522 -0.435406
vn -0.214311 0.885106 -0.413108
vn 0.301837 -0.387832 0.870908
vn 0.058472 -0.399416 0.914903
vn 0.615624 -0.745581 0.255178
vn 0.669952 -0.729597 0.137303
vn 1.000000 0.000000 0.000000
vn 1.000000 0.000000 0.000000
vn 1.000000 0.000000 0.000000
vn 1.000000 0.000000 0.000000
vn 1.000000 0.000000 0.000000
vn 1.000000 0.000000 0.000000
vn 1.000000 0.000000 0.000000
vn 1.000000 0.000000 0.000000
vn -0.647233 0.549378 0.528463
vn -0.659820 0.513117 0.548953
vn -0.547758 0.764810 -0.339156
vn -0.442075 0.808714 -0.388009
vn 0.630041 0.276070 -0.725833
vn 0.559712 0.143225 -0.816216
vn 0.695661 -0.144818 -0.703622
vn 0.764955 0.019229 -0.643797
vn 0.695661 -0.144818 -0.703622
vn 0.725542 0.008900 -0.688121
vn 0.821338 0.143660 -0.552056
vn 0.764955 0.019229 -0.643797
vn 0.821338 0.143660 -0.552056
vn 0.832845 0.211702 -0.511421
vn 0.777819 0.111653 -0.618491
vn 0.764955 0.019229 -0.643797
vn 0.821338 0.143660 -0.552056
vn 0.725542 0.008900 -0.688121
vn 0.721762 0.158528 -0.673742
vn 0.828316 0.290733 -0.478923
vn 0.721762 0.158528 -0.673742
vn 0.840964 -0.144088 -0.521554
vn 0.940274 -0.003463 -0.340400
vn 0.828316 0.290733 -0.478923
vn 0.940274 -0.003463 -0.340400
vn 0.963639 0.053327 -0.261833
vn 0.829834 0.365369 -0.421761
vn 0.828316 0.290733 -0.478923
vn 0.721762 0.158528 -0.673742
vn 0.725542 0.008900 -0.688121
vn 0.579561 -0.074749 -0.811493
vn 0.521233 0.076548 -0.849974
vn 0.579561 -0.074749 -0.811493
vn 0.492629 -0.075141 -0.866989
vn 0.358317 0.070231 -0.930955
vn 0.521233 0.076548 -0.849974
vn 0.358317 0.070231 -0.930955
vn 0.580315 -0.278322 -0.765357
vn 0.697187 -0.265117 -0.666066
vn 0.521233 0.076548 -0.849974
vn 0.695661 -0.144818 -0.703622
vn 0.559712 0.143225 -0.816216
vn 0.495458 0.104221 -0.862357
vn 0.619880 -0.230543 -0.750066
vn 0.495458 0.104221 -0.862357
vn 0.477841 0.102130 -0.872489
vn 0.605188 -0.227391 -0.762916
vn 0.619880 -0.230543 -0.750066
vn 0.605188 -0.227391 -0.762916
vn 0.492629 -0.075141 -0.866989
vn 0.579561 -0.074749 -0.811493
vn 0.619880 -0.230543 -0.750066
vn 0.358317 0.070231 -0.930955
vn 0.492629 -0.075141 -0.866989
vn 0.426147 -0.017533 -0.904484
vn 0.134503 0.150251 -0.979456
vn 0.426147 -0.017533 -0.904484
vn 0.390419 0.024099 -0.920322
vn -0.012709 0.211559 -0.977283
vn 0.134503 0.150251 -0.979456
vn -0.012709 0.211559 -0.977283
vn 0.222769 -0.264423 -0.938325
vn 0.380807 -0.262734 -0.886542
vn 0.134503 0.150251 -0.979456
vn 0.605188 -0.227391 -0.762916
vn 0.477841 0.102130 -0.872489
vn 0.384658 0.180697 -0.905200
vn 0.617558 -0.188904 -0.763503
vn 0.384658 0.180697 -0.905200
vn 0.271046 0.261798 -0.926281
vn 0.623855 -0.169086 -0.763030
vn 0.617558 -0.188904 -0.763503
vn 0.623855 -0.169086 -0.763030
vn 0.390419 0.024099 -0.920322
vn 0.426147 -0.017533 -0.904484
vn 0.617558 -0.188904 -0.763503
vn -0.885601 -0.008583 0.464368
vn -0.915008 -0.153878 0.372937
vn -0.897066 -0.102324 0.429887
vn -0.864809 0.084164 0.494998
vn -0.897066 -0.102324 0.429887
vn -0.780774 0.013637 0.624664
vn -0.765278 0.251103 0.592703
vn -0.864809 0.084164 0.494998
vn -0.765278 0.251103 0.592703
vn -0.689723 0.529504 0.493869
vn -0.736277 0.387422 0.554797
vn -0.864809 0.084164 0.494998
vn -0.873275 -0.349451 0.339522
vn -0.566830 -0.753295 0.333541
vn -0.617270 -0.671831 0.409415
vn -0.858610 -0.314206 0.405048
vn -0.617270 -0.671831 0.409415
vn -0.497061 -0.570089 0.654163
vn -0.722265 -0.236843 0.649799
vn -0.858610 -0.314206 0.405048
vn -0.722265 -0.236843 0.649799
vn -0.780774 0.013637 0.624664
vn -0.897066 -0.102324 0.429887
vn -0.858610 -0.314206 0.405048
vn -0.187654 -0.482636 0.855481
vn 0.058472 -0.399416 0.914903
vn -0.202259 -0.137385 0.969648
vn -0.458297 -0.160236 0.874236
vn -0.202259 -0.137385 0.969648
vn -0.400582 0.096282 0.911188
vn -0.581928 0.096296 0.807519
vn -0.458297 -0.160236 0.874236
vn -0.581928 0.096296 0.807519
vn -0.780774 0.013637 0.624664
vn -0.722265 -0.236843 0.649799
vn -0.458297 -0.160236 0.874236
vn -0.581928 0.096296 0.807519
vn -0.400582 0.096282 0.911188
vn -0.554424 0.338458 0.760303
vn -0.640410 0.340475 0.688441
vn -0.554424 0.338458 0.760303
vn -0.629666 0.606651 0.485278
vn -0.634560 0.615737 0.467120
vn -0.640410 0.340475 0.688441
vn -0.634560 0.615737 0.467120
vn -0.689723 0.529504 0.493869
vn -0.765278 0.251103 0.592703
vn -0.640410 0.340475 0.688441
vn 0.301837 -0.387832 0.870908
vn 0.419856 -0.411141 0.809125
vn 0.187062 -0.222481 0.956823
vn 0.062997 -0.182622 0.981163
vn 0.187062 -0.222481 0.956823
vn -0.140446 -0.007646 0.990059
vn -0.222743 0.035215 0.974241
vn 0.062997 -0.182622 0.981163
vn -0.222743 0.035215 0.974241
vn -0.400582 0.096282 0.911188
vn -0.202259 -0.137385 0.969648
vn 0.062997 -0.182622 0.981163
vn -0.222743 0.035215 0.974241
vn -0.140446 -0.007646 0.990059
vn -0.432495 0.234875 0.870507
vn -0.472714 0.276842 0.836600
vn -0.432495 0.234875 0.870507
vn -0.659820 0.513117 0.548953
vn -0.647233 0.549378 0.528463
vn -0.472714 0.276842 0.836600
vn -0.647233 0.549378 0.528463
vn -0.629666 0.606651 0.485278
vn -0.554424 0.338458 0.760303
vn -0.472714 0.276842 0.836600
vn -0.996602 -0.010510 0.081690
vn -0.996273 -0.018879 0.084160
vn -0.987658 -0.074283 0.137891
vn -0.998070 -0.046543 0.041111
vn -0.987658 -0.074283 0.137891
vn -0.972885 -0.175586 0.150549
vn -0.991552 -0.124907 -0.034968
vn -0.998070 -0.046543 0.041111
vn -0.991552 -0.124907 -0.034968
vn -0.973233 -0.069614 -0.219025
vn -0.998226 -0.018144 -0.056716
vn -0.998070 -0.046543 0.041111
vn -0.178245 0.921195 -0.345873
vn 0.559712 0.143225 -0.816216
vn 0.630041 0.276070 -0.725833
vn -0.095707 0.986113 -0.135727
vn 0.630041 0.276070 -0.725833
vn 0.649522 0.372864 -0.662642
vn -0.031968 0.999451 0.008753
vn -0.095707 0.986113 -0.135727
vn -0.031968 0.999451 0.008753
vn -0.738349 0.316974 0.595288
vn -0.736277 0.387422 0.554797
vn -0.095707 0.986113 -0.135727
vn -0.991552 -0.124907 -0.034968
vn -0.972885 -0.175586 0.150549
vn -0.947020 -0.318953 -0.037704
vn -0.950069 -0.284788 -0.127530
vn -0.947020 -0.318953 -0.037704
vn -0.894940 -0.406503 -0.183952
vn -0.899901 -0.396130 -0.182371
vn -0.950069 -0.284788 -0.127530
vn -0.899901 -0.396130 -0.182371
vn -0.904741 -0.385705 -0.180766
vn -0.944387 -0.248183 -0.215729
vn -0.950069 -0.284788 -0.127530
vn 0.500725 -0.857166 0.120587
vn 0.963639 0.053327 -0.261833
vn 0.940274 -0.003463 -0.340400
vn 0.440236 -0.888139 0.131913
vn 0.940274 -0.003463 -0.340400
vn 0.840964 -0.144088 -0.521554
vn 0.423376 -0.882868 0.203216
vn 0.440236 -0.888139 0.131913
vn 0.423376 -0.882868 0.203216
vn -0.497061 -0.570089 0.654163
vn -0.617270 -0.671831 0.409415
vn 0.440236 -0.888139 0.131913
vn 0.423376 -0.882868 0.203216
vn 0.840964 -0.144088 -0.521554
vn 0.697187 -0.265117 -0.666066
vn 0.513501 -0.815963 0.265558
vn 0.697187 -0.265117 -0.666066
vn 0.580315 -0.278322 -0.765357
vn 0.615624 -0.745581 0.255178
vn 0.513501 -0.815963 0.265558
vn 0.615624 -0.745581 0.255178
vn 0.058472 -0.399416 0.914903
vn -0.187654 -0.482636 0.855481
vn 0.513501 -0.815963 0.265558
vn -0.267662 0.859522 -0.435406
vn 0.477841 0.102130 -0.872489
vn 0.495458 0.104221 -0.862357
vn -0.214311 0.885106 -0.413108
vn 0.495458 0.104221 -0.862357
vn 0.559712 0.143225 -0.816216
vn -0.178245 0.921195 -0.345873
vn -0.214311 0.885106 -0.413108
vn -0.178245 0.921195 -0.345873
vn -0.689723 0.529504 0.493869
vn -0.634560 0.615737 0.467120
vn -0.214311 0.885106 -0.413108
vn 0.615624 -0.745581 0.255178
vn 0.580315 -0.278322 -0.765357
vn 0.380807 -0.262734 -0.886542
vn 0.669952 -0.729597 0.137303
vn 0.380807 -0.262734 -0.886542
vn 0.222769 -0.264423 -0.938325
vn 0.658327 -0.750888 0.052650
vn 0.669952 -0.729597 0.137303
vn 0.658327 -0.750888 0.052650
vn 0.419856 -0.411141 0.809125
vn 0.301837 -0.387832 0.870908
vn 0.669952 -0.729597 0.137303
vn 1.000000 0.000000 0.000000
vn 1.000000 0.000000 0.000000
vn 1.000000 0.000000 0.000000
vn 1.000000 0.000000 0.000000
vn 1.000000 0.000000 0.000000
vn 1.000000 0.000000 0.000000
vn 1.000000 0.000000 0.000000
vn 1.000000 0.000000 0.000000
vn 1.000000 0.000000 0.000000
vn 1.000000 0.000000 0.000000
vn 1.000000 0.000000 0.000000
vn 1.000000 0.000000 0.000000
vn 1.000000 0.000000 0.000000
vn 1.000000 0.000000 0.000000
vn 1.000000 0.000000 0.000000
vn 1.000000 0.000000 0.000000
vn 1.000000 0.000000 0.000000
vn 1.000000 0.000000 0.000000
vn 1.000000 0.000000 0.000000
vn 1.000000 0.000000 0.000000
vn 1.000000 0.000000 0.000000
vn 1.000000 0.000000 0.000000
vn 1.000000 0.000000 0.000000
vn 1.000000 0.000000 0.000000
vn -0.547758 0.764810 -0.339156
vn 0.271046 0.261798 -0.926281
vn 0.384658 0.180697 -0.905200
vn -0.442075 0.808714 -0.388009
vn 0.384658 0.180697 -0.905200
vn 0.477841 0.102130 -0.872489
vn -0.267662 0.859522 -0.435406
vn -0.442075 0.808714 -0.388009
vn -0.267662 0.859522 -0.435406
vn -0.629666 0.606651 0.485278
vn -0.647233 0.549378 0.528463
vn -0.442075 0.808714 -0.388009
s off
f 1/1/1 2/2/2 3/3/3 4/4/4
f 5/5/5 6/6/6 7/7/7 8/8/8
f 9/9/9 10/10/10 11/11/11 12/12/12
f 13/13/13 14/14/14 15/15/15 16/16/16
f 17/17/17 18/18/18 19/19/19 20/20/20
f 21/21/21 22/22/22 23/23/23 24/24/24
f 25/25/25 26/26/26 27/27/27 28/28/28
f 29/29/29 30/30/30 31/31/31 32/32/32
f 33/33/33 34/34/34 35/35/35 36/36/36
f 37/37/37 38/38/38 39/39/39 40/40/40
f 41/41/41 42/42/42 43/43/43 44/44/44
f 45/45/45 46/46/46 47/47/47 48/48/48
f 27/27/49 26/26/50 49/49/51 50/50/52
f 25/25/53 51/51/54 52/52/55 53/53/56
f 31/31/57 30/30/58 54/54/59 55/55/60
f 56/56/61 57/57/62 58/58/63 59/59/64
f 35/60/65 34/61/66 60/62/67 61/63/68
f 62/64/69 63/65/70 64/66/71 65/67/72
f 43/68/73 42/69/74 66/70/75 67/71/76
f 68/72/77 69/73/78 70/74/79 71/75/80
f 72/76/81 73/77/82 74/78/83 75/79/84
f 76/80/85 77/81/86 78/82/87 79/83/88
f 3/3/89 80/84/90 15/15/91 4/4/92
f 15/15/93 14/14/94 7/7/95 4/4/96
f 7/7/97 6/6/98 1/1/99 4/4/100
f 7/7/101 14/14/102 11/11/103 8/8/104
f 11/11/105 10/10/106 81/85/107 8/8/108
f 81/85/109 82/86/110 5/5/111 8/8/112
f 11/11/113 14/14/114 13/13/115 12/12/116
f 13/13/117 22/22/118 19/19/119 12/12/120
f 19/19/121 18/18/122 9/9/123 12/12/124
f 15/15/125 80/84/126 83/87/127 16/16/128
f 83/87/129 84/88/130 23/23/131 16/16/132
f 23/23/133 22/22/134 13/13/135 16/16/136
f 19/19/137 22/22/138 21/21/139 20/20/140
f 21/21/141 85/89/142 86/90/143 20/20/144
f 86/90/145 87/91/146 17/17/147 20/20/148
f 23/23/149 84/88/150 88/92/151 24/24/152
f 88/92/153 89/93/154 90/94/155 24/24/156
f 90/94/157 85/89/158 21/21/159 24/24/160
f 27/27/161 30/30/162 29/29/163 28/28/164
f 29/29/165 38/38/166 37/37/167 28/28/168
f 37/37/169 51/51/170 25/25/171 28/28/172
f 31/31/173 57/95/174 56/96/175 32/32/176
f 56/96/177 34/34/178 33/33/179 32/32/180
f 33/33/181 38/38/182 29/29/183 32/32/184
f 35/35/185 42/42/186 41/41/187 36/36/188
f 41/41/189 46/46/190 39/39/191 36/36/192
f 39/39/193 38/38/194 33/33/195 36/36/196
f 39/39/197 46/46/198 45/45/199 40/40/200
f 45/45/201 63/65/202 62/64/203 40/40/204
f 62/64/205 51/51/206 37/37/207 40/40/208
f 43/43/209 69/97/210 68/98/211 44/44/212
f 68/98/213 73/99/214 47/47/215 44/44/216
f 47/47/217 46/46/218 41/41/219 44/44/220
f 47/47/221 73/99/222 72/100/223 48/48/224
f 72/100/225 77/81/226 76/80/227 48/48/228
f 76/80/229 63/65/230 45/45/231 48/48/232
f 49/49/233 2/101/234 1/102/235 50/50/236
f 1/102/237 6/103/238 54/54/239 50/50/240
f 54/54/241 30/30/242 27/27/243 50/50/244
f 52/52/245 80/84/246 3/3/247 53/53/248
f 3/3/249 2/2/250 49/104/251 53/53/252
f 49/104/253 26/26/254 25/25/255 53/53/256
f 54/54/257 6/103/258 5/105/259 55/55/260
f 5/105/261 82/106/262 58/107/263 55/55/264
f 58/107/265 57/95/266 31/31/267 55/55/268
f 58/58/269 82/86/270 81/85/271 59/59/272
f 81/85/273 10/10/274 60/62/275 59/59/276
f 60/62/277 34/61/278 56/56/279 59/59/280
f 60/62/281 10/10/282 9/9/283 61/63/284
f 9/9/285 18/18/286 66/70/287 61/63/288
f 66/70/289 42/69/290 35/60/291 61/63/292
f 64/66/293 84/88/294 83/87/295 65/67/296
f 83/87/297 80/84/298 52/52/299 65/67/300
f 52/52/301 51/51/302 62/64/303 65/67/304
f 66/70/305 18/18/306 17/17/307 67/71/308
f 17/17/309 87/91/310 70/108/311 67/71/312
f 70/108/313 69/109/314 43/68/315 67/71/316
f 70/74/317 87/91/318 86/90/319 71/75/320
f 86/90/321 85/89/322 74/78/323 71/75/324
f 74/78/325 73/77/326 68/72/327 71/75/328
f 74/78/329 85/89/330 90/94/331 75/79/332
f 90/94/333 89/93/334 78/110/335 75/79/336
f 78/110/337 77/111/338 72/76/339 75/79/340
f 78/82/341 89/93/342 88/92/343 79/83/344
f 88/92/345 84/88/346 64/66/347 79/83/348
f 64/66/349 63/65/350 76/80/351 79/83/352
