# This file uses millimeters as units for non-parametric coordinates.

v 4.096606 7.087653 8.080773
v 3.787325 7.623087 7.251164
v 3.724091 7.636306 7.258415
v 4.025419 7.101788 8.093585
v 3.688636 7.555693 7.148494
v 3.733321 7.500297 7.083736
v 3.964876 6.913387 7.936347
v 3.935075 6.984841 7.989773
v 3.788425 7.508672 7.102845
v 4.045706 6.907936 7.955703
v 3.823878 7.589286 7.212766
v 4.131622 7.026262 8.042658
v 2.335152 0.025592 4.818144
v 2.241203 0.105069 4.957214
v 2.186178 0.204078 5.006269
v 2.394088 0.218965 4.841463
v 3.749624 7.570450 7.176970
v 2.466173 0.042750 4.692225
v 2.280368 0.568230 5.817773
v 2.209446 0.574002 5.902804
v 2.112171 0.648205 5.969157
v 2.048394 0.698007 5.947947
v 2.040874 0.738917 5.869723
v 2.056024 1.257213 6.540961
v 2.116717 1.291664 6.464289
v 2.120251 0.748015 5.753418
v 2.551475 0.221362 4.713417
v 2.571571 0.404048 4.797274
v 2.215677 0.746431 5.700684
v 2.278350 0.635600 5.726929
v 3.979622 6.667723 8.963920
v 3.931205 6.639173 8.882830
v 3.344484 5.991512 9.748478
v 3.385157 5.992916 9.845267
v 2.772114 5.037838 9.837809
v 2.744044 5.051335 9.937534
v 3.360720 5.934485 9.657881
v 4.073018 6.453719 8.843136
v 4.129184 6.502765 8.916663
v 3.534960 5.845921 9.766599
v 3.492210 5.830978 9.671463
v 4.110600 6.577426 8.985618
v 3.508214 5.898540 9.858527
v 2.381190 2.153736 7.316708
v 2.136358 1.190679 6.645132
v 2.231639 1.162853 6.601085
v 2.454380 2.142355 7.263027
v 2.258965 2.954552 8.676740
v 2.242524 3.030206 8.626690
v 2.308410 2.284402 7.258867
v 2.330296 2.219523 7.313796
v 2.281793 3.067732 8.583455
v 2.347468 3.057661 8.559001
v 2.425388 2.326956 7.179037
v 2.346629 2.321455 7.198056
v 2.409335 3.003381 8.574358
v 2.432326 2.937058 8.614216
v 2.504600 2.181935 7.209662
v 2.482310 2.255508 7.173583
v 2.498252 4.028499 9.539915
v 2.562325 3.980274 9.578968
v 2.402886 4.035156 9.654388
v 2.443269 4.066273 9.597740
v 2.310246 2.890070 8.697328
v 2.473848 3.912834 9.758778
v 2.421810 3.969802 9.723950
v 2.383599 2.892371 8.666136
v 2.582758 3.923205 9.643405
v 2.540830 3.903698 9.725448
v 3.672490 7.613949 7.222293
v 3.953579 7.073491 8.047678
v 4.051692 6.645394 9.007690
v 3.993812 6.461101 8.790850
v 3.940527 6.546636 8.817040
v 3.824484 7.542328 7.152762
v 4.115696 6.960338 7.977604
v 2.238659 0.315335 4.979529
v 2.402502 0.399847 4.901542
v 2.295939 1.175611 6.531643
v 2.070742 1.223415 6.613516
v 2.204241 1.307059 6.434307
v 2.276442 1.238919 6.461811
v 2.772574 5.019504 10.034103
v 2.829594 4.971084 10.078583
v 3.449893 5.958313 9.894714
v 3.417166 5.858825 9.615684
v 2.827943 4.988365 9.777269
v 2.921376 4.915607 9.926751
v 2.891249 4.942900 9.828133
v 2.889590 4.931822 10.029412
vt 0.127763 0.977068
vt 0.024249 0.977260
vt 0.024384 0.985964
vt 0.127892 0.985790
vt 0.023625 0.937254
vt 0.023741 0.944716
vt 0.127256 0.944560
vt 0.127132 0.937098
vt 0.023877 0.953430
vt 0.127400 0.953274
vt 0.024131 0.969702
vt 0.127653 0.969528
vt 0.984789 0.960663
vt 0.994130 0.960617
vt 0.994130 0.951905
vt 0.984722 0.951951
vt 0.003231 0.953529
vt 0.003356 0.962242
vt 0.013684 0.962193
vt 0.013554 0.953479
vt 0.975567 0.968251
vt 0.975449 0.960709
vt 0.898587 0.960825
vt 0.898704 0.968339
vt 0.975820 0.984513
vt 0.975684 0.975792
vt 0.898821 0.975853
vt 0.898957 0.984601
vt 0.898083 0.928473
vt 0.821220 0.928588
vt 0.821336 0.936051
vt 0.898199 0.935935
vt 0.975313 0.951996
vt 0.975178 0.943283
vt 0.898315 0.943398
vt 0.898451 0.952111
vt 0.231399 0.985616
vt 0.231520 0.994356
vt 0.325734 0.994213
vt 0.325291 0.985492
vt 0.418422 0.936658
vt 0.418935 0.929194
vt 0.324721 0.929336
vt 0.324531 0.936800
vt 0.230923 0.953118
vt 0.231074 0.961831
vt 0.324628 0.961690
vt 0.324484 0.952976
vt 0.231176 0.969353
vt 0.324738 0.969231
vt 0.721400 0.976150
vt 0.821958 0.975913
vt 0.821841 0.968427
vt 0.721282 0.968621
vt 0.620979 0.985076
vt 0.621117 0.993767
vt 0.721675 0.993616
vt 0.721537 0.984883
vt 0.620221 0.936354
vt 0.620337 0.943817
vt 0.720895 0.943665
vt 0.720779 0.936202
vt 0.620470 0.952530
vt 0.620603 0.961244
vt 0.721164 0.961092
vt 0.721029 0.952379
vt 0.519123 0.943969
vt 0.519258 0.952683
vt 0.620105 0.928891
vt 0.519520 0.929042
vt 0.519322 0.936506
vt 0.620842 0.976386
vt 0.519630 0.976526
vt 0.520081 0.985223
vt 0.620722 0.968815
vt 0.519392 0.961396
vt 0.519511 0.968961
vt 0.024520 0.994667
vt 0.128020 0.994511
vt 0.231278 0.976876
vt 0.230772 0.944404
vt 0.230640 0.936942
vt 0.230508 0.929479
vt 0.127009 0.929635
vt 0.023509 0.929791
vt 0.024012 0.962144
vt 0.127543 0.961987
vt 0.994130 0.943193
vt 0.984654 0.943238
vt 0.013424 0.944766
vt 0.003107 0.944815
vt 0.821724 0.960941
vt 0.822095 0.984689
vt 0.822232 0.993465
vt 0.899093 0.993349
vt 0.975955 0.993233
vt 0.821452 0.943514
vt 0.975062 0.935820
vt 0.974946 0.928357
vt 0.821588 0.952227
vt 0.419948 0.994071
vt 0.419183 0.985369
vt 0.418418 0.976667
vt 0.324848 0.976771
vt 0.324341 0.944263
vt 0.417909 0.944122
vt 0.418182 0.961548
vt 0.418045 0.952835
vt 0.418300 0.969108
vt 0.720663 0.928739
vt 0.520532 0.993919
vn 0.482399 0.775340 0.407603
vn 0.515961 0.775981 0.362819
vn -0.212699 0.949023 0.232624
vn -0.267901 0.928050 0.258753
vn -0.940055 -0.153301 -0.304624
vn -0.421055 -0.817091 -0.393796
vn -0.409404 -0.804681 -0.429973
vn -0.933779 -0.153116 -0.323437
vn -0.409404 -0.804681 -0.429973
vn -0.421055 -0.817091 -0.393796
vn 0.482260 -0.858285 -0.175423
vn 0.481182 -0.852128 -0.205770
vn 0.935451 0.205572 0.287526
vn 0.515961 0.775981 0.362819
vn 0.482399 0.775340 0.407603
vn 0.920177 0.223669 0.321321
vn -0.790457 0.268639 -0.550464
vn -0.810747 0.195754 -0.551698
vn -0.770081 0.207842 -0.603140
vn -0.752427 0.278256 -0.597015
vn 0.091084 0.789158 -0.607399
vn 0.093881 0.788867 -0.607351
vn 0.096289 0.787938 -0.608179
vn 0.093376 0.788279 -0.608192
vn -0.107795 -0.984995 0.134777
vn 0.705453 -0.701621 0.100314
vn 0.772400 -0.634005 0.037891
vn 0.104735 -0.969684 0.220780
vn -0.995350 -0.091733 0.029384
vn -0.748146 -0.656689 0.095070
vn -0.578859 -0.763297 0.286880
vn -0.962588 -0.164012 0.215694
vn -0.837345 0.546363 0.018442
vn -0.872594 0.467747 0.140687
vn -0.453350 0.865677 -0.212315
vn -0.376405 0.916499 -0.135456
vn 0.966346 -0.247082 0.071589
vn 0.730887 0.681899 0.028611
vn 0.565145 0.789805 -0.238368
vn 0.989293 -0.075735 -0.124753
vn -0.361873 0.860033 0.359710
vn -0.892421 0.448878 -0.045765
vn -0.897566 0.440879 0.001319
vn -0.474753 0.700967 0.532218
vn -0.740753 0.375609 -0.556959
vn -0.899644 0.434632 0.041653
vn -0.897566 0.440879 0.001319
vn -0.880455 0.006667 -0.474083
vn 0.482033 -0.821335 -0.305045
vn 0.918802 -0.386681 0.079254
vn 0.907905 -0.416627 0.046164
vn 0.526105 -0.701498 -0.480743
vn 0.907905 -0.416627 0.046164
vn 0.918802 -0.386681 0.079254
vn 0.888623 0.210233 0.407617
vn 0.844584 0.043150 0.533682
vn -0.275032 -0.763162 0.584758
vn -0.320465 -0.801632 0.504666
vn 0.336664 -0.899346 0.278989
vn 0.427763 -0.860812 0.275719
vn -0.828412 -0.141435 0.541969
vn -0.894715 0.412796 0.170540
vn -0.875711 0.434533 0.210503
vn -0.814699 -0.195900 0.545791
vn -0.462609 0.812298 -0.355197
vn 0.269444 0.702309 -0.658910
vn 0.259514 0.779049 -0.570732
vn -0.460999 0.851442 -0.250052
vn 0.781321 0.234222 -0.578513
vn 0.902485 -0.390914 -0.180853
vn 0.882135 -0.426317 -0.200228
vn 0.794123 0.265383 -0.546754
vn 0.781321 0.234222 -0.578513
vn 0.269444 0.702309 -0.658910
vn 0.235667 0.546192 -0.803825
vn 0.801038 0.064132 -0.595168
vn -0.462609 0.812298 -0.355197
vn -0.894715 0.412796 0.170540
vn -0.905686 0.413960 0.091488
vn -0.529971 0.697903 -0.481728
vn -0.828412 -0.141435 0.541969
vn -0.277588 -0.700113 0.657865
vn -0.262070 -0.544011 0.797102
vn -0.829240 -0.030016 0.558086
vn 0.489097 -0.805310 0.335053
vn 0.902485 -0.390914 -0.180853
vn 0.904825 -0.414940 -0.095475
vn 0.528933 -0.701678 0.477365
vn -0.212699 0.949023 0.232624
vn -0.860744 0.503692 -0.073586
vn -0.873733 0.481056 -0.071943
vn -0.267901 0.928050 0.258753
vn -0.873733 0.481056 -0.071943
vn -0.892421 0.448878 -0.045765
vn -0.361873 0.860033 0.359710
vn -0.267901 0.928050 0.258753
vn -0.361873 0.860033 0.359710
vn 0.412792 0.730523 0.544003
vn 0.482399 0.775340 0.407603
vn -0.267901 0.928050 0.258753
vn -0.409404 -0.804681 -0.429973
vn -0.386802 -0.745447 -0.542856
vn -0.918098 -0.129505 -0.374600
vn -0.933779 -0.153116 -0.323437
vn -0.918098 -0.129505 -0.374600
vn -0.892421 0.448878 -0.045765
vn -0.873733 0.481056 -0.071943
vn -0.933779 -0.153116 -0.323437
vn -0.873733 0.481056 -0.071943
vn -0.860744 0.503692 -0.073586
vn -0.940055 -0.153301 -0.304624
vn -0.933779 -0.153116 -0.323437
vn 0.482260 -0.858285 -0.175423
vn 0.903196 -0.422911 0.073375
vn 0.911318 -0.403838 0.080092
vn 0.481182 -0.852128 -0.205770
vn 0.911318 -0.403838 0.080092
vn 0.918802 -0.386681 0.079254
vn 0.482033 -0.821335 -0.305045
vn 0.481182 -0.852128 -0.205770
vn 0.482033 -0.821335 -0.305045
vn -0.386802 -0.745447 -0.542856
vn -0.409404 -0.804681 -0.429973
vn 0.481182 -0.852128 -0.205770
vn 0.482399 0.775340 0.407603
vn 0.412792 0.730523 0.544003
vn 0.888623 0.210233 0.407617
vn 0.920177 0.223669 0.321321
vn 0.888623 0.210233 0.407617
vn 0.918802 -0.386681 0.079254
vn 0.911318 -0.403838 0.080092
vn 0.920177 0.223669 0.321321
vn 0.911318 -0.403838 0.080092
vn 0.903196 -0.422911 0.073375
vn 0.935451 0.205572 0.287526
vn 0.920177 0.223669 0.321321
vn -0.770081 0.207842 -0.603140
vn -0.725991 0.219006 -0.651900
vn -0.711627 0.286837 -0.641336
vn -0.752427 0.278256 -0.597015
vn -0.711627 0.286837 -0.641336
vn -0.693761 0.353258 -0.627618
vn -0.730797 0.347144 -0.587730
vn -0.752427 0.278256 -0.597015
vn -0.730797 0.347144 -0.587730
vn -0.765641 0.339988 -0.546079
vn -0.790457 0.268639 -0.550464
vn -0.752427 0.278256 -0.597015
vn 0.096289 0.787938 -0.608179
vn 0.098697 0.787003 -0.609004
vn 0.095667 0.787394 -0.608982
vn 0.093376 0.788279 -0.608192
vn 0.095667 0.787394 -0.608982
vn 0.092636 0.787779 -0.608953
vn 0.090461 0.788613 -0.608199
vn 0.093376 0.788279 -0.608192
vn 0.090461 0.788613 -0.608199
vn 0.088286 0.789442 -0.607442
vn 0.091084 0.789158 -0.607399
vn 0.093376 0.788279 -0.608192
vn 0.772400 -0.634005 0.037891
vn 0.853729 -0.511159 -0.099312
vn 0.336664 -0.899346 0.278989
vn 0.104735 -0.969684 0.220780
vn 0.336664 -0.899346 0.278989
vn -0.320465 -0.801632 0.504666
vn -0.578859 -0.763297 0.286880
vn 0.104735 -0.969684 0.220780
vn -0.578859 -0.763297 0.286880
vn -0.748146 -0.656689 0.095070
vn -0.107795 -0.984995 0.134777
vn 0.104735 -0.969684 0.220780
vn -0.578859 -0.763297 0.286880
vn -0.320465 -0.801632 0.504666
vn -0.855997 -0.230279 0.462862
vn -0.962588 -0.164012 0.215694
vn -0.855997 -0.230279 0.462862
vn -0.872594 0.467747 0.140687
vn -0.837345 0.546363 0.018442
vn -0.962588 -0.164012 0.215694
vn -0.837345 0.546363 0.018442
vn -0.799072 0.599897 -0.040093
vn -0.995350 -0.091733 0.029384
vn -0.962588 -0.164012 0.215694
vn -0.453350 0.865677 -0.212315
vn 0.325261 0.815426 -0.478837
vn 0.565145 0.789805 -0.238368
vn -0.376405 0.916499 -0.135456
vn 0.565145 0.789805 -0.238368
vn 0.730887 0.681899 0.028611
vn -0.303608 0.951343 -0.052618
vn -0.376405 0.916499 -0.135456
vn -0.303608 0.951343 -0.052618
vn -0.799072 0.599897 -0.040093
vn -0.837345 0.546363 0.018442
vn -0.376405 0.916499 -0.135456
vn 0.565145 0.789805 -0.238368
vn 0.325261 0.815426 -0.478837
vn 0.890516 0.184741 -0.415755
vn 0.989293 -0.075735 -0.124753
vn 0.890516 0.184741 -0.415755
vn 0.853729 -0.511159 -0.099312
vn 0.772400 -0.634005 0.037891
vn 0.989293 -0.075735 -0.124753
vn 0.772400 -0.634005 0.037891
vn 0.705453 -0.701621 0.100314
vn 0.966346 -0.247082 0.071589
vn 0.989293 -0.075735 -0.124753
vn -0.897566 0.440879 0.001319
vn -0.899644 0.434632 0.041653
vn -0.702320 0.329077 0.631233
vn -0.474753 0.700967 0.532218
vn -0.702320 0.329077 0.631233
vn -0.004105 -0.027338 0.999618
vn 0.302712 0.534502 0.789097
vn -0.474753 0.700967 0.532218
vn 0.302712 0.534502 0.789097
vn 0.412792 0.730523 0.544003
vn -0.361873 0.860033 0.359710
vn -0.474753 0.700967 0.532218
vn -0.897566 0.440879 0.001319
vn -0.892421 0.448878 -0.045765
vn -0.918098 -0.129505 -0.374600
vn -0.880455 0.006667 -0.474083
vn -0.918098 -0.129505 -0.374600
vn -0.386802 -0.745447 -0.542856
vn -0.318306 -0.546591 -0.774545
vn -0.880455 0.006667 -0.474083
vn -0.318306 -0.546591 -0.774545
vn -0.037479 0.027062 -0.998931
vn -0.740753 0.375609 -0.556959
vn -0.880455 0.006667 -0.474083
vn 0.907905 -0.416627 0.046164
vn 0.897046 -0.441603 -0.017202
vn 0.703984 -0.344776 -0.620916
vn 0.526105 -0.701498 -0.480743
vn 0.703984 -0.344776 -0.620916
vn -0.037479 0.027062 -0.998931
vn -0.318306 -0.546591 -0.774545
vn 0.526105 -0.701498 -0.480743
vn -0.318306 -0.546591 -0.774545
vn -0.386802 -0.745447 -0.542856
vn 0.482033 -0.821335 -0.305045
vn 0.526105 -0.701498 -0.480743
vn 0.888623 0.210233 0.407617
vn 0.412792 0.730523 0.544003
vn 0.302712 0.534502 0.789097
vn 0.844584 0.043150 0.533682
vn 0.302712 0.534502 0.789097
vn -0.004105 -0.027338 0.999618
vn 0.705447 -0.369753 0.604670
vn 0.844584 0.043150 0.533682
vn 0.705447 -0.369753 0.604670
vn 0.897046 -0.441603 -0.017202
vn 0.907905 -0.416627 0.046164
vn 0.844584 0.043150 0.533682
vn 0.336664 -0.899346 0.278989
vn 0.853729 -0.511159 -0.099312
vn 0.882135 -0.426317 -0.200228
vn 0.427763 -0.860812 0.275719
vn 0.882135 -0.426317 -0.200228
vn 0.902485 -0.390914 -0.180853
vn 0.489097 -0.805310 0.335053
vn 0.427763 -0.860812 0.275719
vn 0.489097 -0.805310 0.335053
vn -0.277588 -0.700113 0.657865
vn -0.275032 -0.763162 0.584758
vn 0.427763 -0.860812 0.275719
vn -0.875711 0.434533 0.210503
vn -0.872594 0.467747 0.140687
vn -0.855997 -0.230279 0.462862
vn -0.814699 -0.195900 0.545791
vn -0.855997 -0.230279 0.462862
vn -0.320465 -0.801632 0.504666
vn -0.275032 -0.763162 0.584758
vn -0.814699 -0.195900 0.545791
vn -0.275032 -0.763162 0.584758
vn -0.277588 -0.700113 0.657865
vn -0.828412 -0.141435 0.541969
vn -0.814699 -0.195900 0.545791
vn 0.259514 0.779049 -0.570732
vn 0.325261 0.815426 -0.478837
vn -0.453350 0.865677 -0.212315
vn -0.460999 0.851442 -0.250052
vn -0.453350 0.865677 -0.212315
vn -0.872594 0.467747 0.140687
vn -0.875711 0.434533 0.210503
vn -0.460999 0.851442 -0.250052
vn -0.875711 0.434533 0.210503
vn -0.894715 0.412796 0.170540
vn -0.462609 0.812298 -0.355197
vn -0.460999 0.851442 -0.250052
vn 0.882135 -0.426317 -0.200228
vn 0.853729 -0.511159 -0.099312
vn 0.890516 0.184741 -0.415755
vn 0.794123 0.265383 -0.546754
vn 0.890516 0.184741 -0.415755
vn 0.325261 0.815426 -0.478837
vn 0.259514 0.779049 -0.570732
vn 0.794123 0.265383 -0.546754
vn 0.259514 0.779049 -0.570732
vn 0.269444 0.702309 -0.658910
vn 0.781321 0.234222 -0.578513
vn 0.794123 0.265383 -0.546754
vn 0.235667 0.546192 -0.803825
vn -0.037479 0.027062 -0.998931
vn 0.703984 -0.344776 -0.620916
vn 0.801038 0.064132 -0.595168
vn 0.703984 -0.344776 -0.620916
vn 0.897046 -0.441603 -0.017202
vn 0.904825 -0.414940 -0.095475
vn 0.801038 0.064132 -0.595168
vn 0.904825 -0.414940 -0.095475
vn 0.902485 -0.390914 -0.180853
vn 0.781321 0.234222 -0.578513
vn 0.801038 0.064132 -0.595168
vn -0.905686 0.413960 0.091488
vn -0.899644 0.434632 0.041653
vn -0.740753 0.375609 -0.556959
vn -0.529971 0.697903 -0.481728
vn -0.740753 0.375609 -0.556959
vn -0.037479 0.027062 -0.998931
vn 0.235667 0.546192 -0.803825
vn -0.529971 0.697903 -0.481728
vn 0.235667 0.546192 -0.803825
vn 0.269444 0.702309 -0.658910
vn -0.462609 0.812298 -0.355197
vn -0.529971 0.697903 -0.481728
vn -0.262070 -0.544011 0.797102
vn -0.004105 -0.027338 0.999618
vn -0.702320 0.329077 0.631233
vn -0.829240 -0.030016 0.558086
vn -0.702320 0.329077 0.631233
vn -0.899644 0.434632 0.041653
vn -0.905686 0.413960 0.091488
vn -0.829240 -0.030016 0.558086
vn -0.905686 0.413960 0.091488
vn -0.894715 0.412796 0.170540
vn -0.828412 -0.141435 0.541969
vn -0.829240 -0.030016 0.558086
vn 0.904825 -0.414940 -0.095475
vn 0.897046 -0.441603 -0.017202
vn 0.705447 -0.369753 0.604670
vn 0.528933 -0.701678 0.477365
vn 0.705447 -0.369753 0.604670
vn -0.004105 -0.027338 0.999618
vn -0.262070 -0.544011 0.797102
vn 0.528933 -0.701678 0.477365
vn -0.262070 -0.544011 0.797102
vn -0.277588 -0.700113 0.657865
vn 0.489097 -0.805310 0.335053
vn 0.528933 -0.701678 0.477365
s off
f 1/1/1 2/2/2 3/3/3 4/4/4
f 5/5/5 6/6/6 7/7/7 8/8/8
f 7/7/9 6/6/10 9/9/11 10/10/12
f 11/11/13 2/2/14 1/1/15 12/12/16
f 13/13/17 14/14/18 15/15/19 16/16/20
f 3/17/21 2/18/22 11/19/23 17/20/24
f 13/21/25 18/22/26 19/23/27 20/24/28
f 15/25/29 14/26/30 21/27/31 22/28/32
f 23/29/33 24/30/34 25/31/35 26/32/36
f 27/33/37 28/34/38 29/35/39 30/36/40
f 31/37/41 32/38/42 33/39/43 34/40/44
f 35/41/45 36/42/46 33/43/47 37/44/48
f 38/45/49 39/46/50 40/47/51 41/48/52
f 40/47/53 39/46/54 42/49/55 43/50/56
f 44/51/57 45/52/58 46/53/59 47/54/60
f 48/55/61 49/56/62 50/57/63 51/58/64
f 52/59/65 53/60/66 54/61/67 55/62/68
f 56/63/69 57/64/70 58/65/71 59/66/72
f 56/63/73 53/60/74 60/67/75 61/68/76
f 52/59/77 49/69/78 62/70/79 63/71/80
f 48/55/81 64/72/82 65/73/83 66/74/84
f 67/75/85 57/64/86 68/76/87 69/77/88
f 3/3/89 70/78/90 71/79/91 4/4/92
f 71/79/93 32/38/94 31/37/95 4/4/96
f 31/37/97 72/80/98 1/1/99 4/4/100
f 7/7/101 73/81/102 74/82/103 8/8/104
f 74/82/105 32/83/106 71/84/107 8/8/108
f 71/84/109 70/85/110 5/5/111 8/8/112
f 9/9/113 75/86/114 76/87/115 10/10/116
f 76/87/117 39/46/118 38/45/119 10/10/120
f 38/45/121 73/81/122 7/7/123 10/10/124
f 1/1/125 72/80/126 42/49/127 12/12/128
f 42/49/129 39/46/130 76/87/131 12/12/132
f 76/87/133 75/86/134 11/11/135 12/12/136
f 15/15/137 77/88/138 78/89/139 16/16/140
f 78/89/141 28/34/142 27/33/143 16/16/144
f 27/33/145 18/22/146 13/13/147 16/16/148
f 11/19/149 75/86/150 9/9/151 17/20/152
f 9/9/153 6/6/154 5/90/155 17/20/156
f 5/90/157 70/91/158 3/17/159 17/20/160
f 19/23/161 79/92/162 46/53/163 20/24/164
f 46/53/165 45/52/166 21/27/167 20/24/168
f 21/27/169 14/26/170 13/21/171 20/24/172
f 21/27/173 45/52/174 80/93/175 22/28/176
f 80/93/177 24/94/178 23/95/179 22/28/180
f 23/95/181 77/96/182 15/25/183 22/28/184
f 25/31/185 81/97/186 29/35/187 26/32/188
f 29/35/189 28/34/190 78/98/191 26/32/192
f 78/98/193 77/99/194 23/29/195 26/32/196
f 29/35/197 81/97/198 82/100/199 30/36/200
f 82/100/201 79/92/202 19/23/203 30/36/204
f 19/23/205 18/22/206 27/33/207 30/36/208
f 33/39/209 36/101/210 83/102/211 34/40/212
f 83/102/213 84/103/214 85/104/215 34/40/216
f 85/104/217 72/80/218 31/37/219 34/40/220
f 33/43/221 32/83/222 74/82/223 37/44/224
f 74/82/225 73/81/226 86/105/227 37/44/228
f 86/105/229 87/106/230 35/41/231 37/44/232
f 40/47/233 88/107/234 89/108/235 41/48/236
f 89/108/237 87/106/238 86/105/239 41/48/240
f 86/105/241 73/81/242 38/45/243 41/48/244
f 42/49/245 72/80/246 85/104/247 43/50/248
f 85/104/249 84/103/250 90/109/251 43/50/252
f 90/109/253 88/107/254 40/47/255 43/50/256
f 46/53/257 79/92/258 58/65/259 47/54/260
f 58/65/261 57/64/262 67/75/263 47/54/264
f 67/75/265 64/72/266 44/51/267 47/54/268
f 50/57/269 24/94/270 80/93/271 51/58/272
f 80/93/273 45/52/274 44/51/275 51/58/276
f 44/51/277 64/72/278 48/55/279 51/58/280
f 54/61/281 81/97/282 25/31/283 55/62/284
f 25/31/285 24/30/286 50/110/287 55/62/288
f 50/110/289 49/69/290 52/59/291 55/62/292
f 58/65/293 79/92/294 82/100/295 59/66/296
f 82/100/297 81/97/298 54/61/299 59/66/300
f 54/61/301 53/60/302 56/63/303 59/66/304
f 60/67/305 87/106/306 89/108/307 61/68/308
f 89/108/309 88/107/310 68/76/311 61/68/312
f 68/76/313 57/64/314 56/63/315 61/68/316
f 62/70/317 36/42/318 35/41/319 63/71/320
f 35/41/321 87/106/322 60/67/323 63/71/324
f 60/67/325 53/60/326 52/59/327 63/71/328
f 65/73/329 84/103/330 83/102/331 66/74/332
f 83/102/333 36/101/334 62/111/335 66/74/336
f 62/111/337 49/56/338 48/55/339 66/74/340
f 68/76/341 88/107/342 90/109/343 69/77/344
f 90/109/345 84/103/346 65/73/347 69/77/348
f 65/73/349 64/72/350 67/75/351 69/77/352
