# This file uses millimeters as units for non-parametric coordinates.

v -0.343391 -2.334094 4.998332
v -0.173273 -2.295465 4.881222
v -0.261377 -1.966404 5.006134
v -0.470378 -1.929166 5.144265
v -0.449548 -1.731776 5.570943
v -0.267115 -1.687504 5.690454
v -0.133995 -2.512982 5.604352
v -0.297764 -2.475705 5.422654
v -0.398074 -2.377788 5.277424
v -0.528492 -1.830471 5.357605
v -0.317397 -2.903358 4.937694
v -0.374515 -2.973595 5.164295
v -0.374293 -3.490414 4.988860
v -0.314531 -3.441332 4.825886
v -0.308960 -4.084484 4.988417
v -0.386378 -4.006769 4.792285
v -0.301568 -3.533389 5.152538
v -0.299862 -3.043650 5.327779
v -0.329851 -3.963172 4.686907
v -0.159617 -3.431346 4.698334
v -0.160791 -2.883440 4.823882
v -0.134938 -3.073722 5.464311
v -0.136932 -3.556942 5.229434
v -0.140561 -4.095864 5.079066
v -0.167942 -3.928931 4.524419
v 0.000000 -3.923567 4.504341
v 0.000000 -3.420827 4.673413
v 0.000000 -2.862771 4.783729
v 0.000000 -2.255430 4.824420
v 0.000000 -2.003641 4.868002
v 0.000000 -1.643232 5.809965
v 0.000000 -2.543846 5.660160
v 0.000000 -3.098755 5.512183
v 0.000000 -3.576674 5.277366
v 0.000000 -4.105284 5.089878
vt 0.446963 0.215986
vt 0.467049 0.211556
vt 0.464809 0.258473
vt 0.446791 0.271562
vt 0.400793 0.317726
vt 0.378245 0.323838
vt 0.381078 0.248357
vt 0.403357 0.239877
vt 0.425442 0.227973
vt 0.422324 0.297284
vt 0.448598 0.152811
vt 0.429122 0.158751
vt 0.434206 0.089792
vt 0.451715 0.086817
vt 0.416752 0.021571
vt 0.442144 0.021075
vt 0.413852 0.092513
vt 0.408278 0.164427
vt 0.455211 0.020964
vt 0.468851 0.083736
vt 0.466558 0.149664
vt 0.386801 0.166601
vt 0.396180 0.094261
vt 0.404705 0.024532
vt 0.474187 0.016978
vt 0.491845 0.015920
vt 0.482969 0.081492
vt 0.481755 0.150574
vt 0.489832 0.209297
vt 0.487233 0.247848
vt 0.351297 0.331281
vt 0.355944 0.257907
vt 0.361682 0.168897
vt 0.379350 0.093386
vt 0.390786 0.027742
vn 0.832385 0.004723 0.554178
vn 0.462098 -0.120597 0.878591
vn 0.479596 -0.170228 0.860819
vn 0.828999 0.039254 0.557870
vn 0.763605 0.249865 -0.595378
vn 0.520280 0.192223 -0.832081
vn 0.538911 0.191058 -0.820409
vn 0.786320 0.185865 -0.589198
vn 0.979994 0.155137 -0.124679
vn 0.959768 0.251684 -0.124506
vn 0.832455 -0.077121 0.548700
vn 0.995058 0.043491 -0.089264
vn 0.999597 0.005819 -0.027791
vn 0.824469 -0.157317 0.543601
vn 0.740450 0.184286 -0.646353
vn 0.999811 -0.019422 -0.000260
vn 0.755072 0.210106 -0.621065
vn 0.788484 0.177658 -0.588839
vn 0.819801 -0.189356 0.540436
vn 0.426769 -0.239248 0.872141
vn 0.434516 -0.129775 0.891266
vn 0.510764 0.280728 -0.812596
vn 0.403532 0.320028 -0.857172
vn 0.344383 0.269812 -0.899223
vn 0.428084 -0.289198 0.856218
vn 0.144160 -0.322026 0.935691
vn 0.179443 -0.263415 0.947846
vn 0.252897 -0.139757 0.957346
vn 0.347695 -0.137280 0.927503
vn 0.402151 -0.198289 0.893843
vn 0.391381 0.154175 -0.907222
vn 0.391632 0.192093 -0.899847
vn 0.378573 0.320595 -0.868275
vn 0.296403 0.352624 -0.887582
vn 0.227383 0.293126 -0.928641
s 1
f 1/1/1 2/2/2 3/3/3 4/4/4
f 5/5/5 6/6/6 7/7/7 8/8/8
f 9/9/9 10/10/10 5/5/5 8/8/8
f 1/1/1 4/4/4 10/10/10 9/9/9
f 11/11/11 1/1/1 9/9/9 12/12/12
f 11/11/11 12/12/12 13/13/13 14/14/14
f 15/15/15 16/16/16 13/13/13 17/17/17
f 13/13/13 12/12/12 18/18/18 17/17/17
f 16/16/16 19/19/19 14/14/14 13/13/13
f 11/11/11 14/14/14 20/20/20 21/21/21
f 11/11/11 21/21/21 2/2/2 1/1/1
f 12/12/12 9/9/9 8/8/8 18/18/18
f 18/18/18 8/8/8 7/7/7 22/22/22
f 18/18/18 22/22/22 23/23/23 17/17/17
f 17/17/17 23/23/23 24/24/24 15/15/15
f 19/19/19 25/25/25 20/20/20 14/14/14
f 20/20/20 25/25/25 26/26/26 27/27/27
f 21/21/21 20/20/20 27/27/27 28/28/28
f 2/2/2 21/21/21 28/28/28 29/29/29
f 3/3/3 2/2/2 29/29/29 30/30/30
f 6/6/6 31/31/31 32/32/32 7/7/7
f 22/22/22 7/7/7 32/32/32 33/33/33
f 23/23/23 22/22/22 33/33/33 34/34/34
f 24/24/24 23/23/23 34/34/34 35/35/35
