# This file uses millimeters as units for non-parametric coordinates.

v 0.000000 -4.105284 5.089878
v 0.308960 -4.084484 4.988417
v 0.454102 -4.160522 5.096838
v 0.000000 -4.200680 5.243117
v 0.386378 -4.006769 4.792285
v 0.577142 -4.067400 4.796799
v 0.329851 -3.963172 4.686907
v 0.471900 -4.010399 4.573089
v 0.000000 -3.923567 4.504341
v 0.000000 -3.935457 4.330522
v 0.000000 -2.254818 4.820687
v 0.346667 -2.334030 4.995965
v 0.300935 -2.476407 5.425060
v 0.000000 -2.544627 5.663799
v 0.402026 -2.378455 5.277951
v 0.320779 -2.903057 4.935501
v 0.378530 -2.973779 5.164721
v 0.378333 -3.490458 4.988986
v 0.317869 -3.440718 4.823691
v 0.304627 -3.534248 5.155035
v 0.303026 -3.044386 5.330184
v 0.000000 -2.862220 4.779859
v 0.000000 -3.419780 4.669577
v 0.000000 -3.100063 5.515695
v 0.000000 -3.578114 5.280950
v 0.000000 -2.295341 4.597023
v 0.541944 -2.379188 4.898486
v 0.510383 -2.481220 5.584976
v 0.000000 -2.538788 5.892790
v 0.665686 -2.409138 5.309072
v 0.525051 -2.906571 4.798015
v 0.632398 -2.984837 5.190323
v 0.628147 -3.509947 5.009008
v 0.510212 -3.425159 4.689245
v 0.501055 -3.600969 5.308582
v 0.500165 -3.073071 5.483780
v 0.000000 -2.865426 4.541101
v 0.000000 -3.393393 4.435073
v 0.000000 -3.139894 5.754758
v 0.000000 -3.655827 5.512176
v 0.470378 -1.929166 5.144265
v 0.000000 -2.003641 4.868002
v 0.000000 -1.643232 5.809965
v 0.449548 -1.731776 5.570943
v 0.528492 -1.830471 5.357605
v 0.711537 -1.943338 4.966491
v 0.000000 -2.041507 4.617455
v 0.000000 -1.655579 6.004488
v 0.692028 -1.731379 5.673504
v 0.818476 -1.837358 5.319998
v 0.355769 -1.992422 4.703465
v 0.274171 -2.329976 4.677869
v 0.265321 -2.886272 4.608507
v 0.258686 -3.409487 4.487150
v 0.239124 -3.958102 4.364315
v 0.167942 -3.928931 4.524419
v 0.161356 -3.430388 4.694813
v 0.162551 -2.882909 4.820282
v 0.175091 -2.294951 4.877649
v 0.261377 -1.966404 5.006134
v 0.267115 -1.687504 5.690454
v 0.136136 -2.513732 5.607697
v 0.136989 -3.074848 5.467607
v 0.138572 -3.558248 5.232889
v 0.140561 -4.095864 5.079066
v 0.206475 -4.182493 5.203182
v 0.226660 -3.630983 5.454380
v 0.226442 -3.109632 5.693967
v 0.231730 -2.512717 5.831066
v 0.346014 -1.693479 5.965682
v 0.481038 -4.065949 4.794525
v 0.380982 -4.151310 5.042217
v 0.173269 -4.167945 5.140655
v 0.000000 -4.181715 5.165917
v 0.000000 -3.958561 4.418089
v 0.203264 -3.972501 4.444972
v 0.400338 -4.016321 4.628732
v 0.000000 -3.619193 5.403175
v 0.000000 -3.121118 5.642063
v 0.000000 -2.541541 5.784843
v 0.000000 -1.649405 5.907227
v 0.309429 -1.690639 5.827814
v 0.613129 -1.731577 5.622224
v 0.629247 -1.838889 5.323525
v 0.617146 -1.936252 5.055378
v 0.314607 -1.980652 4.888194
v 0.000000 -2.022574 4.742728
v 0.000000 -2.276238 4.702459
v 0.000000 -2.863914 4.653652
v 0.000000 -3.405832 4.545619
vt 0.369223 0.348384
vt 0.364392 0.342802
vt 0.346305 0.343835
vt 0.354094 0.349523
vt 0.404590 0.347709
vt 0.401233 0.342256
vt 0.427525 0.346726
vt 0.428263 0.341462
vt 0.454498 0.345680
vt 0.462625 0.340107
vt 0.413706 0.434379
vt 0.413512 0.455507
vt 0.433963 0.450009
vt 0.436506 0.432518
vt 0.361300 0.474898
vt 0.364211 0.444414
vt 0.338923 0.447976
vt 0.335706 0.477465
vt 0.389279 0.439414
vt 0.385740 0.466311
vt 0.415562 0.407842
vt 0.393456 0.410337
vt 0.419100 0.380121
vt 0.399226 0.381371
vt 0.379415 0.353942
vt 0.376123 0.382514
vt 0.408237 0.353734
vt 0.369796 0.412722
vt 0.423068 0.353688
vt 0.435949 0.406520
vt 0.438551 0.378827
vt 0.345419 0.413634
vt 0.356064 0.383248
vt 0.365740 0.355186
vt 0.444607 0.352013
vt 0.090291 0.460978
vt 0.089458 0.439046
vt 0.059666 0.439042
vt 0.056844 0.455779
vt 0.185471 0.444055
vt 0.183540 0.481692
vt 0.224593 0.488780
vt 0.221101 0.446869
vt 0.145643 0.443160
vt 0.136348 0.470999
vt 0.139651 0.413224
vt 0.085042 0.411703
vt 0.124055 0.384787
vt 0.079324 0.384667
vt 0.167323 0.385011
vt 0.148371 0.354562
vt 0.105023 0.354445
vt 0.182056 0.413512
vt 0.073879 0.354313
vt 0.054468 0.409660
vt 0.052580 0.383235
vt 0.212831 0.415544
vt 0.192720 0.385895
vt 0.172477 0.357037
vt 0.045485 0.354532
vt 0.022636 0.444405
vt 0.020979 0.457187
vt 0.025004 0.415565
vt 0.019746 0.388060
vt 0.014948 0.359889
vt 0.475408 0.346915
vt 0.485893 0.343632
vt 0.453098 0.377884
vt 0.462189 0.352553
vt 0.451721 0.406902
vt 0.460889 0.431569
vt 0.457939 0.445546
vt 0.311870 0.451988
vt 0.308074 0.480592
vt 0.318384 0.414598
vt 0.338439 0.382880
vt 0.351419 0.356535
vt 0.325537 0.345738
vt 0.337863 0.351551
vt 0.216762 0.387714
vt 0.189461 0.357017
vt 0.240933 0.416598
vt 0.249277 0.448155
vt 0.249066 0.493211
vt 0.481587 0.453207
vt 0.468375 0.452152
vt 0.435252 0.457436
vt 0.438593 0.463300
vt 0.417046 0.462437
vt 0.421536 0.469314
vt 0.390043 0.472099
vt 0.393764 0.477945
vt 0.357778 0.483916
vt 0.360462 0.488558
vt 0.326828 0.486422
vt 0.320217 0.493849
vt 0.293678 0.486898
vt 0.284964 0.491418
vt 0.294183 0.454581
vt 0.279728 0.456893
vt 0.299393 0.416139
vt 0.283775 0.417513
vt 0.319515 0.383375
vt 0.303956 0.383815
vt 0.471593 0.376051
vt 0.486769 0.374417
vt 0.470136 0.404272
vt 0.485240 0.401927
vt 0.477768 0.430824
vt 0.491502 0.430449
vn -0.172519 -0.894774 -0.411847
vn 0.017329 -0.969266 -0.245403
vn 0.017784 -0.975661 -0.218564
vn -0.068709 -0.879341 -0.471209
vn -0.264956 -0.928094 -0.261611
vn -0.005907 -0.963269 -0.268474
vn -0.290353 -0.955965 -0.042746
vn -0.050416 -0.975659 -0.213421
vn -0.168966 -0.983224 0.068712
vn -0.049594 -0.977184 -0.206524
vn -0.832572 -0.000138 0.553918
vn -0.829431 0.029413 0.557834
vn -0.478414 -0.181663 0.859138
vn -0.461455 -0.126410 0.878112
vn -0.764870 0.244567 -0.595954
vn -0.786896 0.183190 -0.589268
vn -0.538070 0.188923 -0.821455
vn -0.520361 0.187681 -0.833066
vn -0.980648 0.151463 -0.124055
vn -0.961657 0.244690 -0.123867
vn -0.832675 -0.077102 0.548369
vn -0.995084 0.043431 -0.089002
vn -0.824726 -0.153672 0.544253
vn -0.999597 0.009375 -0.026793
vn -0.740710 0.191184 -0.644048
vn -0.755284 0.213457 -0.619663
vn -0.999923 -0.012277 0.001740
vn -0.788721 0.177627 -0.588530
vn -0.820260 -0.182227 0.542187
vn -0.434334 -0.129813 0.891349
vn -0.426893 -0.235591 0.873075
vn -0.509344 0.280960 -0.813406
vn -0.402903 0.323353 -0.856219
vn -0.344388 0.276435 -0.897207
vn -0.428469 -0.281870 0.858465
vn 0.811754 -0.200587 -0.548471
vn 0.828380 -0.069510 -0.555837
vn 0.449743 0.038027 -0.892348
vn 0.442292 -0.032157 -0.896294
vn 0.781370 -0.191909 0.593828
vn 0.773000 -0.244066 0.585579
vn 0.415364 -0.195449 0.888410
vn 0.442405 -0.193655 0.875657
vn 0.982254 -0.169278 0.080757
vn 0.956340 -0.280598 0.081721
vn 0.997226 -0.044303 0.059807
vn 0.825801 0.089365 -0.556836
vn 0.998022 -0.062412 0.007527
vn 0.816867 0.098963 -0.568273
vn 0.748549 -0.266830 0.607022
vn 0.727652 -0.306700 0.613561
vn 0.995504 -0.090994 -0.026314
vn 0.778398 -0.182940 0.600524
vn 0.813049 0.081712 -0.576432
vn 0.442217 0.146915 -0.884794
vn 0.430251 0.176416 -0.885303
vn 0.443676 -0.277644 0.852095
vn 0.377128 -0.378869 0.845123
vn 0.338363 -0.396454 0.853426
vn 0.431769 0.166769 -0.886433
vn 0.264384 0.072150 -0.961715
vn 0.254985 0.040010 -0.966117
vn 0.252761 0.154481 -0.955117
vn 0.206487 0.201005 -0.957580
vn 0.181544 0.197580 -0.963330
vn -0.751044 -0.657188 0.063530
vn -0.724311 -0.671380 -0.156918
vn -0.179258 -0.259904 0.948850
vn -0.144364 -0.315049 0.938032
vn -0.251807 -0.139884 0.957615
vn -0.345956 -0.143769 0.927171
vn -0.400057 -0.210919 0.891890
vn -0.389495 0.190185 -0.901179
vn -0.390576 0.149964 -0.908274
vn -0.375337 0.320955 -0.869546
vn -0.294598 0.356002 -0.886834
vn -0.226892 0.299728 -0.926652
vn -0.692810 -0.699646 -0.174669
vn -0.720759 -0.597602 -0.351252
vn 0.258322 -0.412486 0.873570
vn 0.239251 -0.419851 0.875491
vn 0.278502 -0.312149 0.908295
vn 0.222169 -0.184592 0.957375
vn 0.166412 -0.152128 0.974251
vn -0.351476 -0.757230 -0.550515
vn -0.512489 -0.825662 -0.235876
vn -0.150259 -0.710602 -0.687362
vn -0.718802 -0.475291 -0.507368
vn -0.741256 -0.611898 0.275900
vn -0.274834 -0.898423 0.342495
vn -0.507098 -0.851489 0.133487
vn -0.740289 0.668117 -0.074784
vn -0.734726 0.672609 -0.088179
vn -0.073164 0.988664 -0.131112
vn -0.084364 0.990614 -0.107545
vn -0.083572 0.969223 -0.231566
vn -0.075667 0.976590 -0.201363
vn -0.024674 0.943159 -0.331425
vn -0.015262 0.954021 -0.299350
vn 0.074681 0.976190 -0.203657
vn 0.069120 0.982586 -0.172473
vn 0.117581 0.992679 -0.027632
vn 0.106421 0.994261 -0.010958
vn -0.656936 0.753855 0.011758
vn -0.662120 0.749263 0.014245
vn -1.000000 0.000000 0.000000
vn -1.000000 0.000000 0.000000
vn -1.000000 0.000000 0.000000
vn -1.000000 0.000000 0.000000
vn -1.000000 0.000000 0.000000
vn -1.000000 0.000000 0.000000
vn -1.000000 0.000000 0.000000
vn -1.000000 0.000000 0.000000
vn -1.000000 0.000000 0.000000
vn -1.000000 0.000000 0.000000
vn -1.000000 0.000000 0.000000
vn -1.000000 0.000000 0.000000
vn -1.000000 0.000000 0.000000
vn -1.000000 0.000000 0.000000
vn -1.000000 0.000000 0.000000
vn -0.651631 0.758480 0.009231
vn 0.128706 0.990692 -0.044317
vn 0.080168 0.968769 -0.234646
vn -0.034073 0.931109 -0.363147
vn -0.091400 0.960850 -0.261560
vn -0.061913 0.986037 -0.154588
vn -0.728903 0.677012 -0.101762
vn -1.000000 0.000000 0.000000
vn -1.000000 0.000000 0.000000
vn -1.000000 0.000000 0.000000
s 1
f 72/1/1 3/2/2 66/3/3 73/4/4
f 72/1/1 71/5/5 6/6/6 3/2/2
f 77/7/7 8/8/8 6/6/6 71/5/5
f 76/9/9 55/10/10 8/8/8 77/7/7
s 2
f 12/11/11 41/12/12 60/13/13 59/14/14
f 44/15/15 13/16/16 62/17/17 61/18/18
f 15/19/19 13/16/16 44/15/15 45/20/20
f 12/11/11 15/19/19 45/20/20 41/12/12
f 16/21/21 17/22/22 15/19/19 12/11/11
f 16/21/21 19/23/23 18/24/24 17/22/22
f 2/25/25 20/26/26 18/24/24 5/27/27
f 18/24/24 20/26/26 21/28/28 17/22/22
f 5/27/27 18/24/24 19/23/23 7/29/29
f 16/21/21 58/30/30 57/31/31 19/23/23
f 16/21/21 12/11/11 59/14/14 58/30/30
f 17/22/22 21/28/28 13/16/16 15/19/19
f 21/28/28 63/32/32 62/17/17 13/16/16
f 21/28/28 20/26/26 64/33/33 63/32/32
f 20/26/26 2/25/25 65/34/34 64/33/33
f 7/29/29 19/23/23 57/31/31 56/35/35
s 3
f 46/36/36 27/37/37 52/38/38 51/39/39
f 28/40/40 49/41/41 70/42/42 69/43/43
f 49/41/41 28/40/40 30/44/44 50/45/45
f 27/37/37 46/36/36 50/45/45 30/44/44
f 32/46/46 31/47/47 27/37/37 30/44/44
f 31/47/47 32/46/46 33/48/48 34/49/49
f 35/50/50 3/51/51 6/52/52 33/48/48
f 35/50/50 33/48/48 32/46/46 36/53/53
f 33/48/48 6/52/52 8/54/54 34/49/49
f 53/55/55 31/47/47 34/49/49 54/56/56
f 27/37/37 31/47/47 53/55/55 52/38/38
f 36/53/53 32/46/46 30/44/44 28/40/40
f 68/57/57 36/53/53 28/40/40 69/43/43
f 35/50/50 36/53/53 68/57/57 67/58/58
f 3/51/51 35/50/50 67/58/58 66/59/59
f 8/54/54 55/60/60 54/56/56 34/49/49
f 51/39/39 52/38/38 26/61/61 47/62/62
f 53/55/55 37/63/63 26/61/61 52/38/38
f 37/63/63 53/55/55 54/56/56 38/64/64
f 55/60/60 10/65/65 38/64/64 54/56/56
s 1
f 75/66/66 10/67/67 55/10/10 76/9/9
s 2
f 57/31/31 23/68/68 9/69/69 56/35/35
f 58/30/30 22/70/70 23/68/68 57/31/31
f 59/14/14 11/71/71 22/70/70 58/30/30
f 60/13/13 42/72/72 11/71/71 59/14/14
f 61/18/18 62/17/17 14/73/73 43/74/74
f 63/32/32 24/75/75 14/73/73 62/17/17
f 64/33/33 25/76/76 24/75/75 63/32/32
f 65/34/34 1/77/77 25/76/76 64/33/33
s 1
f 66/3/3 4/78/78 74/79/79 73/4/4
s 3
f 67/58/58 40/80/80 4/81/81 66/59/59
f 68/57/57 39/82/82 40/80/80 67/58/58
f 39/82/82 68/57/57 69/43/43 29/83/83
f 70/42/42 48/84/84 29/83/83 69/43/43
s 1
f 2/25/85 5/27/86 71/5/5 72/1/1
f 2/25/85 72/1/1 73/4/4 65/34/87
f 74/79/79 1/77/88 65/34/87 73/4/4
f 9/69/89 75/66/66 76/9/9 56/35/90
f 56/35/90 76/9/9 77/7/7 7/29/91
f 7/29/91 77/7/7 71/5/5 5/27/86
f 47/85/92 87/86/93 86/87/94 51/88/95
f 85/89/96 46/90/97 51/88/95 86/87/94
f 84/91/98 50/92/99 46/90/97 85/89/96
f 83/93/100 49/94/101 50/92/99 84/91/98
f 82/95/102 70/96/103 49/94/101 83/93/100
f 81/97/104 48/98/105 70/96/103 82/95/102
f 80/99/106 29/100/107 48/98/105 81/97/104
f 79/101/108 39/102/109 29/100/107 80/99/106
f 78/103/110 40/104/111 39/102/109 79/101/108
f 1/77/88 74/79/79 78/103/110 25/76/112
f 90/105/113 38/106/114 10/67/67 75/66/66
f 89/107/115 37/108/116 38/106/114 90/105/113
f 88/109/117 26/110/118 37/108/116 89/107/115
f 87/86/93 47/85/92 26/110/118 88/109/117
f 25/76/112 78/103/110 79/101/108 24/75/119
f 24/75/119 79/101/108 80/99/106 14/73/120
f 14/73/120 80/99/106 81/97/104 43/74/121
f 43/74/121 81/97/104 82/95/102 61/18/122
f 61/18/122 82/95/102 83/93/100 44/15/123
f 44/15/123 83/93/100 84/91/98 45/20/124
f 45/20/124 84/91/98 85/89/96 41/12/125
f 41/12/125 85/89/96 86/87/94 60/13/126
f 87/86/93 42/72/127 60/13/126 86/87/94
f 42/72/127 87/86/93 88/109/117 11/71/128
f 11/71/128 88/109/117 89/107/115 22/70/129
f 22/70/129 89/107/115 90/105/113 23/68/130
f 23/68/130 90/105/113 75/66/66 9/69/89
f 74/79/79 4/78/78 40/104/111 78/103/110
