# This file uses millimeters as units for non-parametric coordinates.

v 4.380186 2.007274 4.193266
v 4.019250 1.965763 4.246580
v 3.817821 2.208006 4.335885
v 3.811392 2.543097 4.339942
v 3.981348 2.804269 4.286253
v 4.260786 2.853813 4.165999
v 4.587347 2.607165 4.069413
v 4.600360 2.213374 4.119456
v 4.528300 1.827175 4.612558
v 4.094343 1.757032 4.679466
v 3.745650 2.040922 4.744395
v 3.713972 2.632983 4.757375
v 4.034714 2.959635 4.685848
v 4.422289 2.936330 4.572761
v 4.820855 2.605931 4.500231
v 4.913105 2.142271 4.461988
v 4.642645 1.719521 5.089429
v 4.226518 1.615607 5.206425
v 3.890313 2.027891 5.277073
v 3.806631 2.605012 5.285697
v 4.167311 2.994070 5.191822
v 4.625969 3.055333 5.057517
v 5.024540 2.624956 4.993952
v 5.098062 2.050507 5.028108
v 4.758621 1.700591 5.612533
v 4.275402 1.634909 5.743672
v 3.915589 2.040963 5.826781
v 3.928749 2.547732 5.830611
v 4.211081 2.995667 5.736367
v 4.690135 3.019005 5.657169
v 5.122426 2.576341 5.539102
v 5.172411 2.014621 5.563138
v 4.873912 1.907459 6.012690
v 4.417140 1.801553 6.053419
v 4.037776 2.046637 6.177155
v 3.848504 2.436967 6.308545
v 4.119513 2.856334 6.339813
v 4.528128 3.024148 6.245544
v 5.002155 2.669432 6.154665
v 5.186497 2.235669 6.005337
v 4.738321 1.808314 6.270830
v 4.420557 1.691779 6.320522
v 4.134498 1.829169 6.468629
v 4.024798 2.169276 6.698640
v 4.250055 2.617444 6.792542
v 4.624654 2.744458 6.793953
v 4.962096 2.586235 6.561055
v 4.935227 2.052827 6.404128
v 3.697801 3.848238 2.632185
v 4.537013 2.020207 6.844645
v 3.893266 2.491453 4.094931
v 4.165399 2.571897 3.928682
v 4.226373 2.184304 3.995335
v 3.980821 2.219708 4.048597
v 3.941841 2.477060 3.956488
v 4.259532 2.356309 3.844148
v 3.993369 2.302044 3.946251
v 4.111060 2.661584 3.497080
v 4.015521 2.592600 3.523274
v 4.059039 2.474800 3.510248
v 4.155405 2.543826 3.486599
v 4.192712 3.614540 2.833791
v 4.087909 3.578041 2.887173
v 4.046950 3.491321 2.803152
v 4.152953 3.525908 2.751115
v 4.403788 1.716054 6.503929
v 4.696196 1.821308 6.392594
v 4.179448 1.800026 6.563268
v 4.175147 1.974935 6.783935
v 4.281122 2.445977 6.921796
v 4.572921 2.438201 6.930927
v 4.833124 2.398818 6.758457
v 4.857316 2.081804 6.613560
v 3.724367 3.674315 2.737134
v 3.748813 3.556075 2.526443
v 3.745333 3.773391 2.436568
v 3.844418 2.335807 4.099127
v 4.045308 2.635424 4.067208
v 4.194938 2.631769 4.015312
v 4.346905 2.512254 3.941579
v 4.368378 2.320323 3.893889
v 3.967009 3.672585 2.705388
v 3.973917 3.830485 2.647469
v 3.947214 3.589687 2.554193
v 3.973856 3.750410 2.500448
v 4.190692 3.076991 3.066248
v 4.182564 2.966007 3.015716
v 4.074011 2.936963 3.032070
v 4.082823 3.046318 3.084582
v 4.156945 2.266099 3.946143
v 4.308763 2.340032 3.866647
v 4.263929 2.495791 3.918590
v 3.920690 2.357576 4.021234
v 3.917553 2.484256 4.025709
v 4.059135 2.576335 4.006558
vt 0.140598 0.218226
vt 0.098308 0.218883
vt 0.055234 0.220469
vt 0.347440 0.223967
vt 0.307371 0.220637
vt 0.267623 0.219125
vt 0.226776 0.218379
vt 0.183745 0.218095
vt 0.140604 0.187044
vt 0.097982 0.187895
vt 0.055066 0.190211
vt 0.347440 0.197139
vt 0.307041 0.191157
vt 0.266473 0.188604
vt 0.225222 0.187422
vt 0.183115 0.186944
vt 0.140572 0.155184
vt 0.098055 0.155599
vt 0.055198 0.156707
vt 0.347440 0.161897
vt 0.306694 0.158467
vt 0.265937 0.156686
vt 0.224739 0.155710
vt 0.182879 0.155216
vt 0.140646 0.122789
vt 0.098413 0.122615
vt 0.055739 0.121817
vt 0.347440 0.123498
vt 0.306311 0.124280
vt 0.265795 0.124060
vt 0.225006 0.123472
vt 0.183068 0.122946
vt 0.140189 0.090304
vt 0.099206 0.090131
vt 0.057619 0.088198
vt 0.347440 0.087709
vt 0.305071 0.090997
vt 0.265926 0.091790
vt 0.226603 0.091128
vt 0.183661 0.090073
vt 0.137263 0.058806
vt 0.100556 0.059242
vt 0.064021 0.057961
vt 0.347440 0.059873
vt 0.300160 0.060240
vt 0.266231 0.060629
vt 0.232149 0.059731
vt 0.184880 0.055555
vt 0.331012 0.313505
vt 0.101711 0.010071
vt 0.268306 0.010071
vt 0.268306 0.010071
vt 0.101711 0.010071
vt 0.019852 0.255549
vt 0.057188 0.282440
vt 0.016963 0.304504
vt 0.019852 0.316485
vt 0.057115 0.269756
vt 0.057288 0.299089
vt 0.057188 0.282440
vt 0.057472 0.330729
vt 0.057388 0.316458
vt 0.057288 0.299089
vt 0.113234 0.282398
vt 0.113518 0.330692
vt 0.113434 0.316422
vt 0.113334 0.299047
vt 0.211876 0.282330
vt 0.212165 0.330618
vt 0.212081 0.316353
vt 0.211976 0.298979
vt 0.098308 0.218883
vt 0.098308 0.218883
vt 0.140598 0.218226
vt 0.055234 0.220469
vt 0.055234 0.220469
vt 0.098308 0.218883
vt 0.011988 0.224471
vt 0.011988 0.224471
vt 0.055234 0.220469
vt 0.307371 0.220637
vt 0.307371 0.220637
vt 0.347440 0.223967
vt 0.267623 0.219125
vt 0.267623 0.219125
vt 0.307371 0.220637
vt 0.226776 0.218379
vt 0.226776 0.218379
vt 0.267623 0.219125
vt 0.183745 0.218095
vt 0.183745 0.218095
vt 0.226776 0.218379
vt 0.140598 0.218226
vt 0.140598 0.218226
vt 0.183745 0.218095
vt 0.097982 0.187895
vt 0.097982 0.187895
vt 0.140604 0.187044
vt 0.055066 0.190211
vt 0.055066 0.190211
vt 0.097982 0.187895
vt 0.011988 0.196062
vt 0.011988 0.196062
vt 0.055066 0.190211
vt 0.307041 0.191157
vt 0.307041 0.191157
vt 0.347440 0.197139
vt 0.266473 0.188604
vt 0.266473 0.188604
vt 0.307041 0.191157
vt 0.225222 0.187422
vt 0.225222 0.187422
vt 0.266473 0.188604
vt 0.183115 0.186944
vt 0.183115 0.186944
vt 0.225222 0.187422
vt 0.140604 0.187044
vt 0.140604 0.187044
vt 0.183115 0.186944
vt 0.098055 0.155599
vt 0.098055 0.155599
vt 0.140572 0.155184
vt 0.055198 0.156707
vt 0.055198 0.156707
vt 0.098055 0.155599
vt 0.011988 0.159281
vt 0.011988 0.159281
vt 0.055198 0.156707
vt 0.306694 0.158467
vt 0.306694 0.158467
vt 0.347440 0.161897
vt 0.265937 0.156686
vt 0.265937 0.156686
vt 0.306694 0.158467
vt 0.224739 0.155710
vt 0.224739 0.155710
vt 0.265937 0.156686
vt 0.182879 0.155216
vt 0.182879 0.155216
vt 0.224739 0.155710
vt 0.140572 0.155184
vt 0.140572 0.155184
vt 0.182879 0.155216
vt 0.098413 0.122615
vt 0.098413 0.122615
vt 0.140646 0.122789
vt 0.055739 0.121817
vt 0.055739 0.121817
vt 0.098413 0.122615
vt 0.011988 0.119616
vt 0.011988 0.119616
vt 0.055739 0.121817
vt 0.306311 0.124280
vt 0.306311 0.124280
vt 0.347440 0.123498
vt 0.265795 0.124060
vt 0.265795 0.124060
vt 0.306311 0.124280
vt 0.225006 0.123472
vt 0.225006 0.123472
vt 0.265795 0.124060
vt 0.183068 0.122946
vt 0.183068 0.122946
vt 0.225006 0.123472
vt 0.140646 0.122789
vt 0.140646 0.122789
vt 0.183068 0.122946
vt 0.099206 0.090131
vt 0.099206 0.090131
vt 0.140189 0.090304
vt 0.057619 0.088198
vt 0.057619 0.088198
vt 0.099206 0.090131
vt 0.011988 0.083030
vt 0.011988 0.083030
vt 0.057619 0.088198
vt 0.305071 0.090997
vt 0.305071 0.090997
vt 0.347440 0.087709
vt 0.265926 0.091790
vt 0.265926 0.091790
vt 0.305071 0.090997
vt 0.226603 0.091128
vt 0.226603 0.091128
vt 0.265926 0.091790
vt 0.183661 0.090073
vt 0.183661 0.090073
vt 0.226603 0.091128
vt 0.140189 0.090304
vt 0.140189 0.090304
vt 0.183661 0.090073
vt 0.100556 0.059242
vt 0.100556 0.059242
vt 0.101191 0.044258
vt 0.137263 0.058806
vt 0.135551 0.045876
vt 0.064021 0.057961
vt 0.064021 0.057961
vt 0.069988 0.045876
vt 0.100556 0.059242
vt 0.101191 0.044258
vt 0.011988 0.054978
vt 0.011988 0.054978
vt 0.048706 0.010071
vt 0.064021 0.057961
vt 0.069988 0.045876
vt 0.300160 0.060240
vt 0.300160 0.060240
vt 0.295239 0.047509
vt 0.347440 0.059873
vt 0.316894 0.010071
vt 0.266231 0.060629
vt 0.266231 0.060629
vt 0.266473 0.045324
vt 0.300160 0.060240
vt 0.295239 0.047509
vt 0.232149 0.059731
vt 0.232149 0.059731
vt 0.237339 0.047105
vt 0.266231 0.060629
vt 0.266473 0.045324
vt 0.184880 0.055555
vt 0.184880 0.055555
vt 0.216083 0.010071
vt 0.232149 0.059731
vt 0.237339 0.047105
vt 0.137263 0.058806
vt 0.137263 0.058806
vt 0.135551 0.045876
vt 0.184880 0.055555
vt 0.147505 0.010071
vt 0.316418 0.297285
vt 0.330623 0.283145
vt 0.344829 0.297791
vt 0.101191 0.044258
vt 0.069988 0.045876
vt 0.048706 0.010071
vt 0.316894 0.010071
vt 0.295239 0.047509
vt 0.266473 0.045324
vt 0.266473 0.045324
vt 0.237339 0.047105
vt 0.216083 0.010071
vt 0.147505 0.010071
vt 0.135551 0.045876
vt 0.101191 0.044258
vt 0.101711 0.248847
vt 0.059236 0.248847
vt 0.059236 0.248847
vt 0.011988 0.248847
vt 0.347440 0.248847
vt 0.304603 0.248847
vt 0.304603 0.248847
vt 0.268306 0.248847
vt 0.268306 0.248847
vt 0.233977 0.248847
vt 0.233977 0.248847
vt 0.184880 0.248847
vt 0.184880 0.248847
vt 0.138629 0.248847
vt 0.138629 0.248847
vt 0.101711 0.248847
vt 0.016963 0.331338
vt 0.019852 0.344799
vt 0.016963 0.270544
vt 0.057288 0.299089
vt 0.019852 0.299098
vt 0.016963 0.294047
vt 0.019852 0.316485
vt 0.057472 0.330729
vt 0.057188 0.282440
vt 0.019852 0.299098
vt 0.057115 0.269756
vt 0.113155 0.269719
vt 0.113234 0.282398
vt 0.057388 0.316458
vt 0.113434 0.316422
vt 0.113518 0.330692
vt 0.057288 0.299089
vt 0.113334 0.299047
vt 0.113434 0.316422
vt 0.057188 0.282440
vt 0.113234 0.282398
vt 0.113334 0.299047
vt 0.113155 0.269719
vt 0.211802 0.269651
vt 0.211876 0.282330
vt 0.113434 0.316422
vt 0.212081 0.316353
vt 0.212165 0.330618
vt 0.113334 0.299047
vt 0.211976 0.298979
vt 0.212081 0.316353
vt 0.113234 0.282398
vt 0.211876 0.282330
vt 0.211976 0.298979
vt 0.211802 0.269651
vt 0.251357 0.269619
vt 0.251430 0.282303
vt 0.212081 0.316353
vt 0.251635 0.316322
vt 0.251719 0.330592
vt 0.211976 0.298979
vt 0.251530 0.298953
vt 0.251635 0.316322
vt 0.211876 0.282330
vt 0.251430 0.282303
vt 0.251530 0.298953
vt 0.057388 0.316458
vt 0.057388 0.316458
vt 0.019852 0.282466
vt 0.019852 0.282466
vt 0.166308 0.282361
vt 0.166308 0.282361
vt 0.166408 0.299011
vt 0.166408 0.299011
vt 0.166513 0.316385
vt 0.166513 0.316385
vt 0.166597 0.330650
vt 0.166234 0.269682
vt 0.166234 0.269682
vt 0.166597 0.330650
vt 0.166513 0.316385
vt 0.166513 0.316385
vt 0.166408 0.299011
vt 0.166408 0.299011
vt 0.166308 0.282361
vt 0.166308 0.282361
vt 0.251430 0.282303
vt 0.251530 0.298953
vt 0.251530 0.298953
vt 0.251635 0.316322
vt 0.251635 0.316322
vt 0.251719 0.330592
vt 0.251357 0.269619
vt 0.251430 0.282303
vt 0.312487 0.282261
vt 0.312587 0.298911
vt 0.312587 0.298911
vt 0.312692 0.316280
vt 0.312692 0.316280
vt 0.312776 0.330550
vt 0.312414 0.269577
vt 0.312487 0.282261
vt 0.036015 0.306509
vt 0.036015 0.299098
vt 0.036015 0.299098
vt 0.036015 0.291889
vt 0.036015 0.327837
vt 0.036015 0.337764
vt 0.036015 0.262652
vt 0.036015 0.271734
vn 0.174127 -0.775615 -0.606714
vn 0.302200 -0.870133 -0.389285
vn -0.340046 -0.905148 -0.255099
vn -0.407878 -0.758485 -0.508268
vn -0.912249 -0.406073 -0.053911
vn -0.904558 -0.299813 -0.303130
vn -0.946851 0.321191 -0.017621
vn -0.909787 0.298732 -0.288180
vn -0.455555 0.881830 -0.121839
vn -0.532111 0.725991 -0.435655
vn 0.254950 0.923833 -0.285541
vn 0.060651 0.817024 -0.573405
vn 0.778296 0.462200 -0.425001
vn 0.586385 0.409270 -0.699035
vn 0.786090 -0.370439 -0.494810
vn 0.597948 -0.353817 -0.719215
vn 0.366977 -0.910106 -0.192443
vn -0.326749 -0.944186 -0.041801
vn -0.905124 -0.404384 0.131242
vn -0.932948 0.314962 0.174373
vn -0.441120 0.895664 0.056565
vn 0.323425 0.936384 -0.136315
vn 0.866329 0.440067 -0.236252
vn 0.879716 -0.391134 -0.270396
vn 0.431732 -0.893304 0.124958
vn -0.251974 -0.937547 0.239821
vn -0.878571 -0.446030 0.170790
vn -0.966857 0.242634 0.079479
vn -0.515120 0.854510 0.066810
vn 0.309657 0.949891 0.042660
vn 0.885443 0.464363 -0.018903
vn 0.936652 -0.350262 -0.000482
vn 0.493569 -0.860301 0.127563
vn -0.190924 -0.980651 0.043273
vn -0.818788 -0.572250 0.046000
vn -0.982355 0.085141 0.166522
vn -0.579356 0.759954 0.294646
vn 0.227848 0.938828 0.258237
vn 0.855473 0.478082 0.199006
vn 0.923207 -0.315249 0.219790
vn 0.525437 -0.846207 0.088601
vn -0.099126 -0.987317 -0.124010
vn 0.510112 -0.790804 0.338253
vn 0.113826 -0.919991 0.375047
vn -0.727089 -0.686202 0.021651
vn -0.473027 -0.798176 0.373042
vn -0.887271 -0.118409 0.445790
vn -0.486343 -0.401634 0.775990
vn -0.506098 0.487434 0.711529
vn -0.326980 0.121187 0.937229
vn 0.241101 0.688248 0.684240
vn 0.274977 0.081391 0.958000
vn 0.834676 0.261423 0.484742
vn 0.728143 -0.041328 0.684179
vn 0.860253 -0.392791 0.325085
vn 0.690380 -0.486934 0.535043
vn -0.437938 -0.836215 -0.330084
vn -0.532349 -0.342172 0.774288
vn -0.531816 0.806479 0.258387
vn -0.400605 0.260485 -0.878443
vn 0.245679 -0.545143 0.801537
vn -0.859542 -0.192170 -0.473560
vn -0.463436 -0.617784 -0.635272
vn -0.819864 0.352900 -0.450871
vn -0.498559 0.650863 -0.572552
vn -0.053683 0.683066 -0.728381
vn 0.348537 0.409137 -0.843284
vn 0.334270 -0.266659 -0.903967
vn -0.019553 -0.684010 -0.729211
vn 0.312447 0.470970 -0.824963
vn 0.081990 0.843554 -0.530749
vn 0.161740 -0.172587 -0.971624
vn -0.113375 -0.677504 -0.726729
vn -0.740423 0.383603 -0.551926
vn -0.855449 0.400384 -0.328479
vn -0.508301 -0.606493 -0.611389
vn -0.812237 -0.141930 -0.565797
vn 0.478655 0.786270 0.390728
vn -0.889677 0.428241 0.158380
vn -0.522764 -0.680923 -0.512895
vn 0.842983 -0.417079 -0.339744
vn 0.525158 -0.302598 -0.795389
vn -0.443321 0.729405 -0.520995
vn 0.711998 0.402430 0.575421
vn 0.718310 -0.398787 -0.570087
vn -0.708655 -0.428380 -0.560624
vn -0.706809 0.381548 0.595687
vn -0.626785 0.267804 0.731725
vn -0.736160 -0.529612 -0.421402
vn 0.666419 -0.247094 -0.703441
vn 0.731645 0.523214 0.436970
vn 0.290022 0.897443 0.332390
vn 0.559605 0.094611 -0.823341
vn -0.097083 -0.943061 -0.318136
vn -0.392014 -0.012290 0.919877
s 1
f 1/74/1 9/9/2 10/96/3 2/73/4
f 2/77/4 10/10/3 11/99/5 3/76/6
f 3/80/6 11/11/5 12/102/7 4/79/8
f 4/83/8 12/12/7 13/105/9 5/82/10
f 5/86/10 13/13/9 14/108/11 6/85/12
f 6/89/12 14/14/11 15/111/13 7/88/14
f 7/92/14 15/15/13 16/114/15 8/91/16
f 8/95/16 16/16/15 9/117/2 1/94/1
f 9/98/2 17/17/17 18/120/18 10/97/3
f 10/101/3 18/18/18 19/123/19 11/100/5
f 11/104/5 19/19/19 20/126/20 12/103/7
f 12/107/7 20/20/20 21/129/21 13/106/9
f 13/110/9 21/21/21 22/132/22 14/109/11
f 14/113/11 22/22/22 23/135/23 15/112/13
f 15/116/13 23/23/23 24/138/24 16/115/15
f 16/119/15 24/24/24 17/141/17 9/118/2
f 17/122/17 25/25/25 26/144/26 18/121/18
f 18/125/18 26/26/26 27/147/27 19/124/19
f 19/128/19 27/27/27 28/150/28 20/127/20
f 20/131/20 28/28/28 29/153/29 21/130/21
f 21/134/21 29/29/29 30/156/30 22/133/22
f 22/137/22 30/30/30 31/159/31 23/136/23
f 23/140/23 31/31/31 32/162/32 24/139/24
f 24/143/24 32/32/32 25/165/25 17/142/17
f 25/146/25 33/33/33 34/168/34 26/145/26
f 26/149/26 34/34/34 35/171/35 27/148/27
f 27/152/27 35/35/35 36/174/36 28/151/28
f 28/155/28 36/36/36 37/177/37 29/154/29
f 29/158/29 37/37/37 38/180/38 30/157/30
f 30/161/30 38/38/38 39/183/39 31/160/31
f 31/164/31 39/39/39 40/186/40 32/163/32
f 32/167/32 40/40/40 33/189/33 25/166/25
f 33/170/33 41/41/41 42/192/42 34/169/34
f 41/195/41 67/196/43 66/194/44 42/193/42
f 34/173/34 42/42/42 43/197/45 35/172/35
f 42/200/42 66/201/44 68/199/46 43/198/45
f 35/176/35 43/43/45 44/202/47 36/175/36
f 43/205/45 68/206/46 69/204/48 44/203/47
f 36/179/36 44/44/47 45/207/49 37/178/37
f 44/210/47 69/211/48 70/209/50 45/208/49
f 37/182/37 45/45/49 46/212/51 38/181/38
f 45/215/49 70/216/50 71/214/52 46/213/51
f 38/185/38 46/46/51 47/217/53 39/184/39
f 46/220/51 71/221/52 72/219/54 47/218/53
f 39/188/39 47/47/53 48/222/55 40/187/40
f 47/225/53 72/226/54 73/224/56 48/223/55
f 40/191/40 48/48/55 41/227/41 33/190/33
f 48/230/55 73/231/56 67/229/43 41/228/41
f 75/233/57 74/232/58 49/49/59 76/234/60
f 69/237/48 68/236/46 66/235/44 50/50/61
f 71/240/52 70/239/50 69/238/48 50/51/61
f 73/243/56 72/242/54 71/241/52 50/52/61
f 66/246/44 67/245/43 73/244/56 50/53/61
f 3/75/6 77/248/62 54/247/63 2/2/4
f 4/78/8 51/250/64 77/249/62 3/3/6
f 5/81/10 78/252/65 51/251/64 4/4/8
f 6/84/12 79/254/66 78/253/65 5/5/10
f 7/87/14 80/256/67 79/255/66 6/6/12
f 8/90/16 81/258/68 80/257/67 7/7/14
f 1/93/1 53/260/69 81/259/68 8/8/16
f 2/72/4 54/262/63 53/261/69 1/1/1
f 79/311/66 80/268/67 92/348/70 52/55/71
f 91/346/72 81/272/68 53/56/69 90/345/73
f 94/350/74 55/270/75 57/310/76 93/349/77
f 58/275/78 59/274/79 55/273/75 52/60/71
f 59/278/79 60/277/80 57/276/76 55/61/75
f 60/281/80 61/280/81 56/279/82 57/62/76
f 61/284/81 58/283/78 52/282/71 56/63/82
f 78/265/65 79/312/66 52/271/71 95/352/83
f 86/314/84 58/294/78 61/67/81 87/315/85
f 87/316/85 61/291/81 60/66/80 88/317/86
f 88/318/86 60/288/80 59/65/79 89/319/87
f 86/313/84 89/320/87 59/285/79 58/64/78
f 88/323/86 89/322/87 63/290/88 64/289/89
f 87/325/85 88/324/86 64/293/89 65/292/90
f 86/327/84 87/326/85 65/296/90 62/295/91
f 86/328/84 62/287/91 63/286/88 89/321/87
f 83/329/92 62/306/91 65/71/90 85/330/93
f 85/331/93 65/303/90 64/70/89 84/332/94
f 84/333/94 64/300/89 63/69/88 82/334/95
f 82/335/95 63/297/88 62/68/91 83/336/92
f 85/308/93 76/338/60 49/337/59 83/307/92
f 84/305/94 75/340/57 76/339/60 85/304/93
f 82/302/95 74/342/58 75/341/57 84/301/94
f 83/299/92 49/344/59 74/343/58 82/298/95
f 92/348/70 80/268/67 81/267/68 91/347/72
f 95/352/83 52/271/71 55/58/75 94/351/74
f 57/309/76 90/345/73 53/56/69 54/269/63
f 77/263/62 93/349/77 57/310/76 54/57/63
f 56/59/82 91/346/72 90/345/73 57/309/76
f 52/55/71 92/348/70 91/347/72 56/266/82
f 51/264/64 94/350/74 93/349/77 77/263/62
f 78/265/65 95/352/83 94/351/74 51/54/64
