# This file uses millimeters as units for non-parametric coordinates.

v -3.210832 2.491291 2.264051
v -2.871461 2.496657 2.485867
v -2.767885 2.761012 2.672354
v -2.832578 3.100180 2.690168
v -3.027128 3.345180 2.567764
v -3.252076 3.367763 2.325031
v -3.475307 3.081253 2.071173
v -3.433421 2.675515 2.097270
v -3.540650 2.238748 2.566361
v -3.129929 2.224426 2.834930
v -2.875779 2.555525 3.072043
v -2.930478 3.172999 3.147062
v -3.324110 3.446453 2.909436
v -3.642681 3.380120 2.618135
v -3.932851 2.995503 2.348442
v -3.909094 2.517626 2.253841
v -3.881977 2.057766 2.939593
v -3.508270 2.000869 3.243807
v -3.295949 2.459223 3.484277
v -3.297330 3.064429 3.601610
v -3.725504 3.409923 3.305048
v -4.123577 3.414072 2.962690
v -4.397875 2.927365 2.697829
v -4.370633 2.331902 2.674270
v -4.267404 1.960864 3.356856
v -3.842288 1.950912 3.707648
v -3.611746 2.405030 3.970642
v -3.731121 2.914839 3.984406
v -4.054555 3.336645 3.776948
v -4.494028 3.298399 3.473852
v -4.748746 2.836124 3.174188
v -4.717260 2.261369 3.200710
v -4.424582 1.979398 3.622670
v -4.125481 1.920981 3.822126
v -3.910217 2.174320 4.113563
v -3.927868 2.780588 4.339460
v -4.280074 3.092318 4.343969
v -4.642081 3.208854 4.146252
v -4.936384 2.874244 3.821754
v -4.718389 2.262488 3.537632
v -4.542773 1.952082 3.918696
v -4.340664 1.900336 4.065094
v -4.204823 2.016231 4.229340
v -4.436113 2.232596 4.497325
v -4.822868 2.619351 4.640179
v -5.107108 2.668538 4.462445
v -5.080375 2.531462 4.131418
v -4.769749 2.139675 3.834306
v -1.339564 3.901218 1.298163
v -4.748643 2.047796 4.198340
v -2.774971 3.064221 2.426759
v -2.979172 3.129178 2.148092
v -2.990685 2.715938 2.165015
v -2.781802 2.781950 2.333411
v -2.742954 3.060610 2.283680
v -2.984281 2.898259 2.013629
v -2.753185 2.869954 2.242086
v -2.630163 3.266886 1.804765
v -2.530922 3.205951 1.875223
v -2.543598 3.077001 1.836994
v -2.645089 3.137545 1.768519
v -2.085078 3.705807 1.142283
v -2.032930 3.628873 1.238260
v -2.002513 3.514804 1.168817
v -2.057486 3.590717 1.073455
v -4.403015 1.919389 4.137206
v -4.581307 1.955526 3.996817
v -4.278208 1.995159 4.257878
v -4.529427 2.120230 4.436113
v -4.839175 2.320267 4.584134
v -5.017911 2.308961 4.410087
v -5.045920 2.367779 4.150045
v -4.750542 2.085929 3.963289
v -1.452595 3.738988 1.404443
v -1.341842 3.570851 1.233564
v -1.257614 3.780496 1.117280
v -2.696587 2.913659 2.449109
v -2.941200 3.190411 2.332711
v -3.061987 3.170548 2.213066
v -3.149814 3.035766 2.068689
v -3.106677 2.844116 2.008754
v -1.782545 3.700587 1.138700
v -1.735527 3.853952 1.054610
v -1.666858 3.583834 1.038900
v -1.641502 3.740031 0.945534
v -2.380990 3.448684 1.355272
v -2.382380 3.328291 1.304506
v -2.279384 3.272839 1.359911
v -2.279980 3.391824 1.412369
v -2.732391 2.932619 2.349924
v -2.758962 3.062416 2.355220
v -2.913115 3.135851 2.264879
v -3.051862 3.036369 2.086956
v -3.023507 2.880907 2.012067
v -2.907809 2.813764 2.158230
vt 0.140598 0.218226
vt 0.098308 0.218883
vt 0.055234 0.220469
vt 0.347440 0.223967
vt 0.307371 0.220637
vt 0.267623 0.219125
vt 0.226776 0.218379
vt 0.183745 0.218095
vt 0.140604 0.187044
vt 0.097982 0.187895
vt 0.055066 0.190211
vt 0.347440 0.197139
vt 0.307041 0.191157
vt 0.266473 0.188604
vt 0.225222 0.187422
vt 0.183115 0.186944
vt 0.140572 0.155184
vt 0.098055 0.155599
vt 0.055198 0.156707
vt 0.347440 0.161897
vt 0.306694 0.158467
vt 0.265937 0.156686
vt 0.224739 0.155710
vt 0.182879 0.155216
vt 0.140646 0.122789
vt 0.098413 0.122615
vt 0.055739 0.121817
vt 0.347440 0.123498
vt 0.306311 0.124280
vt 0.265795 0.124060
vt 0.225006 0.123472
vt 0.183068 0.122946
vt 0.140189 0.090304
vt 0.099206 0.090131
vt 0.057619 0.088198
vt 0.347440 0.087709
vt 0.305071 0.090997
vt 0.265926 0.091790
vt 0.226603 0.091128
vt 0.183661 0.090073
vt 0.137263 0.058806
vt 0.100556 0.059242
vt 0.064021 0.057961
vt 0.347440 0.059873
vt 0.300160 0.060240
vt 0.266231 0.060629
vt 0.232149 0.059731
vt 0.184880 0.055555
vt 0.331012 0.313505
vt 0.101711 0.010071
vt 0.268306 0.010071
vt 0.268306 0.010071
vt 0.101711 0.010071
vt 0.019852 0.255549
vt 0.057188 0.282440
vt 0.016963 0.304504
vt 0.019852 0.316485
vt 0.057115 0.269756
vt 0.057288 0.299089
vt 0.057188 0.282440
vt 0.057472 0.330729
vt 0.057388 0.316458
vt 0.057288 0.299089
vt 0.113234 0.282398
vt 0.113518 0.330692
vt 0.113434 0.316422
vt 0.113334 0.299047
vt 0.211876 0.282330
vt 0.212165 0.330618
vt 0.212081 0.316353
vt 0.211976 0.298979
vt 0.098308 0.218883
vt 0.098308 0.218883
vt 0.140598 0.218226
vt 0.055234 0.220469
vt 0.055234 0.220469
vt 0.098308 0.218883
vt 0.011988 0.224471
vt 0.011988 0.224471
vt 0.055234 0.220469
vt 0.307371 0.220637
vt 0.307371 0.220637
vt 0.347440 0.223967
vt 0.267623 0.219125
vt 0.267623 0.219125
vt 0.307371 0.220637
vt 0.226776 0.218379
vt 0.226776 0.218379
vt 0.267623 0.219125
vt 0.183745 0.218095
vt 0.183745 0.218095
vt 0.226776 0.218379
vt 0.140598 0.218226
vt 0.140598 0.218226
vt 0.183745 0.218095
vt 0.097982 0.187895
vt 0.097982 0.187895
vt 0.140604 0.187044
vt 0.055066 0.190211
vt 0.055066 0.190211
vt 0.097982 0.187895
vt 0.011988 0.196062
vt 0.011988 0.196062
vt 0.055066 0.190211
vt 0.307041 0.191157
vt 0.307041 0.191157
vt 0.347440 0.197139
vt 0.266473 0.188604
vt 0.266473 0.188604
vt 0.307041 0.191157
vt 0.225222 0.187422
vt 0.225222 0.187422
vt 0.266473 0.188604
vt 0.183115 0.186944
vt 0.183115 0.186944
vt 0.225222 0.187422
vt 0.140604 0.187044
vt 0.140604 0.187044
vt 0.183115 0.186944
vt 0.098055 0.155599
vt 0.098055 0.155599
vt 0.140572 0.155184
vt 0.055198 0.156707
vt 0.055198 0.156707
vt 0.098055 0.155599
vt 0.011988 0.159281
vt 0.011988 0.159281
vt 0.055198 0.156707
vt 0.306694 0.158467
vt 0.306694 0.158467
vt 0.347440 0.161897
vt 0.265937 0.156686
vt 0.265937 0.156686
vt 0.306694 0.158467
vt 0.224739 0.155710
vt 0.224739 0.155710
vt 0.265937 0.156686
vt 0.182879 0.155216
vt 0.182879 0.155216
vt 0.224739 0.155710
vt 0.140572 0.155184
vt 0.140572 0.155184
vt 0.182879 0.155216
vt 0.098413 0.122615
vt 0.098413 0.122615
vt 0.140646 0.122789
vt 0.055739 0.121817
vt 0.055739 0.121817
vt 0.098413 0.122615
vt 0.011988 0.119616
vt 0.011988 0.119616
vt 0.055739 0.121817
vt 0.306311 0.124280
vt 0.306311 0.124280
vt 0.347440 0.123498
vt 0.265795 0.124060
vt 0.265795 0.124060
vt 0.306311 0.124280
vt 0.225006 0.123472
vt 0.225006 0.123472
vt 0.265795 0.124060
vt 0.183068 0.122946
vt 0.183068 0.122946
vt 0.225006 0.123472
vt 0.140646 0.122789
vt 0.140646 0.122789
vt 0.183068 0.122946
vt 0.099206 0.090131
vt 0.099206 0.090131
vt 0.140189 0.090304
vt 0.057619 0.088198
vt 0.057619 0.088198
vt 0.099206 0.090131
vt 0.011988 0.083030
vt 0.011988 0.083030
vt 0.057619 0.088198
vt 0.305071 0.090997
vt 0.305071 0.090997
vt 0.347440 0.087709
vt 0.265926 0.091790
vt 0.265926 0.091790
vt 0.305071 0.090997
vt 0.226603 0.091128
vt 0.226603 0.091128
vt 0.265926 0.091790
vt 0.183661 0.090073
vt 0.183661 0.090073
vt 0.226603 0.091128
vt 0.140189 0.090304
vt 0.140189 0.090304
vt 0.183661 0.090073
vt 0.100556 0.059242
vt 0.100556 0.059242
vt 0.101191 0.044258
vt 0.135551 0.045876
vt 0.137263 0.058806
vt 0.064021 0.057961
vt 0.064021 0.057961
vt 0.069988 0.045876
vt 0.101191 0.044258
vt 0.100556 0.059242
vt 0.011988 0.054978
vt 0.011988 0.054978
vt 0.048706 0.010071
vt 0.069988 0.045876
vt 0.064021 0.057961
vt 0.300160 0.060240
vt 0.300160 0.060240
vt 0.295239 0.047509
vt 0.316894 0.010071
vt 0.347440 0.059873
vt 0.266231 0.060629
vt 0.266231 0.060629
vt 0.266473 0.045324
vt 0.295239 0.047509
vt 0.300160 0.060240
vt 0.232149 0.059731
vt 0.232149 0.059731
vt 0.237339 0.047105
vt 0.266473 0.045324
vt 0.266231 0.060629
vt 0.184880 0.055555
vt 0.184880 0.055555
vt 0.216083 0.010071
vt 0.237339 0.047105
vt 0.232149 0.059731
vt 0.137263 0.058806
vt 0.137263 0.058806
vt 0.135551 0.045876
vt 0.147505 0.010071
vt 0.184880 0.055555
vt 0.316418 0.297285
vt 0.330623 0.283145
vt 0.344829 0.297791
vt 0.101191 0.044258
vt 0.069988 0.045876
vt 0.048706 0.010071
vt 0.316894 0.010071
vt 0.295239 0.047509
vt 0.266473 0.045324
vt 0.266473 0.045324
vt 0.237339 0.047105
vt 0.216083 0.010071
vt 0.147505 0.010071
vt 0.135551 0.045876
vt 0.101191 0.044258
vt 0.101711 0.248847
vt 0.059236 0.248847
vt 0.059236 0.248847
vt 0.011988 0.248847
vt 0.347440 0.248847
vt 0.304603 0.248847
vt 0.304603 0.248847
vt 0.268306 0.248847
vt 0.268306 0.248847
vt 0.233977 0.248847
vt 0.233977 0.248847
vt 0.184880 0.248847
vt 0.184880 0.248847
vt 0.138629 0.248847
vt 0.138629 0.248847
vt 0.101711 0.248847
vt 0.016963 0.331338
vt 0.019852 0.344799
vt 0.016963 0.270544
vt 0.057288 0.299089
vt 0.019852 0.299098
vt 0.016963 0.294047
vt 0.019852 0.316485
vt 0.057472 0.330729
vt 0.057188 0.282440
vt 0.019852 0.299098
vt 0.057115 0.269756
vt 0.113155 0.269719
vt 0.113234 0.282398
vt 0.057388 0.316458
vt 0.113434 0.316422
vt 0.113518 0.330692
vt 0.057288 0.299089
vt 0.113334 0.299047
vt 0.113434 0.316422
vt 0.057188 0.282440
vt 0.113234 0.282398
vt 0.113334 0.299047
vt 0.113155 0.269719
vt 0.211802 0.269651
vt 0.211876 0.282330
vt 0.113434 0.316422
vt 0.212081 0.316353
vt 0.212165 0.330618
vt 0.113334 0.299047
vt 0.211976 0.298979
vt 0.212081 0.316353
vt 0.113234 0.282398
vt 0.211876 0.282330
vt 0.211976 0.298979
vt 0.211802 0.269651
vt 0.251357 0.269619
vt 0.251430 0.282303
vt 0.212081 0.316353
vt 0.251635 0.316322
vt 0.251719 0.330592
vt 0.211976 0.298979
vt 0.251530 0.298953
vt 0.251635 0.316322
vt 0.211876 0.282330
vt 0.251430 0.282303
vt 0.251530 0.298953
vt 0.057388 0.316458
vt 0.057388 0.316458
vt 0.019852 0.282466
vt 0.019852 0.282466
vt 0.166308 0.282361
vt 0.166308 0.282361
vt 0.166408 0.299011
vt 0.166408 0.299011
vt 0.166513 0.316385
vt 0.166513 0.316385
vt 0.166597 0.330650
vt 0.166234 0.269682
vt 0.166234 0.269682
vt 0.166597 0.330650
vt 0.166513 0.316385
vt 0.166513 0.316385
vt 0.166408 0.299011
vt 0.166408 0.299011
vt 0.166308 0.282361
vt 0.166308 0.282361
vt 0.251430 0.282303
vt 0.251530 0.298953
vt 0.251530 0.298953
vt 0.251635 0.316322
vt 0.251635 0.316322
vt 0.251719 0.330592
vt 0.251357 0.269619
vt 0.251430 0.282303
vt 0.312487 0.282261
vt 0.312587 0.298911
vt 0.312587 0.298911
vt 0.312692 0.316280
vt 0.312692 0.316280
vt 0.312776 0.330550
vt 0.312414 0.269577
vt 0.312487 0.282261
vt 0.036015 0.327837
vt 0.036015 0.262652
vt 0.036015 0.337764
vt 0.036015 0.271734
vt 0.036015 0.291889
vt 0.036015 0.299098
vt 0.036015 0.299098
vt 0.036015 0.306509
vn 0.696541 -0.657772 -0.286646
vn 0.243637 -0.723805 -0.645559
vn 0.432488 -0.611456 -0.662628
vn 0.779707 -0.506066 -0.368720
vn 0.976939 -0.153383 0.148536
vn 0.999839 -0.016590 -0.006787
vn 0.856866 0.487127 0.168783
vn 0.833009 0.553150 0.011056
vn 0.490816 0.861978 -0.126865
vn 0.537615 0.805048 -0.250734
vn 0.056868 0.859587 -0.507815
vn 0.227868 0.771927 -0.593469
vn -0.240831 0.399475 -0.884545
vn -0.004623 0.449348 -0.893345
vn -0.115898 -0.351552 -0.928967
vn 0.143644 -0.218755 -0.965149
vn 0.517274 -0.832688 0.197632
vn 0.885419 0.100124 -0.453881
vn 0.340187 0.853549 0.394622
vn -0.006842 -0.158044 0.987408
vn -0.014625 -0.683301 0.729990
vn -0.443452 -0.860650 0.250262
vn -0.147408 -0.960404 0.236420
vn 0.147200 -0.810198 0.567372
vn -0.758676 -0.551462 0.346842
vn -0.299388 -0.485567 0.821335
vn -0.658178 -0.732297 -0.174762
vn -0.866798 -0.475375 -0.150597
vn -0.419172 -0.905087 -0.071496
vn 0.445906 0.867962 -0.218654
vn 0.023947 0.873497 -0.486241
vn 0.007616 0.516006 -0.856551
vn 0.817135 -0.498625 -0.289245
vn 0.993133 0.040609 -0.109716
vn 0.508431 -0.599383 -0.618254
vn -0.488309 0.870626 -0.059708
vn 0.800477 0.563836 0.203287
vn 0.691678 0.463722 0.553663
vn 0.643847 -0.763996 -0.042082
vn -0.005638 -0.251603 -0.967814
vn -0.579460 -0.425879 -0.694877
vn -0.593915 0.803597 0.038700
vn 0.557763 0.363473 0.746182
vn 0.591836 -0.805115 -0.038990
vn -0.560064 -0.362118 -0.745116
vn -0.145889 0.037838 0.988577
vn -0.263520 0.964547 0.014398
vn -0.512111 0.858872 0.008960
vn 0.312805 0.213505 0.925510
vn 0.168025 -0.984059 -0.058278
vn 0.500611 -0.865563 0.013770
vn 0.043693 0.022044 -0.998802
vn -0.335395 -0.202291 -0.920103
vn 0.544800 -0.833920 -0.088150
vn 0.065517 -0.855702 -0.513305
vn 0.873618 -0.313510 0.372161
vn 0.768588 0.474199 0.429426
vn 0.252963 0.961572 0.106719
vn -0.235174 0.907342 -0.348459
vn -0.526326 0.400496 -0.750056
vn -0.361661 -0.420436 -0.832127
vn 0.444197 -0.890540 0.098124
vn -0.079309 -0.926189 -0.368626
vn 0.756435 -0.334823 0.561872
vn 0.629694 0.425227 0.650128
vn 0.150499 0.948561 0.278537
vn -0.362641 0.897130 -0.252288
vn -0.703839 0.345382 -0.620743
vn -0.569800 -0.482111 -0.665505
vn 0.344644 -0.918908 0.191905
vn -0.242549 -0.950045 -0.196428
vn 0.722707 -0.353829 0.593717
vn 0.662067 0.365643 0.654196
vn 0.206273 0.901677 0.380040
vn -0.449520 0.891610 -0.054439
vn -0.888317 0.288586 -0.357226
vn -0.767568 -0.525914 -0.366407
vn 0.238356 -0.960051 0.146592
vn -0.338917 -0.922460 -0.184939
vn 0.615436 -0.509803 0.601115
vn 0.581253 0.110369 0.806203
vn 0.159871 0.695507 0.700508
vn -0.542448 0.812857 0.212165
vn -0.946743 0.225399 -0.229942
vn -0.804316 -0.515823 -0.294960
vn 0.116143 -0.984821 0.128988
vn -0.377057 -0.905411 -0.195087
vn 0.428240 -0.690658 0.582755
vn 0.334401 -0.279060 0.900168
vn -0.120063 0.082661 0.989319
vn -0.847753 0.250164 0.467689
vn -0.968138 -0.096880 -0.230917
vn -0.731618 -0.573757 -0.368154
vn 0.806807 0.579792 -0.113597
vn 0.303079 -0.097235 -0.947992
s 1
f 2/72/1 1/1/2 53/261/3 54/262/4
f 3/75/5 2/2/1 54/247/4 77/248/6
f 4/78/7 3/3/5 77/249/6 51/250/8
f 5/81/9 4/4/7 51/251/8 78/252/10
f 6/84/11 5/5/9 78/253/10 79/254/12
f 7/87/13 6/6/11 79/255/12 80/256/14
f 8/90/15 7/7/13 80/257/14 81/258/16
f 1/93/2 8/8/15 81/259/16 53/260/3
f 75/233/17 76/234/18 49/49/19 74/232/20
f 69/237/21 50/50/22 66/235/23 68/236/24
f 71/240/25 50/51/22 69/238/21 70/239/26
f 73/243/27 50/52/22 71/241/25 72/242/28
f 66/246/23 50/53/22 73/244/27 67/245/29
f 78/265/10 92/348/30 52/271/31 79/312/12
f 79/311/12 52/55/31 93/349/32 80/268/14
f 57/310/33 90/345/34 77/263/6 54/57/4
f 53/56/3 95/352/35 57/309/33 54/269/4
f 58/275/36 52/60/31 55/273/37 59/274/38
f 59/278/38 55/61/37 57/276/33 60/277/39
f 60/281/39 57/62/33 56/279/40 61/280/41
f 61/284/41 56/63/40 52/282/31 58/283/36
f 86/313/42 58/64/36 59/285/38 89/320/43
f 88/318/44 89/319/43 59/65/38 60/288/39
f 87/316/45 88/317/44 60/66/39 61/291/41
f 86/314/42 87/315/45 61/67/41 58/294/36
f 82/335/46 83/336/47 62/68/48 63/297/49
f 84/333/50 82/334/46 63/69/49 64/300/51
f 85/331/52 84/332/50 64/70/51 65/303/53
f 83/329/47 85/330/52 65/71/53 62/306/48
f 1/74/2 2/73/1 10/96/54 9/9/55
f 2/77/1 3/76/5 11/99/56 10/10/54
f 3/80/5 4/79/7 12/102/57 11/11/56
f 4/83/7 5/82/9 13/105/58 12/12/57
f 5/86/9 6/85/11 14/108/59 13/13/58
f 6/89/11 7/88/13 15/111/60 14/14/59
f 7/92/13 8/91/15 16/114/61 15/15/60
f 8/95/15 1/94/2 9/117/55 16/16/61
f 9/98/55 10/97/54 18/120/62 17/17/63
f 10/101/54 11/100/56 19/123/64 18/18/62
f 11/104/56 12/103/57 20/126/65 19/19/64
f 12/107/57 13/106/58 21/129/66 20/20/65
f 13/110/58 14/109/59 22/132/67 21/21/66
f 14/113/59 15/112/60 23/135/68 22/22/67
f 15/116/60 16/115/61 24/138/69 23/23/68
f 16/119/61 9/118/55 17/141/63 24/24/69
f 17/122/63 18/121/62 26/144/70 25/25/71
f 18/125/62 19/124/64 27/147/72 26/26/70
f 19/128/64 20/127/65 28/150/73 27/27/72
f 20/131/65 21/130/66 29/153/74 28/28/73
f 21/134/66 22/133/67 30/156/75 29/29/74
f 22/137/67 23/136/68 31/159/76 30/30/75
f 23/140/68 24/139/69 32/162/77 31/31/76
f 24/143/69 17/142/63 25/165/71 32/32/77
f 25/146/71 26/145/70 34/168/78 33/33/79
f 26/149/70 27/148/72 35/171/80 34/34/78
f 27/152/72 28/151/73 36/174/81 35/35/80
f 28/155/73 29/154/74 37/177/82 36/36/81
f 29/158/74 30/157/75 38/180/83 37/37/82
f 30/161/75 31/160/76 39/183/84 38/38/83
f 31/164/76 32/163/77 40/186/85 39/39/84
f 32/167/77 25/166/71 33/189/79 40/40/85
f 33/170/79 34/169/78 42/192/86 41/41/87
f 34/173/78 35/172/80 43/197/88 42/42/86
f 35/176/80 36/175/81 44/202/89 43/43/88
f 36/179/81 37/178/82 45/207/90 44/44/89
f 37/182/82 38/181/83 46/212/91 45/45/90
f 38/185/83 39/184/84 47/217/92 46/46/91
f 39/188/84 40/187/85 48/222/93 47/47/92
f 40/191/85 33/190/79 41/227/87 48/48/93
f 41/196/87 42/193/86 66/194/23 67/195/29
f 42/201/86 43/198/88 68/199/24 66/200/23
f 43/206/88 44/203/89 69/204/21 68/205/24
f 44/211/89 45/208/90 70/209/26 69/210/21
f 45/216/90 46/213/91 71/214/25 70/215/26
f 46/221/91 47/218/92 72/219/28 71/220/25
f 47/226/92 48/223/93 73/224/27 72/225/28
f 48/231/93 41/228/87 67/229/29 73/230/27
f 86/328/42 89/321/43 63/286/49 62/287/48
f 88/323/44 64/289/51 63/290/49 89/322/43
f 87/325/45 65/292/53 64/293/51 88/324/44
f 86/327/42 62/295/48 65/296/53 87/326/45
f 83/299/47 82/298/46 74/343/20 49/344/19
f 82/302/46 84/301/50 75/341/17 74/342/20
f 84/305/50 85/304/52 76/339/18 75/340/17
f 85/308/52 83/307/47 49/337/19 76/338/18
f 78/265/10 51/54/8 91/346/94 92/348/30
f 80/268/14 93/349/32 94/350/95 81/267/16
f 94/351/95 95/352/35 53/56/3 81/272/16
f 51/264/8 77/263/6 90/345/34 91/347/94
f 91/347/94 90/345/34 57/310/33 55/270/37
f 92/348/30 91/346/94 55/58/37 52/271/31
f 93/349/32 52/55/31 56/266/40 94/350/95
f 56/59/40 57/309/33 95/352/35 94/351/95
