# This file uses millimeters as units for non-parametric coordinates.

v -0.609909 3.752474 0.133403
v -0.675314 3.539746 0.238538
v -0.879803 3.531410 0.422969
v -0.999623 3.772278 0.483709
v -0.867727 3.980648 0.376631
v -0.690222 3.971053 0.203051
v -0.219836 3.820555 0.437088
v -0.339661 3.575723 0.497442
v -0.598830 3.552149 0.639691
v -0.762081 3.764212 0.703206
v -0.604927 4.001792 0.648380
v -0.347670 4.035102 0.491513
v -7.514270 3.810174 -1.809904
v -7.593578 3.771936 -1.621291
v -7.771686 3.622048 -1.575666
v -7.847785 3.530503 -1.773006
v -7.778199 3.560908 -1.967600
v -7.599812 3.712603 -1.999245
v -7.895224 4.229666 -1.937048
v -7.654398 4.131323 -1.744285
v -7.697490 4.005998 -1.546766
v -7.896512 3.882894 -1.526132
v -8.137511 3.981418 -1.718698
v -8.094369 4.106722 -1.916244
v -3.655072 3.418136 0.987499
v -3.645930 3.210174 0.890855
v -3.646790 3.010902 1.017118
v -3.657199 3.019681 1.239723
v -3.667015 3.227468 1.336356
v -3.665749 3.426651 1.210395
v -1.987984 3.193610 0.343976
v -1.946356 3.019703 0.477510
v -1.964558 3.047446 0.692261
v -2.022622 3.256793 0.770064
v -2.053715 3.429951 0.634833
v -2.039793 3.398250 0.422555
v -6.982784 4.164157 0.082656
v -6.884652 3.972124 0.020723
v -6.948581 3.757089 0.102106
v -7.109982 3.734647 0.245355
v -7.207144 3.926513 0.307230
v -7.143878 4.140985 0.225913
v -7.663182 4.448106 -0.956534
v -7.518869 4.272806 -0.978680
v -7.577008 4.051243 -0.912262
v -7.779329 4.005337 -0.823745
v -7.923203 4.180630 -0.801417
v -7.865197 4.401832 -0.867787
v -7.706300 3.665597 -1.791675
v -0.467468 3.783990 0.522065
v -5.455597 3.860275 1.065598
v -5.409389 3.658323 0.981404
v -5.447195 3.449114 1.085593
v -5.531097 3.442279 1.273871
v -5.577333 3.644118 1.357960
v -5.539640 3.852904 1.253876
vt 0.618247 0.039572
vt 0.579329 0.039572
vt 0.536276 0.039572
vt 0.740134 0.039572
vt 0.694725 0.039572
vt 0.656843 0.039572
vt 0.502027 0.039572
vt 0.618247 0.460557
vt 0.579329 0.460557
vt 0.536276 0.460557
vt 0.502027 0.460557
vt 0.694725 0.460557
vt 0.656843 0.460557
vt 0.618247 0.168022
vt 0.579329 0.168022
vt 0.536276 0.168022
vt 0.502027 0.168022
vt 0.694725 0.168022
vt 0.656843 0.168022
vt 0.579329 0.099201
vt 0.536276 0.099201
vt 0.502027 0.099201
vt 0.694725 0.099201
vt 0.656843 0.099201
vt 0.618247 0.099201
vt 0.618247 0.313527
vt 0.579329 0.313527
vt 0.536276 0.313527
vt 0.502027 0.313527
vt 0.694725 0.313526
vt 0.656843 0.313527
vt 0.618247 0.384357
vt 0.579329 0.384357
vt 0.536276 0.384357
vt 0.502027 0.384357
vt 0.694725 0.384357
vt 0.656843 0.384357
vt 0.618247 0.492576
vt 0.810260 0.185018
vt 0.774898 0.194052
vt 0.796414 0.122263
vt 0.749539 0.166528
vt 0.759518 0.130977
vt 0.618247 0.242065
vt 0.579329 0.242066
vt 0.536276 0.242066
vt 0.502027 0.242066
vt 0.694725 0.242066
vt 0.656843 0.242066
vt 0.579329 0.015937
vt 0.749539 0.166528
vt 0.536276 0.015936
vt 0.502027 0.015937
vt 0.694725 0.015937
vt 0.740134 0.015937
vt 0.821712 0.148459
vt 0.740134 0.099201
vt 0.810260 0.185018
vt 0.796414 0.122263
vt 0.579329 0.492576
vt 0.536276 0.492576
vt 0.502027 0.492576
vt 0.740134 0.460557
vt 0.740134 0.492576
vt 0.694725 0.492576
vt 0.740134 0.168022
vt 0.740134 0.242066
vt 0.740134 0.313526
vt 0.740134 0.384357
vt 0.759518 0.130977
vt 0.785953 0.157007
vt 0.774898 0.194052
vt 0.786678 0.156886
vt 0.656843 0.492576
vt 0.821712 0.148459
vt 0.656843 0.015937
vt 0.618247 0.015937
vn 0.274408 -0.089900 -0.957402
vn 0.978109 0.005509 0.208023
vn 0.611034 -0.776599 0.153401
vn 0.349537 -0.862489 -0.365974
vn 0.159546 -0.489852 0.857082
vn 0.090052 -0.798838 0.594767
vn -0.274708 0.024327 0.961220
vn -0.271305 0.142126 0.951942
vn 0.108766 0.539932 0.834652
vn -0.345730 0.884515 0.313217
vn 0.535856 0.841528 0.068477
vn -0.082136 0.780229 -0.620078
vn 0.087507 -0.916074 -0.391345
vn -0.205441 -0.143949 -0.968025
vn 0.322053 -0.690661 0.647511
vn 0.232356 0.174726 0.956808
vn -0.078389 0.922079 0.378980
vn -0.293560 0.704280 -0.646384
vn 0.929836 0.323483 -0.175397
vn 0.999050 -0.028594 -0.032872
vn 0.734337 -0.426298 -0.528223
vn 0.252656 0.699967 -0.667990
vn 0.822168 -0.374293 0.428888
vn 0.761545 -0.432795 0.482429
vn -0.224508 -0.755420 0.615578
vn 0.116793 -0.647032 0.753464
vn -0.909560 -0.383670 0.159680
vn -0.058453 -0.987586 0.145798
vn -0.813520 0.296613 -0.500206
vn -0.162190 -0.670582 -0.723889
vn -0.184673 -0.085265 -0.979094
vn 0.258015 -0.015064 -0.966024
vn 0.281203 0.859343 -0.427148
vn -0.011308 0.826481 -0.562850
vn -0.173380 -0.868691 -0.464022
vn -0.015933 -0.839929 -0.542463
vn 0.010889 -0.826526 0.562794
vn -0.284555 -0.857546 0.428537
vn 0.174862 0.088100 0.980644
vn -0.271520 0.016283 0.962295
vn 0.170928 0.869582 0.463262
vn 0.003711 0.839915 0.542706
vn 0.715539 0.055846 -0.696337
vn 0.908077 0.159840 -0.387101
vn 0.286655 0.947209 -0.143608
vn 0.410376 0.893533 -0.182182
vn 0.306007 -0.802442 -0.512296
vn 0.593004 -0.760826 -0.263609
vn -0.410675 -0.892402 0.186991
vn -0.291960 -0.949313 0.116463
vn -0.712341 -0.054874 0.699685
vn -0.907623 -0.161023 0.387675
vn -0.312037 0.802772 0.508125
vn -0.605479 0.760370 0.235015
vn 0.650445 -0.751856 0.107861
vn 0.455508 0.007304 0.890202
s 1
f 1/1/1 7/77/2 8/50/3 2/2/4
f 2/2/4 8/50/3 9/52/5 3/3/6
f 3/3/6 9/52/5 10/53/7 4/7/8
f 4/4/8 10/55/7 11/54/9 5/5/10
f 5/5/10 11/54/9 12/76/11 6/6/12
f 6/6/12 12/76/11 7/77/2 1/1/1
f 2/2/4 32/20/13 31/25/14 1/1/1
f 3/3/6 33/21/15 32/20/13 2/2/4
f 4/7/8 34/22/16 33/21/15 3/3/6
f 5/5/10 35/23/17 34/57/16 4/4/8
f 6/6/12 36/24/18 35/23/17 5/5/10
f 1/1/1 31/25/14 36/24/18 6/6/12
f 20/8/19 13/38/20 18/74/21 19/13/22
f 21/9/23 14/60/24 13/38/20 20/8/19
f 22/10/25 15/61/26 14/60/24 21/9/23
f 23/11/27 16/62/28 15/61/26 22/10/25
f 24/12/29 17/65/30 16/64/28 23/63/27
f 19/13/22 18/74/21 17/65/30 24/12/29
f 26/14/31 52/44/32 51/49/33 25/19/34
f 27/15/35 53/45/36 52/44/32 26/14/31
f 28/16/37 54/46/38 53/45/36 27/15/35
f 29/17/39 55/47/40 54/46/38 28/16/37
f 30/18/41 56/48/42 55/67/40 29/66/39
f 25/19/34 51/49/33 56/48/42 30/18/41
f 32/20/13 27/15/35 26/14/31 31/25/14
f 33/21/15 28/16/37 27/15/35 32/20/13
f 34/22/16 29/17/39 28/16/37 33/21/15
f 35/23/17 30/18/41 29/66/39 34/57/16
f 36/24/18 25/19/34 30/18/41 35/23/17
f 31/25/14 26/14/31 25/19/34 36/24/18
f 38/26/43 44/32/44 43/37/45 37/31/46
f 39/27/47 45/33/48 44/32/44 38/26/43
f 40/28/49 46/34/50 45/33/48 39/27/47
f 41/29/51 47/35/52 46/34/50 40/28/49
f 42/30/53 48/36/54 47/69/52 41/68/51
f 37/31/46 43/37/45 48/36/54 42/30/53
f 44/32/44 20/8/19 19/13/22 43/37/45
f 45/33/48 21/9/23 20/8/19 44/32/44
f 46/34/50 22/10/25 21/9/23 45/33/48
f 47/35/52 23/11/27 22/10/25 46/34/50
f 48/36/54 24/12/29 23/63/27 47/69/52
f 43/37/45 19/13/22 24/12/29 48/36/54
f 13/75/20 14/41/24 49/71/55 18/58/21
f 9/56/5 50/73/56 11/72/9 10/39/7
f 17/40/30 18/58/21 49/71/55 16/51/28
f 14/41/24 15/70/26 16/51/28 49/71/55
f 11/72/9 50/73/56 7/43/2 12/42/11
f 7/43/2 50/73/56 9/56/5 8/59/3
f 52/44/32 38/26/43 37/31/46 51/49/33
f 53/45/36 39/27/47 38/26/43 52/44/32
f 54/46/38 40/28/49 39/27/47 53/45/36
f 55/47/40 41/29/51 40/28/49 54/46/38
f 56/48/42 42/30/53 41/68/51 55/67/40
f 51/49/33 37/31/46 42/30/53 56/48/42
