# This file uses millimeters as units for non-parametric coordinates.

v 3.597027 3.839538 1.210129
v 3.631688 3.658872 1.295685
v 3.717731 3.675933 1.532927
v 3.780257 3.882636 1.631609
v 3.723713 4.070655 1.480221
v 3.612375 4.037601 1.283167
v 3.133512 3.884269 1.400329
v 3.132428 3.669021 1.454575
v 3.219753 3.627105 1.673900
v 3.381414 3.803621 1.805980
v 3.352515 4.036778 1.652517
v 3.201318 4.053780 1.451956
v 7.514270 3.810174 -1.809904
v 7.593578 3.771936 -1.621291
v 7.771686 3.622048 -1.575665
v 7.847785 3.530503 -1.773006
v 7.778199 3.560908 -1.967600
v 7.599812 3.712603 -1.999245
v 7.781934 4.159332 -1.789513
v 7.654140 4.073187 -1.681045
v 7.708912 3.956104 -1.541639
v 7.891503 3.925189 -1.510670
v 8.019340 4.011460 -1.618936
v 7.964548 4.128523 -1.758370
v 6.246787 3.992432 0.833034
v 6.199684 3.787638 0.739702
v 6.267388 3.582350 0.838040
v 6.381970 3.582389 1.029121
v 6.428999 3.786932 1.121648
v 6.361520 3.991686 1.023900
v 4.972691 3.506855 1.264624
v 4.998001 3.320962 1.384253
v 5.032096 3.339445 1.603173
v 5.042917 3.543897 1.694377
v 5.014471 3.729744 1.566178
v 4.976528 3.710470 1.353814
v 7.086075 4.179713 0.036124
v 6.988006 3.987169 -0.027748
v 7.056575 3.772293 0.052695
v 7.222888 3.750721 0.196727
v 7.320371 3.943286 0.260081
v 7.252130 4.157399 0.179921
v 7.663182 4.364867 -0.917553
v 7.518869 4.189568 -0.939699
v 7.577008 3.968004 -0.873281
v 7.779329 3.922099 -0.784764
v 7.923203 4.097391 -0.762436
v 7.865197 4.318593 -0.828806
v 7.706300 3.665597 -1.791676
v 3.265826 3.817307 1.579845
vt 0.618247 0.039572
vt 0.579329 0.039572
vt 0.536276 0.039572
vt 0.740134 0.039572
vt 0.694725 0.039572
vt 0.656843 0.039572
vt 0.502027 0.039572
vt 0.618247 0.460557
vt 0.579329 0.460557
vt 0.536276 0.460557
vt 0.502027 0.460557
vt 0.694725 0.460557
vt 0.656843 0.460557
vt 0.618247 0.168022
vt 0.579329 0.168022
vt 0.536276 0.168022
vt 0.502027 0.168022
vt 0.694725 0.168022
vt 0.656843 0.168022
vt 0.579329 0.099201
vt 0.536276 0.099201
vt 0.502027 0.099201
vt 0.694725 0.099201
vt 0.656843 0.099201
vt 0.618247 0.099201
vt 0.618247 0.313527
vt 0.579329 0.313527
vt 0.536276 0.313527
vt 0.502027 0.313527
vt 0.694725 0.313526
vt 0.656843 0.313527
vt 0.618247 0.384357
vt 0.579329 0.384357
vt 0.536276 0.384357
vt 0.502027 0.384357
vt 0.694725 0.384357
vt 0.656843 0.384357
vt 0.821712 0.148459
vt 0.810260 0.185018
vt 0.774898 0.194052
vt 0.796414 0.122263
vt 0.656843 0.015937
vt 0.759517 0.130977
vt 0.579329 0.015937
vt 0.749539 0.166529
vt 0.536276 0.015936
vt 0.502027 0.015937
vt 0.694725 0.015937
vt 0.740134 0.015936
vt 0.821712 0.148459
vt 0.740134 0.099201
vt 0.810260 0.185018
vt 0.796414 0.122263
vt 0.579329 0.492576
vt 0.536276 0.492576
vt 0.502027 0.492576
vt 0.740134 0.460557
vt 0.740134 0.492576
vt 0.694725 0.492576
vt 0.740134 0.168022
vt 0.740134 0.313526
vt 0.740134 0.384357
vt 0.759518 0.130977
vt 0.785766 0.157153
vt 0.774898 0.194052
vt 0.786158 0.155946
vt 0.656843 0.492576
vt 0.618247 0.492576
vt 0.749539 0.166528
vt 0.618247 0.015937
vn -0.171320 -0.027856 -0.984821
vn -0.194186 -0.842541 -0.502411
vn -0.703871 -0.659895 -0.262877
vn -0.948801 0.181183 -0.258746
vn -0.012245 -0.868870 0.494888
vn -0.557939 -0.449392 0.697675
vn 0.173884 0.061431 0.982848
vn -0.129481 0.140797 0.981535
vn 0.170068 0.910238 0.377549
vn -0.461640 0.661558 0.590956
vn 0.005503 0.798249 -0.602303
vn -0.604235 0.783204 -0.146598
vn -0.177373 -0.067181 -0.981848
vn -0.114735 -0.877456 -0.465732
vn 0.058680 -0.830963 0.553224
vn 0.181863 0.096722 0.978556
vn 0.120463 0.901555 0.415557
vn -0.072761 0.814773 -0.575196
vn -0.938359 0.322699 -0.123886
vn -0.265823 0.768068 -0.582589
vn -0.775989 -0.327005 -0.539360
vn -0.999239 0.008705 0.038011
vn -0.780899 -0.441876 0.441522
vn -0.747896 -0.441793 0.495450
vn 0.342205 -0.771488 0.536378
vn -0.097351 -0.651643 0.752253
vn 0.958675 -0.272573 0.081526
vn 0.145901 -0.978159 0.148048
vn 0.762569 0.448976 -0.465734
vn 0.367062 -0.434971 -0.822232
vn -0.548291 -0.029708 -0.835760
vn -0.402573 0.841652 -0.359939
vn -0.425972 0.889045 -0.167772
vn -0.790868 0.051386 -0.609826
vn -0.155257 -0.861336 -0.483731
vn -0.367536 -0.815687 -0.446734
vn 0.394371 -0.843448 0.364784
vn 0.427919 -0.887498 0.170977
vn 0.544010 0.031622 0.838483
vn 0.789113 -0.050526 0.612167
vn 0.154093 0.863232 0.480714
vn 0.374746 0.815467 0.441112
vn -0.340880 0.926395 -0.159980
vn -0.922832 0.132396 -0.361734
vn -0.550617 -0.793405 -0.259479
vn 0.354529 -0.932668 0.066636
vn 0.938405 -0.156529 0.308050
vn 0.590319 0.788037 0.174703
vn -0.650445 -0.751856 0.107860
vn -0.815319 0.233705 0.529751
s 1
f 1/1/1 2/2/2 8/44/3 7/70/4
f 2/2/2 3/3/5 9/46/6 8/44/3
f 3/3/5 4/7/7 10/47/8 9/46/6
f 4/4/7 5/5/9 11/48/10 10/49/8
f 5/5/9 6/6/11 12/42/12 11/48/10
f 6/6/11 1/1/1 7/70/4 12/42/12
f 2/2/2 1/1/1 31/25/13 32/20/14
f 3/3/5 2/2/2 32/20/14 33/21/15
f 4/7/7 3/3/5 33/21/15 34/22/16
f 5/5/9 4/4/7 34/51/16 35/23/17
f 6/6/11 5/5/9 35/23/17 36/24/18
f 1/1/1 6/6/11 36/24/18 31/25/13
f 20/8/19 19/13/20 18/67/21 13/68/22
f 21/9/23 20/8/19 13/68/22 14/54/24
f 22/10/25 21/9/23 14/54/24 15/55/26
f 23/11/27 22/10/25 15/55/26 16/56/28
f 24/12/29 23/57/27 16/58/28 17/59/30
f 19/13/20 24/12/29 17/59/30 18/67/21
f 26/14/31 25/19/32 37/31/33 38/26/34
f 27/15/35 26/14/31 38/26/34 39/27/36
f 28/16/37 27/15/35 39/27/36 40/28/38
f 29/17/39 28/16/37 40/28/38 41/29/40
f 30/18/41 29/60/39 41/61/40 42/30/42
f 25/19/32 30/18/41 42/30/42 37/31/33
f 32/20/14 31/25/13 26/14/31 27/15/35
f 33/21/15 32/20/14 27/15/35 28/16/37
f 34/22/16 33/21/15 28/16/37 29/17/39
f 35/23/17 34/51/16 29/60/39 30/18/41
f 36/24/18 35/23/17 30/18/41 25/19/32
f 31/25/13 36/24/18 25/19/32 26/14/31
f 38/26/34 37/31/33 43/37/43 44/32/44
f 39/27/36 38/26/34 44/32/44 45/33/45
f 40/28/38 39/27/36 45/33/45 46/34/46
f 41/29/40 40/28/38 46/34/46 47/35/47
f 42/30/42 41/61/40 47/62/47 48/36/48
f 37/31/33 42/30/42 48/36/48 43/37/43
f 44/32/44 43/37/43 19/13/20 20/8/19
f 45/33/45 44/32/44 20/8/19 21/9/23
f 46/34/46 45/33/45 21/9/23 22/10/25
f 47/35/47 46/34/46 22/10/25 23/11/27
f 48/36/48 47/62/47 23/57/27 24/12/29
f 43/37/43 48/36/48 24/12/29 19/13/20
f 13/38/22 18/52/21 49/64/49 14/41/24
f 9/50/6 10/39/8 11/65/10 50/66/50
f 17/40/30 16/45/28 49/64/49 18/52/21
f 14/41/24 49/64/49 16/45/28 15/63/26
f 11/65/10 12/69/12 7/43/4 50/66/50
f 7/43/4 8/53/3 9/50/6 50/66/50
