# This file uses millimeters as units for non-parametric coordinates.

v -4.532390 2.010835 4.185966
v -4.413752 2.013406 4.231831
v -4.371798 2.099111 4.311556
v -4.508427 2.150002 4.380306
v -4.667771 2.116270 4.308312
v -4.659280 2.070827 4.205009
v -4.826058 1.705988 5.283776
v -4.681389 1.697962 5.340903
v -4.636319 1.783966 5.389939
v -4.756152 1.866826 5.393719
v -4.915143 1.864424 5.327683
v -4.942622 1.791820 5.269924
v -5.136051 1.501359 6.506010
v -4.955231 1.488330 6.570476
v -4.873809 1.594835 6.572909
v -4.979132 1.711525 6.514058
v -5.164460 1.721595 6.447301
v -5.240731 1.618588 6.442609
v -5.111702 5.830935 6.236222
v -4.929668 5.897330 6.316603
v -4.807084 5.901062 6.260927
v -4.894062 5.809956 6.114832
v -5.094525 5.740283 6.029362
v -5.206366 5.755708 6.084911
v -5.175620 1.782890 7.555268
v -5.070081 1.667292 7.662443
v -5.167136 1.554542 7.702400
v -5.368762 1.557501 7.635519
v -5.474581 1.672782 7.528102
v -5.378402 1.785344 7.487700
v -5.096707 5.574921 6.192613
v -4.887374 5.645429 6.271501
v -4.798336 5.742554 6.424047
v -4.927161 5.746495 6.492265
v -5.119237 5.679639 6.417423
v -5.215432 5.596513 6.260817
v -4.714561 2.079493 4.475877
v -4.549879 2.108666 4.549486
v -4.411042 2.050364 4.489197
v -4.454308 1.961784 4.411803
v -4.581492 1.960977 4.362410
v -4.711468 2.027609 4.376387
v -5.139920 2.327984 8.299366
v -5.019026 2.246534 8.453188
v -5.120014 2.151576 8.547381
v -5.341556 2.137683 8.488577
v -5.462997 2.218589 8.334910
v -5.362348 2.313933 8.239891
v -5.317380 3.339380 8.264971
v -5.206286 3.331225 8.436613
v -5.309978 3.278284 8.550546
v -5.525699 3.233639 8.491576
v -5.637662 3.242343 8.319823
v -5.529691 3.297419 8.213489
v -5.562778 4.382320 7.858911
v -5.475615 4.440058 8.024852
v -5.587042 4.431478 8.139986
v -5.790135 4.362827 8.080581
v -5.877925 4.305897 7.914670
v -5.225723 4.879937 6.973710
v -5.239896 5.012858 7.127539
v -5.399037 5.044800 7.146714
v -5.540547 4.950213 7.015547
v -5.527840 4.819668 6.860277
v -5.370386 4.787896 6.847889
v -5.741692 4.330637 7.846367
vt 0.160826 0.522533
vt 0.187812 0.522533
vt 0.187812 0.528110
vt 0.160826 0.528110
vt 0.012165 0.522533
vt 0.042065 0.522533
vt 0.042065 0.528110
vt 0.012165 0.528110
vt 0.073908 0.522533
vt 0.073908 0.528110
vt 0.105339 0.522533
vt 0.105339 0.528110
vt 0.134503 0.522533
vt 0.134503 0.528110
vt 0.160826 0.554221
vt 0.187812 0.554221
vt 0.187812 0.583534
vt 0.160826 0.583534
vt 0.012165 0.554221
vt 0.042065 0.554221
vt 0.042065 0.583534
vt 0.012165 0.583534
vt 0.073908 0.554221
vt 0.073908 0.583534
vt 0.105339 0.554221
vt 0.105339 0.583534
vt 0.134503 0.554221
vt 0.134503 0.583534
vt 0.187812 0.610168
vt 0.160826 0.610168
vt 0.042065 0.610168
vt 0.012165 0.610168
vt 0.073908 0.610168
vt 0.105339 0.610168
vt 0.134503 0.610168
vt 0.187812 0.657336
vt 0.160826 0.657336
vt 0.160826 0.635095
vt 0.187812 0.635095
vt 0.042065 0.657336
vt 0.012165 0.657336
vt 0.012165 0.635095
vt 0.042065 0.635095
vt 0.073908 0.657336
vt 0.073908 0.635095
vt 0.105339 0.657336
vt 0.105339 0.635095
vt 0.134503 0.657336
vt 0.134503 0.635095
vt 0.187812 0.710684
vt 0.160826 0.710684
vt 0.160826 0.681455
vt 0.187812 0.681455
vt 0.042065 0.710684
vt 0.012165 0.710684
vt 0.012165 0.681455
vt 0.042065 0.681455
vt 0.073908 0.710684
vt 0.073908 0.681455
vt 0.134503 0.710684
vt 0.105339 0.710684
vt 0.105339 0.681455
vt 0.134503 0.681455
vt 0.073908 0.739096
vt 0.105339 0.739096
vt 0.105339 0.744334
vt 0.073908 0.744334
vt 0.042065 0.739096
vt 0.042065 0.744334
vt 0.012165 0.739096
vt 0.012165 0.744334
vt 0.160826 0.739096
vt 0.187812 0.739096
vt 0.187812 0.744334
vt 0.160826 0.744334
vt 0.134503 0.739096
vt 0.134503 0.744334
vt 0.223102 0.742684
vt 0.201743 0.739059
vt 0.191946 0.691276
vt 0.232510 0.690498
vt 0.202408 0.639418
vt 0.224589 0.638338
vt 0.193014 0.576173
vt 0.201698 0.530769
vt 0.222047 0.525408
vt 0.232114 0.577780
vt 0.200212 0.623721
vt 0.221226 0.631393
vn -0.045713 -0.107562 -0.993147
vn 0.704659 -0.451113 -0.547679
vn 0.549728 -0.828752 -0.104731
vn -0.199418 -0.928656 -0.312778
vn 0.786647 0.600605 -0.143038
vn 0.936418 0.214614 0.277600
vn 0.138529 0.970063 -0.199468
vn 0.148168 0.947816 0.282297
vn -0.422839 0.874281 -0.238412
vn -0.665780 0.746092 0.009119
vn -0.732553 0.192354 -0.652968
vn -0.893143 -0.306078 -0.329562
vn -0.268911 -0.923706 -0.272862
vn 0.504471 -0.860084 -0.075924
vn 0.439707 -0.897281 0.039296
vn -0.361310 -0.922572 -0.135332
vn 0.953893 0.163376 0.251785
vn 0.976128 0.097727 0.193970
vn 0.245366 0.936687 0.249827
vn 0.361341 0.926517 0.104872
vn -0.569769 0.821497 0.022494
vn -0.453276 0.888501 -0.071461
vn -0.933036 -0.216285 -0.287513
vn -0.965846 -0.111434 -0.233930
vn 0.395324 -0.857847 0.328355
vn -0.480803 -0.844035 0.237557
vn 0.997323 0.004900 0.072953
vn 0.488052 0.832845 -0.261101
vn -0.398338 0.850450 -0.343602
vn -0.994672 -0.025573 -0.099862
vn 0.338941 -0.411268 0.846155
vn 0.202727 0.208797 0.956716
vn -0.609726 0.016507 0.792441
vn -0.581936 -0.420926 0.695825
vn 0.997456 0.052855 0.047826
vn 0.969444 0.215011 0.118105
vn 0.583336 0.397628 -0.708245
vn 0.588342 -0.038441 -0.807698
vn -0.332737 0.390893 -0.858189
vn -0.171722 -0.222262 -0.959745
vn -0.995165 -0.072148 -0.066641
vn -0.958056 -0.228796 -0.172570
vn 0.024553 0.659404 0.751388
vn -0.139559 0.796211 0.588703
vn -0.775119 0.608291 0.170798
vn -0.762554 0.414763 0.496471
vn 0.929964 0.257085 0.262819
vn 0.849162 0.167863 0.500746
vn 0.739101 -0.461300 -0.490848
vn 0.769083 -0.617916 -0.163376
vn -0.896975 -0.322795 -0.302057
vn -0.846792 -0.202528 -0.491859
vn 0.163800 -0.811665 -0.560687
vn 0.031237 -0.700881 -0.712594
vn -0.137198 0.936631 0.322332
vn 0.619677 0.781402 -0.073562
vn 0.469227 0.391326 -0.791637
vn -0.489346 0.871907 0.017863
vn -0.054275 -0.203474 -0.977575
vn -0.820197 0.392320 -0.416367
vn 0.764765 -0.526329 -0.371635
vn 0.078329 -0.686943 -0.722477
vn 0.884199 0.202838 0.420772
vn -0.123721 0.737625 0.663779
vn -0.744839 0.582174 0.326018
vn -0.905387 -0.117819 -0.407913
s 1
f 1/1/1 2/2/2 40/3/3 41/4/4
f 2/5/2 3/6/5 39/7/6 40/8/3
f 3/6/5 4/9/7 38/10/8 39/7/6
f 4/9/7 5/11/9 37/12/10 38/10/8
f 5/11/9 6/13/11 42/14/12 37/12/10
f 6/13/11 1/1/1 41/4/4 42/14/12
f 7/15/13 8/16/14 14/17/15 13/18/16
f 8/19/14 9/20/17 15/21/18 14/22/15
f 9/20/17 10/23/19 16/24/20 15/21/18
f 10/23/19 11/25/21 17/26/22 16/24/20
f 11/25/21 12/27/23 18/28/24 17/26/22
f 12/27/23 7/15/13 13/18/16 18/28/24
f 13/18/16 14/17/15 27/29/25 28/30/26
f 14/22/15 15/21/18 26/31/27 27/32/25
f 15/21/18 16/24/20 25/33/28 26/31/27
f 16/24/20 17/26/22 30/34/29 25/33/28
f 17/26/22 18/28/24 29/35/30 30/34/29
f 18/28/24 13/18/16 28/30/26 29/35/30
f 45/39/31 51/36/32 52/37/33 46/38/34
f 44/43/35 50/40/36 51/41/32 45/42/31
f 43/45/37 49/44/38 50/40/36 44/43/35
f 48/47/39 54/46/40 49/44/38 43/45/37
f 47/49/41 53/48/42 54/46/40 48/47/39
f 46/38/34 52/37/33 53/48/42 47/49/41
f 57/53/43 62/50/44 63/51/45 58/52/46
f 56/57/47 61/54/48 62/55/44 57/56/43
f 55/59/49 60/58/50 61/54/48 56/57/47
f 59/63/51 64/60/52 65/61/53 66/62/54
f 58/52/46 63/51/45 64/60/52 59/63/51
f 26/31/27 25/33/28 43/45/37 44/43/35
f 27/32/25 26/31/27 44/43/35 45/42/31
f 28/30/26 27/29/25 45/39/31 46/38/34
f 29/35/30 28/30/26 46/38/34 47/49/41
f 30/34/29 29/35/30 47/49/41 48/47/39
f 25/33/28 30/34/29 48/47/39 43/45/37
f 20/78/55 21/79/56 22/80/57 19/81/58
f 22/80/57 23/82/59 24/83/60 19/81/58
f 32/64/61 31/65/62 23/66/59 22/67/57
f 33/68/63 32/64/61 22/67/57 21/69/56
f 34/70/64 33/68/63 21/69/56 20/71/55
f 35/72/65 34/73/64 20/74/55 19/75/58
f 36/76/66 35/72/65 19/75/58 24/77/60
f 31/65/62 36/76/66 24/77/60 23/66/59
f 38/10/8 37/12/10 11/25/21 10/23/19
f 39/7/6 38/10/8 10/23/19 9/20/17
f 40/8/3 39/7/6 9/20/17 8/19/14
f 41/4/4 40/3/3 8/16/14 7/15/13
f 42/14/12 41/4/4 7/15/13 12/27/23
f 37/12/10 42/14/12 12/27/23 11/25/21
f 5/86/9 4/87/7 1/84/1 6/85/11
f 3/89/5 2/88/2 1/84/1 4/87/7
f 55/59/49 56/57/47 50/40/36 49/44/38
f 56/57/47 57/56/43 51/41/32 50/40/36
f 57/53/43 58/52/46 52/37/33 51/36/32
f 58/52/46 59/63/51 53/48/42 52/37/33
f 59/63/51 66/62/54 54/46/40 53/48/42
f 61/54/48 60/58/50 32/64/61 33/68/63
f 62/55/44 61/54/48 33/68/63 34/70/64
f 63/51/45 62/50/44 34/73/64 35/72/65
f 64/60/52 63/51/45 35/72/65 36/76/66
f 65/61/53 64/60/52 36/76/66 31/65/62
f 60/58/50 65/61/53 31/65/62 32/64/61
f 66/62/54 65/61/53 60/58/50 55/59/49
f 66/62/54 55/59/49 49/44/38 54/46/40
